<?xml version="1.0" encoding="utf-8"?>
<!-- Generator: Adobe Illustrator 22.0.1, SVG Export Plug-In . SVG Version: 6.00 Build 0)  -->
<svg version="1.1" id="圖層_1" xmlns="http://www.w3.org/2000/svg" xmlns:xlink="http://www.w3.org/1999/xlink" x="0px" y="0px"
	 viewBox="0 0 62 62" style="enable-background:new 0 0 62 62;" xml:space="preserve">
<style type="text/css">
	.st0{fill:#FFBB33;}
	.st1{font-family:'Helvetica-Bold';}
	.st2{font-size:30px;}
</style>
<title>dialog</title>
<g id="圖層_12">
	<g>
		<path class="st0" d="M31,6.1c2.2,0,4.3,1.2,5.4,3.1l21.5,37.2c0.5,0.9,0.8,2,0.8,3.1c0,1.7-0.7,3.3-1.8,4.4
			c-1.2,1.2-2.8,1.8-4.4,1.8h-43c-1.1,0-2.2-0.3-3.1-0.8c-3-1.7-4-5.6-2.3-8.6L25.6,9.2c0.6-1,1.3-1.7,2.3-2.3
			C28.8,6.4,29.9,6.1,31,6.1 M31,4.1c-1.4,0-2.8,0.4-4.1,1.1c-1.3,0.7-2.3,1.8-3,3L2.3,45.5c-2.3,4-0.9,9,3,11.3
			c1.3,0.7,2.7,1.1,4.1,1.1h43c4.6,0,8.3-3.7,8.3-8.3c0-1.4-0.4-2.9-1.1-4.1L38.2,8.2C36.6,5.6,33.9,4.1,31,4.1L31,4.1z"/>
	</g>
	<g>
		<text transform="matrix(1 0 0 1 26 46.06)" class="st0 st1 st2">!</text>
	</g>
</g>
</svg>
