<svg id="圖層_1" data-name="圖層 1" xmlns="http://www.w3.org/2000/svg" viewBox="0 0 150 150"><defs><style>.cls-1{fill:#f73706;}</style></defs><title>icon</title><rect class="cls-1" x="52" y="58.24" width="18.09" height="2.92"/><rect class="cls-1" x="52" y="67.14" width="33.09" height="2.92"/><path class="cls-1" d="M79.8,20.81a59.44,59.44,0,0,0-11.5-1.13A59.09,59.09,0,0,0,54,136a55.61,55.61,0,0,0,14.53,1.8,59.22,59.22,0,0,0,57.27-44.56A2.57,2.57,0,0,0,124,90.7a2.1,2.1,0,0,0-2.58,1.52,54.64,54.64,0,0,1-66.51,39.52A54.73,54.73,0,0,1,78.55,24.91l.62.11-1.88,7.53,19.26-5.37L82.23,13.3l-1.86,7.62Z"/><rect class="cls-1" x="52" y="75.71" width="26.82" height="2.92"/><path class="cls-1" d="M137.55,50.76a8,8,0,0,0,3-5.59,9.06,9.06,0,0,0-2.2-6.75,8.93,8.93,0,0,0-12.52-.92l-5.93,5.1-19.45,17v-12a2.29,2.29,0,0,0-2.2-2.21h-57A2.29,2.29,0,0,0,39,47.59v67.58a2.3,2.3,0,0,0,2.2,2.21h57a2.3,2.3,0,0,0,2.2-2.21V83.08l19.17-16.66,1.8-1.64Zm-17.5-4.59,6.61-6,.86-.69A6.47,6.47,0,0,1,132,38a6,6,0,0,1,4.26,2.07A6.66,6.66,0,0,1,137.89,45a5.9,5.9,0,0,1-2,4.08h0l-7.75,6.7-.38-.55s-3.61-5.2-7.89-7.74l-.67-.39Zm-23.7,67H43.55V50H96.18V63.68L78.83,78.73v-.06L71.9,84.78H52V87.7H70.22L66.76,94l-.35.54L62,103.09l-.3.45a1.55,1.55,0,0,0,.36,1.32,1.88,1.88,0,0,0,1.39.48h.09l.58-.15,19.07-6.9.2-.13a1.57,1.57,0,0,1,.39-.19L96.35,87.16ZM73.68,87.73a4.1,4.1,0,0,1,1.53,1,17.8,17.8,0,0,1,2.7,2.54,15.16,15.16,0,0,1,2.22,3.08,5.26,5.26,0,0,0,.46,1c.07.14.14.26.2.37l.3.6-8.6,3.17L69,95.48l4.23-7.91Zm43.73-22.88L104.71,75.9l-3.29,3L83.36,94.71,83,94l-.13-.28a2.44,2.44,0,0,0-.42-.72l-.09-.12a21.89,21.89,0,0,0-2.57-3.53l-.09-.13A1.4,1.4,0,0,0,79.5,89a2.12,2.12,0,0,1-.39-.47,29.73,29.73,0,0,0-2.37-2.2,2.83,2.83,0,0,0-.88-.59l-.74-.38,1.74-1.74L95,67.74l.69-.52L100.62,63l15.64-13.79.37.19c4.9,2.54,7.76,8.4,7.87,8.65l.2.41Z"/></svg>