<svg id="圖層_1" data-name="圖層 1" xmlns="http://www.w3.org/2000/svg" viewBox="0 0 150 150"><defs><style>.cls-1{fill:#fff;}.cls-2{fill:#39b54a;}</style></defs><title>icon</title><path class="cls-1" d="M47.48,36.8a23.7,23.7,0,0,1,3-1.58,9.64,9.64,0,0,0,1.47-.74c.1-.1,1-.42.63-.32s.21-.1.21-.1a4.93,4.93,0,0,1,.74-.32c1.37-.52,2.84-1.05,4.31-1.47a59.83,59.83,0,0,1,25.89-2A65.08,65.08,0,0,1,103,36.59a2.38,2.38,0,0,0,2.42-4.11,67.44,67.44,0,0,0-34.2-7.36,63.61,63.61,0,0,0-22.1,5.47,29.32,29.32,0,0,0-4,2.1A2.41,2.41,0,0,0,44.32,36a2.26,2.26,0,0,0,3.16.85Z"/><path class="cls-2" d="M42.11,106.35a42.12,42.12,0,0,1-2.31-8.84c-.11-.63-.21-1.36-.32-2,0-.1-.1-.73,0,0a1,1,0,0,0-.1-.52c0-.42-.11-.84-.11-1.26a36.64,36.64,0,0,1-.21-4.85,42.38,42.38,0,0,1,.32-5.15,1.39,1.39,0,0,1,.1-.63c-.1.52,0-.11,0-.21.11-.42.11-.85.21-1.27a21.83,21.83,0,0,1,.63-2.73A30.57,30.57,0,0,1,45,68.79a29,29,0,0,1,3.79-4.32,35.11,35.11,0,0,1,5.37-4.21,37.19,37.19,0,0,1,16.52-5.89A41,41,0,0,1,89.47,57,33.2,33.2,0,0,1,102,65.21a31.22,31.22,0,0,1,4.73,6.42c.74,1.26,1.48,2.63,2.11,4,.31.73.73,1.47,1,2.21-.21-.43-.1-.11,0,0a16.86,16.86,0,0,1,.74,2.21,12.82,12.82,0,0,1,.42,1.89c.1.31.1.74.21,1.16,0,.21.1.42.1.63-.1-.63,0,.31,0,.42a20.17,20.17,0,0,1,.11,2.63v2.53h0a9.39,9.39,0,0,1-2,4.94c.21-.31-.21.32-.21.32l-.53.52a4.49,4.49,0,0,1-.84.74,9.2,9.2,0,0,1-3.58,1.68,11.44,11.44,0,0,1-8.52-.73,10.54,10.54,0,0,1-4.53-4.53A7.66,7.66,0,0,1,90.73,91a3.63,3.63,0,0,1-.21-1c-.11-.42-.42-1.27,0-.32-.21-.53,0-1.26-.11-1.79,0-.84-.21-1.68-.31-2.63-2.32-11.57-18.84-15.15-26.31-6.52-5.68,6.52-4.1,16.1-1,23.46a37.76,37.76,0,0,0,18.31,19.37,57.3,57.3,0,0,0,8.31,3.36c3,.95,4.21-3.68,1.26-4.63a43.61,43.61,0,0,1-14.2-7.47,31.66,31.66,0,0,1-7.79-9.36l-1.26-2.53c-.21-.42.1.21-.11-.21a1.88,1.88,0,0,1-.21-.53,6.21,6.21,0,0,1-.42-1.26,31.87,31.87,0,0,1-1.26-4.63c-.11-.74-.21-1.37-.32-2,0-.21,0-.31-.1-.42-.11-.53,0,.21,0,0s-.11-.63-.11-1a11.92,11.92,0,0,1,1.48-7.57c2.94-4.84,8.73-5.69,13.57-3.69a9.65,9.65,0,0,1,4.52,3.69c1.27,2,1.16,4.21,1.48,6.63.1.63,0,.21,0,.1,0,.32.1.53.1.84s.11.74.21,1.06a13.87,13.87,0,0,0,.85,2.21,10,10,0,0,0,1.36,2.21,15.32,15.32,0,0,0,8,5.47c5.68,1.68,12.63.21,16.52-4.42,4.74-5.68,4.21-14,2-20.73a41,41,0,0,0-6.84-12.21,36.08,36.08,0,0,0-11.78-10c-12-6.31-26.42-7.15-38.73-1.47C49.06,56.89,41.69,63.52,38,72.26a44.28,44.28,0,0,0-2.95,21.57,55.06,55.06,0,0,0,2.74,13,1.57,1.57,0,0,1,.21.63,2.39,2.39,0,0,0,3,1.68,2.31,2.31,0,0,0,1.15-2.84Z"/><path class="cls-1" d="M34.54,62.37a1.77,1.77,0,0,1,.42-.53,2.31,2.31,0,0,0,.42-.63c.1-.21.52-.63,0,0,.1-.21.31-.32.42-.53,1.37-1.68,3-3.36,4.52-4.94A47.41,47.41,0,0,1,47.58,50a48.35,48.35,0,0,1,23.47-7.89,52.59,52.59,0,0,1,5.89,0c1,0,2,.1,3,.1a9.53,9.53,0,0,1,1.68.21c.32,0,.64.11,1,.11.63.1-.53-.11.11,0a.8.8,0,0,1,.52.1,58.57,58.57,0,0,1,9.37,2.32,49.31,49.31,0,0,1,22.94,17.47,2.38,2.38,0,0,0,4.1-2.42,52.79,52.79,0,0,0-41-22.63A58.64,58.64,0,0,0,59.9,39.11a55.69,55.69,0,0,0-21,11.58A46,46,0,0,0,30.54,60c-1.79,2.63,2.31,5,4,2.42Z"/><path class="cls-1" d="M72.42,88.15a25.55,25.55,0,0,0,3.68,12.94,25.07,25.07,0,0,0,14.42,12c4.84,1.47,9.68,1.26,14.73.73a2.52,2.52,0,0,0,2.42-2.42,2.38,2.38,0,0,0-2.42-2.42c-4.1.42-8.21.74-12-.21a18.64,18.64,0,0,1-4.1-1.47c-.63-.32-1.26-.74-1.89-1a4,4,0,0,0-.85-.53,1.52,1.52,0,0,1-.42-.31h0c-.1-.11-.21-.11-.21-.21a20,20,0,0,1-2.94-3c-.21-.21-.42-.53-.63-.74.31.32-.32-.42-.32-.52-.42-.53-.74-1.16-1.16-1.69A30.28,30.28,0,0,1,79.05,96c0-.11-.11-.21-.11-.32.21.53.11.21,0,.11-.1-.32-.21-.53-.31-.84-.21-.53-.32-1-.53-1.58-.31-1-.52-1.89-.74-2.84,0-.11-.1-.84-.1-.32s0-.21,0-.31V88c0-2.94-4.74-2.94-4.84.11Z"/><path class="cls-2" d="M103.15,88.36a26,26,0,0,0-6-16.84c-6-7.58-16.52-11.15-26-9.89C62,62.79,53,69,49.16,77.52a32.45,32.45,0,0,0-2,17.57,49.14,49.14,0,0,0,15,28c2.21,2.11,5.57-1.26,3.36-3.36A45.67,45.67,0,0,1,52.21,96.57a20.12,20.12,0,0,1-.42-2.11.67.67,0,0,0-.1-.42c-.11-.63.1.53,0-.1,0-.32-.11-.74-.11-1.06a29.05,29.05,0,0,1-.21-2.94A29.39,29.39,0,0,1,52,83.83a20.6,20.6,0,0,1,5.48-10.2,33,33,0,0,1,3.78-3.16,24.75,24.75,0,0,1,6-3,24.35,24.35,0,0,1,15.26.1,21.86,21.86,0,0,1,9.37,5.69A17.63,17.63,0,0,1,95,77.31a13.75,13.75,0,0,1,1.06,2.1c.1.21.21.32.21.53.21.53-.11-.32.1.21.11.32.32.74.42,1a23.81,23.81,0,0,1,1,3.9c0,.31.11.52.11.84-.11-.84,0,0,0,.21a20.41,20.41,0,0,1,.1,2.42c.22,3,5.06,3,5.06-.21Z"/></svg>