<svg id="圖層_1" data-name="圖層 1" xmlns="http://www.w3.org/2000/svg" xmlns:xlink="http://www.w3.org/1999/xlink" viewBox="0 0 150 45"><defs><style>.cls-1{fill:#fff;}.cls-2{fill:url(#linear-gradient);}.cls-3{fill:url(#linear-gradient-2);}.cls-4{fill:url(#linear-gradient-3);}.cls-5{fill:url(#linear-gradient-4);}</style><linearGradient id="linear-gradient" x1="22.12" y1="9.05" x2="22.12" y2="36.43" gradientUnits="userSpaceOnUse"><stop offset="0" stop-color="#267caf"/><stop offset="0.29" stop-color="#4a92b4"/><stop offset="0.77" stop-color="#79bcba"/><stop offset="1" stop-color="#88cebc"/></linearGradient><linearGradient id="linear-gradient-2" x1="36.28" y1="19.58" x2="32.94" y2="27.13" gradientUnits="userSpaceOnUse"><stop offset="0" stop-color="#f48879"/><stop offset="0.12" stop-color="#f5907a"/><stop offset="0.71" stop-color="#fbb777"/><stop offset="1" stop-color="#fdc874"/></linearGradient><linearGradient id="linear-gradient-3" x1="31.31" y1="25.32" x2="16.29" y2="37.47" gradientUnits="userSpaceOnUse"><stop offset="0" stop-color="#eb413d"/><stop offset="0.17" stop-color="#d94452"/><stop offset="0.57" stop-color="#af487a"/><stop offset="0.86" stop-color="#954b92"/><stop offset="1" stop-color="#894a9c"/></linearGradient><linearGradient id="linear-gradient-4" x1="17.36" y1="9.79" x2="31.72" y2="20.77" gradientUnits="userSpaceOnUse"><stop offset="0" stop-color="#54c0ac"/><stop offset="1" stop-color="#dde79a"/></linearGradient></defs><title>icon</title><path class="cls-1" d="M52.73,13.6A3,3,0,0,1,52,15.8a3.41,3.41,0,0,1-5.83-2.42A3.38,3.38,0,0,1,49.54,10a2.93,2.93,0,0,1,1.32.33,2.4,2.4,0,0,1,1,.77l-.55.55a2.05,2.05,0,0,0-1.76-.77,2.19,2.19,0,0,0-1.76.77A2.27,2.27,0,0,0,47,13.49a2.27,2.27,0,0,0,.77,1.87,2.83,2.83,0,0,0,1.76.77,2.41,2.41,0,0,0,1.87-.77A1.82,1.82,0,0,0,52,14H49.54v-.88h3.19v.44Zm5.06-2.75h-3v2.09h2.75v.77H54.82V15.8h3v.88H53.94v-6.6h3.85Zm3.63,5.83h-.88V10.85H58.67v-.77h4.62v.77H61.42Zm5.06,0v-6.6h.88v6.6Zm4.62,0h-.88V10.85H68.35v-.77h4.51v.77H71v5.83Zm10.45-.88a3.41,3.41,0,0,1-5.83-2.42,3.41,3.41,0,1,1,6.82,0A3.23,3.23,0,0,1,81.55,15.8Zm-4.18-.55a2.6,2.6,0,0,0,1.76.77,2.19,2.19,0,0,0,1.76-.77,2.65,2.65,0,0,0,.77-1.87,2.27,2.27,0,0,0-.77-1.87,2.6,2.6,0,0,0-1.76-.77,2.19,2.19,0,0,0-1.76.77,2.65,2.65,0,0,0-.77,1.87A2.27,2.27,0,0,0,77.37,15.25Zm6.38,1.43v-6.6h1l3.19,5.17V10.08h.88v6.6h-.88l-3.41-5.39v5.39Z"/><path class="cls-1" d="M75.5,24.93a4.63,4.63,0,0,0-4.73,4.73,4.69,4.69,0,0,0,4.73,4.73,4.63,4.63,0,0,0,4.73-4.73A4.56,4.56,0,0,0,75.5,24.93Zm0,7.48a2.87,2.87,0,0,1,0-5.72,2.66,2.66,0,0,1,2.64,2.86A2.73,2.73,0,0,1,75.5,32.41ZM65.27,24.93a4.63,4.63,0,0,0-4.73,4.73,4.69,4.69,0,0,0,4.73,4.73A4.63,4.63,0,0,0,70,29.66,4.56,4.56,0,0,0,65.27,24.93Zm0,7.48a2.87,2.87,0,0,1,0-5.72,2.66,2.66,0,0,1,2.64,2.86A2.73,2.73,0,0,1,65.27,32.41Zm-12.21-6v2h4.73a4.16,4.16,0,0,1-1.1,2.53,4.87,4.87,0,0,1-3.63,1.43A5.12,5.12,0,0,1,47.89,27a5.19,5.19,0,0,1,5.17-5.28,5.45,5.45,0,0,1,3.63,1.43l1.43-1.43a7,7,0,0,0-4.95-2A7.42,7.42,0,0,0,45.8,27a7.42,7.42,0,0,0,7.37,7.26,6.33,6.33,0,0,0,5.06-2.09A6.62,6.62,0,0,0,60,27.57a4.12,4.12,0,0,0-.11-1.21ZM103,27.9a4.27,4.27,0,0,0-4-3,4.43,4.43,0,0,0-4.4,4.73,4.6,4.6,0,0,0,4.62,4.73,4.51,4.51,0,0,0,3.85-2.09l-1.54-1.1a2.68,2.68,0,0,1-2.31,1.32A2.39,2.39,0,0,1,97,31.09l6.27-2.64L103,27.9Zm-6.38,1.54A2.67,2.67,0,0,1,99,26.69a2,2,0,0,1,1.76,1l-4.18,1.76ZM91.45,34h2.09V20.2H91.45Zm-3.3-8a3.62,3.62,0,0,0-2.53-1.1,4.73,4.73,0,0,0-4.51,4.73,4.55,4.55,0,0,0,4.51,4.62A3.16,3.16,0,0,0,88,33.07h.11v.66a2.5,2.5,0,0,1-4.84,1.1l-1.76.77a4.54,4.54,0,0,0,4.18,2.75c2.42,0,4.4-1.43,4.4-4.84V25.15h-2v.77Zm-2.42,6.49a2.87,2.87,0,0,1,0-5.72,2.65,2.65,0,0,1,2.53,2.86A2.65,2.65,0,0,1,85.73,32.41ZM112.57,20.2h-4.95V34h2.09V28.78h2.86a4.3,4.3,0,1,0,0-8.58Zm.11,6.6h-3V22.07h3a2.42,2.42,0,0,1,2.42,2.31,2.52,2.52,0,0,1-2.42,2.42Zm12.65-2a3.7,3.7,0,0,0-3.63,2.09l1.87.77a1.94,1.94,0,0,1,1.87-1,2.07,2.07,0,0,1,2.2,1.76v.11a4.36,4.36,0,0,0-2.09-.55c-2,0-4,1.1-4,3.08A3.22,3.22,0,0,0,125,34.17a3.1,3.1,0,0,0,2.64-1.32h.11V34h2V28.67a4.16,4.16,0,0,0-4.4-3.85Zm-.22,7.59c-.66,0-1.65-.33-1.65-1.21,0-1.1,1.21-1.43,2.2-1.43a4.25,4.25,0,0,1,1.87.44A2.56,2.56,0,0,1,125.11,32.41Zm11.55-7.26-2.31,5.94h-.11l-2.42-5.94h-2.2l3.63,8.36-2.09,4.62h2.09l5.61-13ZM118.18,34h2.09V20.2h-2.09Z"/><path class="cls-2" d="M15.41,9.13A2.15,2.15,0,0,0,15,10.67V35a2.18,2.18,0,0,0,.55,1.54l.11.11L29.27,23v-.22Z"/><path class="cls-3" d="M33.67,27.61,29.16,23.1v-.33l4.51-4.51.11.11,5.39,3.08c1.54.88,1.54,2.31,0,3.19Z"/><path class="cls-4" d="M33.78,27.5l-4.62-4.62L15.41,36.63c.55.55,1.32.55,2.31.11L33.78,27.5"/><path class="cls-5" d="M33.78,18.26,17.72,9.13a1.78,1.78,0,0,0-2.31.11L29.16,22.88l4.62-4.62Z"/></svg>