<svg id="圖層_1" data-name="圖層 1" xmlns="http://www.w3.org/2000/svg" viewBox="0 0 150 150"><defs><style>.cls-1{fill:#fff;}.cls-2{fill:#fb3;}</style></defs><title>icon</title><path class="cls-1" d="M41.1,51.64a1.81,1.81,0,0,1-.49-1.17,1.78,1.78,0,0,1,.49-1.16,1.89,1.89,0,0,1,2.43,0A1.77,1.77,0,0,1,44,50.47a1.61,1.61,0,0,1-.48,1.17,1.78,1.78,0,0,1-2.43,0Z"/><path class="cls-1" d="M49.26,51.64a1.81,1.81,0,0,1-.49-1.17,1.78,1.78,0,0,1,.49-1.16,1.89,1.89,0,0,1,2.43,0,1.77,1.77,0,0,1,.48,1.16,1.8,1.8,0,0,1-.48,1.17,1.82,1.82,0,0,1-1.17.48A2,2,0,0,1,49.26,51.64Z"/><path class="cls-1" d="M57.51,51.64A1.8,1.8,0,0,1,57,50.47a1.77,1.77,0,0,1,.48-1.16,1.89,1.89,0,0,1,2.43,0,1.78,1.78,0,0,1,.49,1.16,1.81,1.81,0,0,1-.49,1.17,1.77,1.77,0,0,1-1.16.48A1.7,1.7,0,0,1,57.51,51.64Z"/><path class="cls-2" d="M71.52,69.8a10.15,10.15,0,0,0-10,10.57A7.84,7.84,0,0,0,54.68,88a8,8,0,0,0,7.74,8.2h5.46a.91.91,0,1,0,0-1.82H62.42a6.15,6.15,0,0,1,0-12.29A1,1,0,0,0,63.31,81a8.38,8.38,0,0,1,8.21-9.39,8.16,8.16,0,0,1,7.4,4.53.88.88,0,0,0,1.21.38,5,5,0,0,1,4.81.19,5.41,5.41,0,0,1,2.52,4.92,1,1,0,0,0,.77.9,6,6,0,0,1,4.69,5.93c0,3.29-2.6,5.92-6.83,5.92H66.7a.91.91,0,1,0,0,1.82H86.09c5,0,8.65-3.45,8.65-7.74a7.85,7.85,0,0,0-5.55-7.56,7.21,7.21,0,0,0-3.31-5.74,6.81,6.81,0,0,0-5.81-.54A9.92,9.92,0,0,0,71.52,69.8Z"/><path class="cls-2" d="M66.68,96.94H62.42A8.72,8.72,0,0,1,54,88a8.58,8.58,0,0,1,6.81-8.25,11.09,11.09,0,0,1,3.08-7.41,10.68,10.68,0,0,1,16.54,1.41,7.56,7.56,0,0,1,5.87.78,7.8,7.8,0,0,1,3.61,5.82,8.62,8.62,0,0,1,5.61,8.11c0,4.83-4,8.47-9.38,8.47H66.68Zm2.84-1.82a1.63,1.63,0,0,1,0,.36H86.09c4.52,0,7.92-3,7.92-7a7.1,7.1,0,0,0-5-6.85l-.49-.14,0-.51a6.5,6.5,0,0,0-3-5.18,6.06,6.06,0,0,0-5.18-.48l-.56.2-.31-.5a9.22,9.22,0,0,0-7.93-4.48,9.06,9.06,0,0,0-6.62,2.83,9.55,9.55,0,0,0-2.68,7l0,.67-.67.09A7.1,7.1,0,0,0,55.41,88a7.26,7.26,0,0,0,7,7.47h2.64a1.62,1.62,0,0,1,0-.36H62.42a6.88,6.88,0,0,1,0-13.75.21.21,0,0,0,.11-.08c0-.05.07-.1.06-.13A9.18,9.18,0,0,1,64.79,74a8.8,8.8,0,0,1,6.73-3.08,8.93,8.93,0,0,1,8,4.89.17.17,0,0,0,.11.09.18.18,0,0,0,.13,0,5.77,5.77,0,0,1,5.51.21,6.15,6.15,0,0,1,2.87,5.55.2.2,0,0,0,.16.18,6.75,6.75,0,0,1,5.31,6.65c0,3.91-3.11,6.65-7.56,6.65Zm-2.83.36h1.19a.19.19,0,0,0,.13-.06.18.18,0,0,0,.06-.12.15.15,0,0,0-.06-.12.19.19,0,0,0-.12-.06H66.7a.19.19,0,0,0-.13.06.17.17,0,0,0-.07.12.22.22,0,0,0,.07.12A.19.19,0,0,0,66.69,95.48Zm1.21-1.82H86.09c3.59,0,6.1-2.14,6.1-5.19A5.32,5.32,0,0,0,88,83.24a1.58,1.58,0,0,1-1.29-1.6,4.64,4.64,0,0,0-2.17-4.3,4.34,4.34,0,0,0-4.11-.16,1.66,1.66,0,0,1-2.2-.74,7.46,7.46,0,0,0-6.73-4.09,7.37,7.37,0,0,0-5.63,2.59A7.69,7.69,0,0,0,64,81a1.66,1.66,0,0,1-1.61,1.86,5.42,5.42,0,0,0,0,10.84H67.9Z"/><path class="cls-1" d="M111.62,40.56H38.47a6.08,6.08,0,0,0-6.12,6v56.82a6,6,0,0,0,6,6h73.24a6,6,0,0,0,6-6V46.59A6,6,0,0,0,111.62,40.56Zm2.72,63a2.67,2.67,0,0,1-2.62,2.62H38.47a2.62,2.62,0,0,1-2.62-2.62V60.38h78.49Zm0-46.63H35.75V46.59A2.63,2.63,0,0,1,38.38,44h73.24a2.64,2.64,0,0,1,2.72,2.63Z"/></svg>