<svg id="圖層_1" data-name="圖層 1" xmlns="http://www.w3.org/2000/svg" viewBox="0 0 150 150"><defs><style>.cls-1{fill:#fb3;}.cls-2{fill:#fff;}</style></defs><title>icon</title><polygon class="cls-1" points="106.29 48.21 113.02 50.04 113.02 94.7 106.29 106.33 98.34 93.48 98.34 51.88 106.29 48.21"/><path class="cls-2" d="M107.57,108c3.87-5.23,8.39-12.63,8.39-16.33V55.58a9.73,9.73,0,1,0-19.46,0V91.65c0,4.75,7,14.43,8.39,16.33a1.68,1.68,0,0,0,2.68,0Zm-7.73-52.4a6.39,6.39,0,1,1,12.78,0V88.65l-1.16-.7a9.72,9.72,0,0,0-10.46-.2l-1.16.7Zm.31,37.64-.21-.67.66-.27a1.68,1.68,0,0,0,.62-.43C102.8,90,106.73,88,111.4,92a1.5,1.5,0,0,0,.47.25l.64.27-.21.67a45.66,45.66,0,0,1-5.43,10l-.64.95-.63-.95C104.58,101.67,101.17,96.47,100.15,93.22Z"/><path class="cls-2" d="M87.43,44H78.36V40.24a1.68,1.68,0,0,0-3.35,0V44h-7.4V40.24a1.67,1.67,0,0,0-3.34,0V44h-7.4V40.24a1.67,1.67,0,1,0-3.34,0V44H44.46a1.68,1.68,0,0,0-1.68,1.67v63.14a1.68,1.68,0,0,0,1.68,1.67h43a1.67,1.67,0,0,0,1.67-1.67V45.65A1.67,1.67,0,0,0,87.43,44Zm-1.67,63.13H46.13V47.32h7.4v5.55a1.67,1.67,0,1,0,3.34,0V47.32h7.4v5.55a1.67,1.67,0,0,0,3.34,0V47.32H75v5.55a1.68,1.68,0,0,0,3.35,0V47.32h7.4Z"/><path class="cls-2" d="M75.79,63.55H56.09a2,2,0,0,0,0,3.9h19.7a2,2,0,0,0,0-3.9Z"/><path class="cls-2" d="M75.79,76.17H56.09a2,2,0,0,0,0,3.9h19.7a2,2,0,0,0,0-3.9Z"/><path class="cls-2" d="M75.79,88.8H56.09a2,2,0,0,0,0,3.9h19.7a2,2,0,0,0,0-3.9Z"/></svg>