<svg id="圖層_1" data-name="圖層 1" xmlns="http://www.w3.org/2000/svg" viewBox="0 0 150 150"><defs><style>.cls-1{fill:#fff;}.cls-2{fill:#39b54a;}</style></defs><title>icon</title><path class="cls-1" d="M65.85,31.88c-17.27,0-29.43,14.9-28.79,30.34A22.5,22.5,0,0,0,17.5,84.15c0,13.53,10.42,23.52,22.22,23.52H55.4a2.62,2.62,0,1,0,0-5.23H39.72c-8.86,0-17-7.4-17-18.29,0-8.77,7.66-17,17-17a2.73,2.73,0,0,0,2.57-3C40.43,51,50.78,37.1,65.85,37.1A23.44,23.44,0,0,1,87.05,50a2.71,2.71,0,0,0,3.51,1.18,14.44,14.44,0,0,1,13.8.53c4.14,2.49,7.23,7.09,7.23,14.13a2.71,2.71,0,0,0,2.17,2.58c7.85,1.31,13.51,9.15,13.51,17,0,9.46-7.45,17-19.6,17H94.6a2.62,2.62,0,1,0,0,5.23h13.07c14.43,0,24.83-9.9,24.83-22.22,0-9.68-6.33-19.06-15.93-21.68-.62-7.57-4.33-13.39-9.51-16.5A19.61,19.61,0,0,0,90.4,45.72,28.49,28.49,0,0,0,65.85,31.88Z"/><path class="cls-2" d="M74.71,92a2.61,2.61,0,0,0-1.55.73L62.71,103.18a2.61,2.61,0,1,0,3.67,3.71l6-6v14.62a2.61,2.61,0,0,0,5.22,0V100.89l6,6a2.61,2.61,0,1,0,3.67-3.71L76.84,92.72A2.66,2.66,0,0,0,74.71,92Z"/></svg>