<?xml version="1.0" encoding="utf-8"?>
<!-- Generator: Adobe Illustrator 22.0.1, SVG Export Plug-In . SVG Version: 6.00 Build 0)  -->
<svg version="1.1" id="圖層_1" xmlns="http://www.w3.org/2000/svg" xmlns:xlink="http://www.w3.org/1999/xlink" x="0px" y="0px"
	 viewBox="0 0 50 50" style="enable-background:new 0 0 50 50;" xml:space="preserve">
<style type="text/css">
	.st0{fill:#F73706;}
	.st1{fill:#F73706;stroke:#020E36;stroke-width:5.000000e-02;stroke-miterlimit:10;}
	.st2{fill:#FFFFFF;}
	.st3{fill:#39B54A;}
	.st4{fill:#1A1D43;}
</style>
<g>
	<g>
		<path class="st2" d="M25,46.4c-0.8,0-1.5-0.7-1.5-1.5v-41c0-0.8,0.7-1.5,1.5-1.5s1.5,0.7,1.5,1.5v41C26.5,45.7,25.8,46.4,25,46.4z
			"/>
	</g>
	<g>
		<path class="st2" d="M25,47.6L9.4,31.5c-0.6-0.6-0.6-1.5,0-2.1c0.6-0.6,1.5-0.6,2.1,0L25,43.3l13.4-13.9c0.6-0.6,1.5-0.6,2.1,0
			c0.6,0.6,0.6,1.5,0,2.1L25,47.6z"/>
	</g>
</g>
</svg>
