<svg id="圖層_1" data-name="圖層 1" xmlns="http://www.w3.org/2000/svg" viewBox="0 0 150 150"><defs><style>.cls-1{fill:#fb3;}.cls-2{fill:#fff;}</style></defs><title>icon</title><path class="cls-1" d="M107.32,52.59a6.43,6.43,0,1,1-6.43-6.43A6.43,6.43,0,0,1,107.32,52.59Z"/><path class="cls-1" d="M50.67,55.22a3,3,0,0,1-3.17-3.15V39.81a3.17,3.17,0,0,1,6.34,0V52.07A3,3,0,0,1,50.67,55.22Z"/><polygon class="cls-1" points="59.3 96.77 59.3 103.92 67.75 107.82 67.75 94.17 59.3 96.77"/><rect class="cls-1" x="106.74" y="91.57" width="8.45" height="8.45"/><path class="cls-2" d="M68.24,92.58a1.37,1.37,0,0,0-1.3-.09l-6.37,3a4.92,4.92,0,0,0-4.93-4.75H53.76l-2.15-3.23a4.94,4.94,0,0,0-4.12-2.19H40.9a4,4,0,0,0-4,4v1.44a4.91,4.91,0,0,0-4.39,4.88v10.08a4.93,4.93,0,0,0,4.92,4.93H55.64a4.92,4.92,0,0,0,4.93-4.75l6.37,3,.58.13a1.34,1.34,0,0,0,1.34-1.34V93.7A1.35,1.35,0,0,0,68.24,92.58ZM40.9,87.92h6.59a2.22,2.22,0,0,1,1.88,1l1.16,1.75h-11V89.31A1.34,1.34,0,0,1,40.9,88Zm17,17.79A2.24,2.24,0,0,1,55.69,108H37.4a2.24,2.24,0,0,1-2.24-2.24V95.63a2.24,2.24,0,0,1,2.24-2.24H55.64a2.24,2.24,0,0,1,2.24,2.24Zm8.24-.18L60.57,103V98.41l5.56-2.56Z"/><path class="cls-2" d="M50.67,38.29a1.38,1.38,0,0,1,1.54,1.52V52.07a1.55,1.55,0,0,1-3.09,0V39.81a1.38,1.38,0,0,1,1.55-1.52m0-3.24a4.58,4.58,0,0,0-4.79,4.76V52.07a4.79,4.79,0,0,0,9.58,0V39.81a4.58,4.58,0,0,0-4.79-4.76Z"/><path class="cls-2" d="M58.81,47A1.62,1.62,0,0,1,62,47v5.12a11.4,11.4,0,0,1-9.81,11.26v5.24h3.68a1.62,1.62,0,0,1,0,3.24l-10.48-.12a1.62,1.62,0,0,1,0-3.23l3.57.11.11-5.24A11.4,11.4,0,0,1,39.3,52.07V47a1.62,1.62,0,0,1,3.23,0v5.12a8.14,8.14,0,1,0,16.28,0Z"/><path class="cls-2" d="M90,45.66a1.84,1.84,0,1,1-1.84,1.84A1.83,1.83,0,0,1,90,45.66Z"/><path class="cls-2" d="M113.07,41.06h-3.63l-.32-.68a3.79,3.79,0,0,0-3.38-2.12H95.57a3.75,3.75,0,0,0-3.38,2.12l-.32.68H88.2a4.66,4.66,0,0,0-4.64,4.64V60.44a4.65,4.65,0,0,0,4.64,4.63H113a4.64,4.64,0,0,0,4.63-4.63V45.7A4.59,4.59,0,0,0,113.07,41.06Zm2.12,19.41A2.16,2.16,0,0,1,113,62.63H88.2A2.16,2.16,0,0,1,86,60.47V45.74a2.16,2.16,0,0,1,2.16-2.16h4.38a1.32,1.32,0,0,0,1.12-.68l.68-1.37a1.29,1.29,0,0,1,1.15-.72H105.7a1.27,1.27,0,0,1,1.15.72l.69,1.37a1.22,1.22,0,0,0,1.11.68H113a2.16,2.16,0,0,1,2.15,2.16Z"/><path class="cls-2" d="M100.64,44.55a7.71,7.71,0,1,0,7.69,7.73A7.7,7.7,0,0,0,100.64,44.55Zm0,12.9a5.2,5.2,0,1,1,5.21-5.17A5.22,5.22,0,0,1,100.64,57.45Z"/><path class="cls-2" d="M111.28,91.14a.66.66,0,0,0,.64-.64V81.87a3.79,3.79,0,0,0-3.77-3.81H93.29a3.81,3.81,0,0,0-3.77,3.81v28a3.78,3.78,0,0,0,3.77,3.81h14.86a3.81,3.81,0,0,0,3.77-3.81v-9.1a.64.64,0,0,0-1.28,0v6.66H90.8V84.19h19.84V90.5A.66.66,0,0,0,111.28,91.14Zm-.64,17.55v1.12a2.5,2.5,0,0,1-2.49,2.53H93.29a2.51,2.51,0,0,1-2.49-2.53v-1.12ZM90.8,82.9v-1a2.5,2.5,0,0,1,2.49-2.52h14.86a2.49,2.49,0,0,1,2.49,2.52v1Z"/><path class="cls-2" d="M108.15,114.31H93.29a4.44,4.44,0,0,1-4.42-4.46v-28a4.44,4.44,0,0,1,4.42-4.46h14.86a4.44,4.44,0,0,1,4.42,4.46V90.5a1.29,1.29,0,1,1-2.58,0V84.84H91.45v21.92H110v-6a1.29,1.29,0,1,1,2.58,0v9.1A4.44,4.44,0,0,1,108.15,114.31Zm-17.81-3.42a3.13,3.13,0,0,0,3,2.12h14.86a3.11,3.11,0,0,0,2.95-2.12,3.15,3.15,0,0,1-2.95,2.1H93.29A3.15,3.15,0,0,1,90.34,110.89Zm1.11-1.55v.47a1.84,1.84,0,0,0,1.84,1.88h14.86a1.84,1.84,0,0,0,1.84-1.88v-.47Zm0-27.09H110v-.38A1.84,1.84,0,0,0,108.15,80H93.29a1.84,1.84,0,0,0-1.84,1.87Z"/><path class="cls-2" d="M117.58,99.23h-2V91.81a.66.66,0,0,0-.64-.64h-7.42v-2a.64.64,0,1,0-1.28,0v2h-2a.65.65,0,0,0,0,1.29h2v7.45a.66.66,0,0,0,.64.64h7.41v2a.65.65,0,1,0,1.29,0v-2h2a.66.66,0,0,0,.64-.64A.69.69,0,0,0,117.58,99.23Zm-3.26,0h-6.77V92.46h6.77Z"/><path class="cls-2" d="M115,103.82a1.32,1.32,0,0,1-1.3-1.3V101.2h-6.76a1.31,1.31,0,0,1-1.29-1.29v-6.8H104.3a1.3,1.3,0,0,1,0-2.59h1.32V89.2a1.29,1.29,0,0,1,2.58,0v1.32H115a1.31,1.31,0,0,1,1.29,1.29v6.77h1.32a1.34,1.34,0,0,1,1.29,1.33,1.31,1.31,0,0,1-1.29,1.29h-1.32v1.32A1.32,1.32,0,0,1,115,103.82Zm0-3.92,2.61,0Zm-6.77-1.28h5.47V93.11H108.2Z"/></svg>