<svg id="圖層_1" data-name="圖層 1" xmlns="http://www.w3.org/2000/svg" viewBox="0 0 150 150"><defs><style>.cls-1{fill:#f73706;}</style></defs><title>icon</title><path class="cls-1" d="M103.47,115.62c1.74,1.68,3.67,3.53,5.3,5.07.74.69,1.36,1.31,1.91,1.87.33.32.63.63.9.88h6.26V51.91a2.35,2.35,0,0,0-.69-1.65L91.85,25a2.34,2.34,0,0,0-1.64-.68H34.49a2.34,2.34,0,0,0-2.33,2.32v96.78h6.48l11.87-7.63,2.05-1.32,1.44,2,6.83,9.21,10.61-17.35,2-3.26,2.3,3L86,121.69l9.86-9.87,1.81-1.8,1.84,1.77Zm-4.39-10,0,0-1.45-1.41-9.08,9.09-2.12,2.11-1.8-2.38L73.06,97.8,62.51,115.06l-2,3.29-2.29-3.1L53.54,109l-12.72,8.28-4,2.62V29H90.74V51.73h22.45v67.55l-4.39-4.21C108.71,115,100.82,107.44,99.08,105.66Z"/></svg>