<svg id="圖層_1" data-name="圖層 1" xmlns="http://www.w3.org/2000/svg" viewBox="0 0 150 150"><defs><style>.cls-1{fill:#fff;}.cls-2{fill:#fb3;}</style></defs><title>icon</title><path class="cls-1" d="M123.07,50.5,107.3,53.36l-8.74-1.59v-10a1.46,1.46,0,0,0-1.46-1.46,1.36,1.36,0,0,0-.29,0L68,46.07,39.11,40.3a1.46,1.46,0,0,0-1.72,1.14,1.36,1.36,0,0,0,0,.29V85.44a30.59,30.59,0,0,0,60,8.52,17.47,17.47,0,0,0,27.46-14.35V51.93a1.46,1.46,0,0,0-1.46-1.46A1.09,1.09,0,0,0,123.07,50.5ZM68,113.13A27.72,27.72,0,0,1,40.27,85.44V43.51L67.67,49a1.37,1.37,0,0,0,.57,0l27.4-5.48V85.44A27.71,27.71,0,0,1,68,113.13Zm53.91-33.52A14.55,14.55,0,0,1,98.05,90.85a30.6,30.6,0,0,0,.51-5.41V72a3.48,3.48,0,0,0,1.45.35c2.46,0,4.38-2.56,4.38-5.83s-1.92-5.83-4.38-5.83a3.48,3.48,0,0,0-1.45.35V54.73L107,56.28a1.51,1.51,0,0,0,.52,0l14.31-2.6ZM98.56,66.5c0-1.78.86-2.91,1.45-2.91s1.46,1.13,1.46,2.91-.86,2.92-1.46,2.92S98.56,68.28,98.56,66.5Z"/><path class="cls-1" d="M114.59,72.33c2.45,0,4.37-2.56,4.37-5.83s-1.92-5.83-4.37-5.83-4.38,2.56-4.38,5.83S112.13,72.33,114.59,72.33Zm0-8.74c.59,0,1.45,1.13,1.45,2.91s-.86,2.92-1.45,2.92-1.46-1.14-1.46-2.92S114,63.59,114.59,63.59Z"/><path class="cls-1" d="M112.1,80.53a6.81,6.81,0,0,1-9.6,0,1.45,1.45,0,0,0-2.06,0,1.47,1.47,0,0,0,0,2,9.72,9.72,0,0,0,13.72,0,1.46,1.46,0,0,0-2.06-2.06Z"/><path class="cls-2" d="M65.53,68.44c0,3.22-3.92,5.83-8.74,5.83S48,71.66,48,68.44s3.92-5.83,8.75-5.83S65.53,65.22,65.53,68.44Z"/><path class="cls-2" d="M88.84,68.44c0,3.22-3.91,5.83-8.74,5.83s-8.74-2.61-8.74-5.83,3.91-5.83,8.74-5.83S88.84,65.22,88.84,68.44Z"/><path class="cls-2" d="M61,95a10.56,10.56,0,0,1,14.93,0,2.27,2.27,0,0,0,3.2-3.21,15.11,15.11,0,0,0-21.34,0A2.27,2.27,0,0,0,61,95Z"/></svg>