<svg id="圖層_1" data-name="圖層 1" xmlns="http://www.w3.org/2000/svg" viewBox="0 0 150 150"><defs><style>.cls-1{fill:#fff;}.cls-2{fill:#fb3;}</style></defs><title>icon</title><path class="cls-1" d="M67.58,41.4c-14,0-23.87,12.07-23.35,24.58A18.23,18.23,0,0,0,28.37,83.74c0,11,8.46,19.06,18,19.06H59.1a2.12,2.12,0,1,0,0-4.24H46.39c-7.18,0-13.78-6-13.78-14.82A14.14,14.14,0,0,1,46.39,70a2.21,2.21,0,0,0,2.08-2.41C47,56.87,55.36,45.63,67.58,45.63A19,19,0,0,1,84.77,56.09a2.21,2.21,0,0,0,2.85,1,11.7,11.7,0,0,1,11.19.43c3.36,2,5.86,5.74,5.86,11.44A2.2,2.2,0,0,0,106.43,71c6.37,1.06,11,7.41,11,13.79,0,7.66-6,13.76-15.9,13.76H90.9a2.12,2.12,0,1,0,0,4.24h10.59c11.71,0,20.14-8,20.14-18,0-7.84-5.14-15.44-12.92-17.56-.5-6.13-3.51-10.85-7.71-13.37a15.94,15.94,0,0,0-13.51-1.26A23.11,23.11,0,0,0,67.58,41.4Z"/><path class="cls-2" d="M76.83,86.82V85.51a1.12,1.12,0,1,0-2.23,0v1.31a5.67,5.67,0,0,1-11.33,0V74.65a5.67,5.67,0,0,1,11.33,0v2a1.12,1.12,0,0,0,2.23,0v-2a7.89,7.89,0,0,0-15.78,0V86.82a7.89,7.89,0,0,0,15.78,0Z"/><path class="cls-2" d="M68.94,95.42a8.61,8.61,0,0,1-8.61-8.6V74.65a8.61,8.61,0,0,1,17.22,0v2a1.84,1.84,0,0,1-3.67,0v-2a4.94,4.94,0,1,0-9.88,0V86.82a4.94,4.94,0,0,0,9.88,0V85.51a1.84,1.84,0,1,1,3.67,0v1.31A8.62,8.62,0,0,1,68.94,95.42Zm0-27.93a7.17,7.17,0,0,0-7.17,7.16V86.82a7.17,7.17,0,0,0,14.33,0V85.51a.38.38,0,0,0-.39-.39.39.39,0,0,0-.39.39v1.31a6.39,6.39,0,0,1-12.77,0V74.65a6.39,6.39,0,0,1,12.77,0v2a.4.4,0,0,0,.39.39.39.39,0,0,0,.39-.39v-2A7.17,7.17,0,0,0,68.94,67.49Z"/><path class="cls-2" d="M75.71,80a7.88,7.88,0,0,0-7.88,7.88v1.31a1.11,1.11,0,0,0,2.22,0V87.83a5.67,5.67,0,0,1,11.33,0V100a5.67,5.67,0,0,1-11.33,0V98a1.11,1.11,0,0,0-2.22,0v2a7.89,7.89,0,0,0,15.77,0V87.83A7.89,7.89,0,0,0,75.71,80Z"/><path class="cls-2" d="M75.71,108.6A8.62,8.62,0,0,1,67.1,100V98a1.84,1.84,0,0,1,3.67,0v2a4.95,4.95,0,0,0,9.89,0V87.83a4.95,4.95,0,0,0-9.89,0v1.31a1.84,1.84,0,1,1-3.67,0V87.83a8.61,8.61,0,0,1,17.22,0V100A8.61,8.61,0,0,1,75.71,108.6Zm-6.77-11a.39.39,0,0,0-.39.39v2a7.17,7.17,0,0,0,14.33,0V87.83a7.17,7.17,0,0,0-14.33,0v1.31a.38.38,0,0,0,.39.39.39.39,0,0,0,.39-.39V87.83a6.39,6.39,0,0,1,12.77,0V100a6.39,6.39,0,0,1-12.77,0V98A.4.4,0,0,0,68.94,97.64Z"/></svg>