<svg id="圖層_1" data-name="圖層 1" xmlns="http://www.w3.org/2000/svg" viewBox="0 0 150 150"><defs><style>.cls-1,.cls-2{fill:#f73706;stroke:red;stroke-miterlimit:10;}.cls-2{stroke-width:1.3px;}</style></defs><title>icon</title><path class="cls-1" d="M48.83,65H90.5a1.67,1.67,0,1,0,0-3.33H48.83a1.67,1.67,0,1,0,0,3.33Z"/><path class="cls-1" d="M48.83,51.68H65.5a1.67,1.67,0,0,0,0-3.34H48.83a1.67,1.67,0,1,0,0,3.34Z"/><path class="cls-1" d="M48.83,78.33H90.5a1.67,1.67,0,1,0,0-3.33H48.83a1.67,1.67,0,1,0,0,3.33Z"/><path class="cls-1" d="M77.17,88.33H48.83a1.67,1.67,0,1,0,0,3.33H77.17a1.67,1.67,0,0,0,0-3.33Z"/><path class="cls-1" d="M72.17,101.66H48.83a1.67,1.67,0,1,0,0,3.33H72.17a1.67,1.67,0,0,0,0-3.33Z"/><path class="cls-2" d="M108.84,82.26V49.33L84.52,25h-54V125h73.35a21.65,21.65,0,0,0,5-42.72ZM85.5,30.7l17.66,17.64H85.5Zm6.8,91H33.82V28.35H82.17V51.68h23.34V81.73c-.57,0-1.12-.07-1.67-.07a21.69,21.69,0,0,0-21.67,21.66,18.3,18.3,0,0,0,.1,2l0,.45c.06.63.16,1.26.28,1.88,0,.07,0,.15.05.22.12.56.27,1.11.43,1.66,0,.14.09.27.12.42.18.58.4,1.17.63,1.73,0,.1.1.22.14.32.21.5.45,1,.7,1.45.07.11.12.23.18.33.3.53.6,1,.94,1.55.08.12.15.23.23.33.3.44.62.87,1,1.29a2,2,0,0,0,.18.23c.38.47.8.9,1.22,1.33.1.1.21.2.31.32.4.4.84.78,1.27,1.15l.12.1c.46.38,1,.75,1.46,1.1l.37.25Zm11.54,0a18.33,18.33,0,1,1,0-36.65c.52,0,1,0,1.55.08s1,.12,1.52.2l.73.12a18.32,18.32,0,0,1-3.8,36.25Z"/><path class="cls-1" d="M112.09,95.08a1.66,1.66,0,0,0-2.35,0l-5.9,5.89-5.9-5.89a1.66,1.66,0,1,0-2.35,2.34l5.9,5.9-5.9,5.9a1.66,1.66,0,0,0,0,2.35,1.64,1.64,0,0,0,1.18.48,1.72,1.72,0,0,0,1.19-.48l5.88-5.9,5.9,5.9a1.65,1.65,0,0,0,1.19.48,1.68,1.68,0,0,0,1.18-.48,1.66,1.66,0,0,0,0-2.35l-5.92-5.9,5.9-5.9A1.65,1.65,0,0,0,112.09,95.08Z"/></svg>