<svg id="圖層_1" data-name="圖層 1" xmlns="http://www.w3.org/2000/svg" viewBox="0 0 150 150"><defs><style>.cls-1{fill:#fb3;}.cls-2{fill:#fff;}</style></defs><title>icon</title><circle class="cls-1" cx="84.28" cy="64.6" r="29.69" transform="translate(1.59 131.22) rotate(-76.33)"/><path class="cls-2" d="M51.67,110.82,63.8,98.69a1.69,1.69,0,0,0,0-2.43l-.34-.34L68,91.41a32,32,0,0,0,44.35-11.6,31.34,31.34,0,0,0,0-31.19,31.89,31.89,0,0,0-54.57-1.56,31.26,31.26,0,0,0-.17,34.13l-4.34,4.33-.34-.34a1.68,1.68,0,0,0-2.43,0L38.34,97.3a9.41,9.41,0,0,0,0,13.52A9.2,9.2,0,0,0,51.67,110.82Zm9-61.85a28.32,28.32,0,0,1,48.51,1.39,27.37,27.37,0,0,1,0,27.71,28.33,28.33,0,0,1-48.51,1.56A27.48,27.48,0,0,1,60.68,49Zm-1,35a26.91,26.91,0,0,0,5.55,5.37l-4,4-5.54-5.54Zm-19,15.77L51.5,88.82c8,8,8.32,8.31,8.66,8.66L49.25,108.39a6.12,6.12,0,0,1-8.66-8.66Z"/><path class="cls-2" d="M100.87,63.35a24.21,24.21,0,0,1-1.21,7.79,1.81,1.81,0,1,0,3.47,1,30.56,30.56,0,0,0,1.38-8.83,24.1,24.1,0,0,0-5.89-16.29A1.72,1.72,0,0,0,96,49.32C99.14,52.78,100.87,57.81,100.87,63.35Z"/><path class="cls-2" d="M74.72,57.46a1.76,1.76,0,0,0-2.26,1.21,23,23,0,0,0-1,6.76A16.72,16.72,0,0,0,75.58,77a1.78,1.78,0,0,0,2.6-2.42,14,14,0,0,1-3.29-9.36,22.13,22.13,0,0,1,.86-5.71A1.38,1.38,0,0,0,74.72,57.46Z"/><path class="cls-2" d="M66.4,59a1.79,1.79,0,0,0,2.08-1.21c1.9-8.15,8.31-13.69,15.94-13.69H86a1.74,1.74,0,0,0,.34-3.46c-9.7-1-18.53,5.54-21.13,16.28A1.54,1.54,0,0,0,66.4,59Z"/><path class="cls-2" d="M83.38,81h1.21c5.89,0,10.91-4.5,12.47-11.09a1.7,1.7,0,1,0-3.29-.86c-1.21,5.19-4.85,8.48-9.18,8.48h-.87a1.72,1.72,0,0,0-1.9,1.56A2,2,0,0,0,83.38,81Z"/><path class="cls-2" d="M84.24,88a17.84,17.84,0,0,0,13.69-6.76,1.72,1.72,0,0,0-2.6-2.25c-3.12,3.64-6.93,5.54-11.09,5.54-8,0-14.72-7.27-16.28-17.32a1.67,1.67,0,1,0-3.29.52C66.4,79.46,74.72,88,84.24,88Z"/><path class="cls-2" d="M76.27,51.74A1.72,1.72,0,1,0,78.87,54c1.22-1.38,3.12-3.11,5.72-3.11,4.33,0,8.49,5,9.35,11.43a1.6,1.6,0,0,0,1.91,1.39,1.73,1.73,0,0,0,1.39-1.91C96,53.47,90.48,47.41,84.42,47.41A11,11,0,0,0,76.27,51.74Z"/><path class="cls-2" d="M80.26,63.7a1.79,1.79,0,0,0,2.08-1.22,8.63,8.63,0,0,1,2.6-4.5,1.85,1.85,0,0,0,1.56-1.73,1.65,1.65,0,0,0-1.74-1.74c-2.42,0-4.85,3.64-5.71,7.11A1.59,1.59,0,0,0,80.26,63.7Z"/><path class="cls-2" d="M84.59,74.09c1.91,0,4-1.21,5.2-4.16a12.49,12.49,0,0,0,.86-4.68,1.73,1.73,0,0,0-3.46,0c0,1.91-.87,5.38-2.6,5.38-1,0-2.08-1.39-2.43-3.47a1.76,1.76,0,1,0-3.46.69C79.57,71.66,81.82,74.09,84.59,74.09Z"/></svg>