<svg id="圖層_1" data-name="圖層 1" xmlns="http://www.w3.org/2000/svg" viewBox="0 0 150 150"><defs><style>.cls-1{fill:#fb3;}.cls-2{fill:#fff;}</style></defs><title>icon</title><polygon class="cls-1" points="91.59 65.58 91.59 84.42 114.45 84.42 114.45 69.62 101.68 69.62 98.99 65.58 91.59 65.58"/><polygon class="cls-1" points="91.59 98.54 91.59 117.37 114.45 117.37 114.45 102.57 101.68 102.57 98.99 98.54 91.59 98.54"/><polygon class="cls-1" points="91.59 32.63 91.59 51.46 114.45 51.46 114.45 36.67 101.68 36.67 98.99 32.63 91.59 32.63"/><path class="cls-2" d="M33.15,99.73h34A4.85,4.85,0,0,0,72,94.94V86.2a5.1,5.1,0,0,0-1.37-3.41A4.86,4.86,0,0,0,72,79.37v-3h8.61v31.42a1.28,1.28,0,0,0,1.36,1.36H90v8.2a1.29,1.29,0,0,0,1.37,1.36h23.08a1.29,1.29,0,0,0,1.37-1.36V102.59a1.29,1.29,0,0,0-1.37-1.36H102.69l-2.6-3.69A1.38,1.38,0,0,0,99,96.86H91.35A1.29,1.29,0,0,0,90,98.22v8.2H83.29v-30H90v8.19a1.3,1.3,0,0,0,1.37,1.37h23.08a1.3,1.3,0,0,0,1.37-1.37V69.81a1.3,1.3,0,0,0-1.37-1.37H102.69l-2.6-3.69A1.38,1.38,0,0,0,99,64.07H91.35A1.3,1.3,0,0,0,90,65.44v8.19H83.29V42.08H90v9.7a1.29,1.29,0,0,0,1.37,1.36h23.08a1.29,1.29,0,0,0,1.37-1.36V37a1.29,1.29,0,0,0-1.37-1.36H102.69L100.09,32A1.38,1.38,0,0,0,99,31.29H91.35A1.29,1.29,0,0,0,90,32.65v6.7H81.92a1.28,1.28,0,0,0-1.36,1.36V73.63H72v-3a5.12,5.12,0,0,0-1.37-3.42A4.85,4.85,0,0,0,72,63.8V55.06a4.85,4.85,0,0,0-4.78-4.79h-34a4.85,4.85,0,0,0-4.78,4.79V63.8a5.1,5.1,0,0,0,1.37,3.41,4.86,4.86,0,0,0-1.37,3.42v8.74a5.12,5.12,0,0,0,1.37,3.42,4.85,4.85,0,0,0-1.37,3.41v8.74A4.85,4.85,0,0,0,33.15,99.73Zm59.56-.14h5.6l2.6,3.69a1.23,1.23,0,0,0,1.09.54h11.07V116H92.71Zm0-32.79h5.6l2.6,3.69A1.24,1.24,0,0,0,102,71h11.07V83.2H92.71Zm0-32.78h5.6l2.46,3.69a1.25,1.25,0,0,0,1.1.54h11.2V50.41H92.71ZM31.1,63.8V55.06a2.1,2.1,0,0,1,2-2.05h34a2.1,2.1,0,0,1,2,2.05V63.8a2.11,2.11,0,0,1-2,2h-34A2.11,2.11,0,0,1,31.1,63.8Zm0,15.57V70.63a2.11,2.11,0,0,1,2-2h34a2.11,2.11,0,0,1,2,2v8.74a2.11,2.11,0,0,1-2,2h-34A2.11,2.11,0,0,1,31.1,79.37Zm36.2,4.78a2.1,2.1,0,0,1,2,2v8.74a2.09,2.09,0,0,1-2,2H33.15a2.1,2.1,0,0,1-2-2V86.2a2.11,2.11,0,0,1,2-2Z"/><path class="cls-2" d="M37.52,95.08a1.29,1.29,0,0,0,1.37-1.36V87.43a1.37,1.37,0,0,0-2.73,0v6.29A1.36,1.36,0,0,0,37.52,95.08Z"/><path class="cls-2" d="M43,95.08a1.29,1.29,0,0,0,1.36-1.36V87.43a1.37,1.37,0,0,0-2.73,0v6.29A1.47,1.47,0,0,0,43,95.08Z"/><path class="cls-2" d="M55.15,91.53a1.35,1.35,0,1,0-1.92,0A1.33,1.33,0,0,0,55.15,91.53Z"/><path class="cls-2" d="M59.52,91.53a1.33,1.33,0,0,0,0-1.91,1.35,1.35,0,1,0,0,1.91Z"/><path class="cls-2" d="M63.89,91.53a1.35,1.35,0,1,0-1.91,0A1.31,1.31,0,0,0,63.89,91.53Z"/><path class="cls-2" d="M37.52,70.49a1.29,1.29,0,0,0-1.36,1.37v6.28a1.37,1.37,0,1,0,2.73,0V71.86A1.37,1.37,0,0,0,37.52,70.49Z"/><path class="cls-2" d="M43,70.49a1.3,1.3,0,0,0-1.37,1.37v6.28a1.37,1.37,0,1,0,2.73,0V71.86A1.29,1.29,0,0,0,43,70.49Z"/><path class="cls-2" d="M53.23,74a1.36,1.36,0,1,0,1.92,0A1.34,1.34,0,0,0,53.23,74Z"/><path class="cls-2" d="M57.61,74A1.35,1.35,0,1,0,59.52,76,1.35,1.35,0,0,0,57.61,74Z"/><path class="cls-2" d="M62,74a1.35,1.35,0,1,0,1.91,0A1.32,1.32,0,0,0,62,74Z"/><path class="cls-2" d="M37.52,54.92a1.29,1.29,0,0,0-1.36,1.36v6.29a1.37,1.37,0,0,0,2.73,0V56.28A1.46,1.46,0,0,0,37.52,54.92Z"/><path class="cls-2" d="M43,54.92a1.29,1.29,0,0,0-1.37,1.36v6.29a1.37,1.37,0,0,0,2.73,0V56.28A1.36,1.36,0,0,0,43,54.92Z"/><path class="cls-2" d="M53.23,58.47a1.35,1.35,0,1,0,1.92,0A1.33,1.33,0,0,0,53.23,58.47Z"/><path class="cls-2" d="M57.61,58.47a1.35,1.35,0,0,0,1.91,1.91,1.33,1.33,0,0,0,0-1.91A1.31,1.31,0,0,0,57.61,58.47Z"/><path class="cls-2" d="M62,58.47a1.35,1.35,0,1,0,1.91,0A1.31,1.31,0,0,0,62,58.47Z"/></svg>