<svg id="圖層_1" data-name="圖層 1" xmlns="http://www.w3.org/2000/svg" viewBox="0 0 150 150"><defs><style>.cls-1{fill:#fb3;}.cls-2{fill:#fff;}</style></defs><title>icon</title><path class="cls-1" d="M67.87,36.38h0a.94.94,0,0,1,.94.93v15.4a.94.94,0,0,1-.94.93h0a.93.93,0,0,1-.93-.93V37.31A.93.93,0,0,1,67.87,36.38Z"/><path class="cls-1" d="M67.87,54.37a1.67,1.67,0,0,1-1.66-1.66V37.31a1.67,1.67,0,0,1,3.33,0v15.4A1.67,1.67,0,0,1,67.87,54.37Zm0-17.26a.2.2,0,0,0-.2.2v15.4c0,.22.41.22.41,0V37.31A.2.2,0,0,0,67.87,37.11Z"/><path class="cls-1" d="M39.4,64.55H54.8a.94.94,0,0,1,.94.94h0a.94.94,0,0,1-.94.93H39.4a.94.94,0,0,1-.94-.93h0A.94.94,0,0,1,39.4,64.55Z"/><path class="cls-1" d="M54.8,67.15H39.4a1.66,1.66,0,1,1,0-3.32H54.8a1.66,1.66,0,1,1,0,3.32ZM39.4,65.28a.21.21,0,0,0-.21.21.2.2,0,0,0,.21.2H54.8a.21.21,0,1,0,0-.41Z"/><path class="cls-1" d="M50.48,48.22h0a.92.92,0,0,1,1.32,0l5,4.94a.94.94,0,0,1,0,1.32h0a.92.92,0,0,1-1.32,0l-5-4.94A.92.92,0,0,1,50.48,48.22Z"/><path class="cls-1" d="M56.09,55.48A1.68,1.68,0,0,1,54.91,55l-4.95-5a1.66,1.66,0,0,1,0-2.35h0a1.66,1.66,0,0,1,2.35,0l4.95,4.95a1.65,1.65,0,0,1,0,2.35A1.66,1.66,0,0,1,56.09,55.48ZM51,48.73A.21.21,0,0,0,51,49L55.94,54a.21.21,0,0,0,.29,0,.21.21,0,0,0,.06-.15.2.2,0,0,0-.06-.14l-4.95-5a.21.21,0,0,0-.29,0Z"/><path class="cls-1" d="M78.6,53.23l5-4.95a.94.94,0,0,1,1.32,0h0a.94.94,0,0,1,0,1.32l-5,4.95a.94.94,0,0,1-1.32,0h0A.92.92,0,0,1,78.6,53.23Z"/><path class="cls-1" d="M79.26,55.55a1.66,1.66,0,0,1-1.18-2.83l5-4.95a1.66,1.66,0,0,1,2.35,0,1.62,1.62,0,0,1,.49,1.17,1.64,1.64,0,0,1-.49,1.18l-4.95,4.94A1.63,1.63,0,0,1,79.26,55.55Zm-.15-1.8a.19.19,0,0,0,0,.28.21.21,0,0,0,.29,0l4.95-4.94a.21.21,0,0,0,.06-.15.19.19,0,0,0-.06-.14.21.21,0,0,0-.29,0Z"/><path class="cls-1" d="M50.3,81.49l5-4.94a.92.92,0,0,1,1.32,0h0a.93.93,0,0,1,0,1.31l-5,5a.92.92,0,0,1-1.32,0h0A.92.92,0,0,1,50.3,81.49Z"/><path class="cls-1" d="M51,83.81A1.66,1.66,0,0,1,49.78,81l4.95-5a1.66,1.66,0,0,1,2.35,0,1.65,1.65,0,0,1,0,2.35l-4.95,5A1.66,1.66,0,0,1,51,83.81ZM50.81,82a.21.21,0,1,0,.29.29l4.95-5a.21.21,0,0,0,.06-.15.21.21,0,0,0-.35-.14Z"/><path class="cls-2" d="M103.72,74,66.91,63.6a.91.91,0,0,0-1.13,1.12l10.1,37.09a1.85,1.85,0,0,0,3.43.37l5.56-10.57,20.63,20.62a1.85,1.85,0,0,0,2.61,0l6.07-6.06a1.86,1.86,0,0,0,0-2.62L93.45,82.93l10.62-5.5A1.85,1.85,0,0,0,103.72,74ZM112.78,105l-6,6L85.28,89.41a.92.92,0,0,0-1.46.22l-6.14,11.68L68,65.86l35.19,9.89-11.76,6a.91.91,0,0,0-.23,1.46Z"/><path class="cls-2" d="M106.81,113.49a2.59,2.59,0,0,1-1.83-.75L85.05,92.82l-5.1,9.7a2.58,2.58,0,0,1-4.77-.52L65.08,64.91a1.64,1.64,0,0,1,2-2l36.81,10.41a2.58,2.58,0,0,1,.49,4.77l-9.73,5,20,19.92a2.56,2.56,0,0,1,0,3.64l-6.06,6.06A2.57,2.57,0,0,1,106.81,113.49ZM84.68,90.4,106,111.71a1.12,1.12,0,0,0,1.59,0l6.06-6.06a1.07,1.07,0,0,0,.33-.79,1.11,1.11,0,0,0-.33-.79L92.23,82.75l11.5-6a1,1,0,0,0,.59-.81L91.73,82.45a.17.17,0,0,0-.1.14.19.19,0,0,0,.05.16L113.81,105l-7,7-22-22a.18.18,0,0,0-.16-.06.21.21,0,0,0-.14.1l-6.54,12.45a1.07,1.07,0,0,0,.74-.58Zm0-2a1.59,1.59,0,0,1,1.15.49l21,21,4.94-4.94L90.65,83.78a1.65,1.65,0,0,1,.41-2.63L101.18,76,69,66.91l8.88,32.43,5.28-10a1.65,1.65,0,0,1,1.21-.87Zm-18-24.12a.18.18,0,0,0-.13.06.17.17,0,0,0,0,.18l10.1,37.09a1.09,1.09,0,0,0,.62.73L66.92,64.81l37.3,10.48a1,1,0,0,0-.7-.57L66.72,64.3Z"/></svg>