<svg id="圖層_1" data-name="圖層 1" xmlns="http://www.w3.org/2000/svg" viewBox="0 0 150 150"><defs><style>.cls-1{fill:#fff;}.cls-2{fill:#39b54a;}</style></defs><title>icon</title><path class="cls-1" d="M107.23,125H30.14A2.14,2.14,0,0,1,28,122.86V27.14A2.14,2.14,0,0,1,30.14,25H84.45a2,2,0,0,1,1.34.49l22.84,21.94a2.07,2.07,0,0,1,.74,1.59v28.7a2.2,2.2,0,0,1-1.78,2.22,2.08,2.08,0,0,1-2.39-2.06V50a0,0,0,0,0,0,0L83.06,29.18H32.23a.05.05,0,0,0-.06.06v91.54a.05.05,0,0,0,.06.06h72.91a.05.05,0,0,0,.06-.06V113c0-.74.54-1,1.23-.8,1.59.59,2.94-.74,2.94.71v10A2.14,2.14,0,0,1,107.23,125Z"/><path class="cls-1" d="M107.28,51.11H84.46A2.14,2.14,0,0,1,82.32,49V27.25A2.2,2.2,0,0,1,84.1,25a2.09,2.09,0,0,1,2.39,2.06v19.8a.05.05,0,0,0,.06.06h20.58a2.2,2.2,0,0,1,2.22,1.78A2.09,2.09,0,0,1,107.28,51.11Z"/><path class="cls-1" d="M91.85,76.94H47.2A2.21,2.21,0,0,1,45,75.16,2.09,2.09,0,0,1,47,72.77H91.7a2.19,2.19,0,0,1,2.21,1.78A2.08,2.08,0,0,1,91.85,76.94Z"/><path class="cls-1" d="M90.81,61.69H47.2A2.21,2.21,0,0,1,45,59.91,2.09,2.09,0,0,1,47,57.52H90.65a2.2,2.2,0,0,1,2.22,1.78A2.08,2.08,0,0,1,90.81,61.69Z"/><path class="cls-1" d="M80.24,92.19h-33A2.2,2.2,0,0,1,45,90.41,2.09,2.09,0,0,1,47,88h33A2.2,2.2,0,0,1,82.3,89.8,2.08,2.08,0,0,1,80.24,92.19Z"/><path class="cls-1" d="M80.24,107.44h-33A2.2,2.2,0,0,1,45,105.66,2.09,2.09,0,0,1,47,103.27h33a2.2,2.2,0,0,1,2.22,1.78A2.08,2.08,0,0,1,80.24,107.44Z"/><path class="cls-2" d="M105.15,104a2.06,2.06,0,0,1-1.52-.66c-2.36-2.53-5.29-5.52-6.1-6.13a2.09,2.09,0,0,1-.85-3.1,2,2,0,0,1,2.07-.85c.66.11,1.37.3,6.58,5.81a.07.07,0,0,0,.09,0L117.16,90a2.08,2.08,0,1,1,2.56,3.28l-13.28,10.36A2.14,2.14,0,0,1,105.15,104Z"/><path class="cls-2" d="M108.42,115.93A19.16,19.16,0,1,1,128,96.77,19.4,19.4,0,0,1,108.42,115.93Zm0-34.16a15,15,0,1,0,15.41,15A15.23,15.23,0,0,0,108.42,81.77Z"/></svg>