<svg id="圖層_1" data-name="圖層 1" xmlns="http://www.w3.org/2000/svg" viewBox="0 0 150 45"><defs><style>.cls-1{fill:#fff;}</style></defs><title>icon</title><path class="cls-1" d="M34.06,22.9a6.38,6.38,0,0,1,3-5.35A6.56,6.56,0,0,0,32,14.77c-2.17-.23-4.27,1.29-5.37,1.29s-2.82-1.27-4.65-1.23a6.84,6.84,0,0,0-5.77,3.52c-2.5,4.31-.64,10.66,1.75,14.15,1.2,1.71,2.6,3.62,4.43,3.55s2.45-1.14,4.61-1.14,2.77,1.14,4.63,1.1,3.13-1.72,4.28-3.45a13.7,13.7,0,0,0,2-4,6.21,6.21,0,0,1-3.76-5.68ZM30.54,12.47A6.25,6.25,0,0,0,32,8a6.41,6.41,0,0,0-4.13,2.14,6,6,0,0,0-1.48,4.34,5.31,5.31,0,0,0,4.18-2Z"/><path class="cls-1" d="M60,34.53h-2.5l-1.37-4.3H51.34L50,34.53H47.6l4.72-14.65h2.91L60,34.53Zm-4.28-6.11L54.45,24.6c-.13-.39-.38-1.31-.74-2.76h0c-.15.62-.38,1.54-.7,2.76l-1.22,3.82Zm16.39.7a6,6,0,0,1-1.47,4.26,4.27,4.27,0,0,1-3.25,1.39,3.26,3.26,0,0,1-3-1.5v5.54H62V27.44c0-1.13,0-2.28-.08-3.47H64l.13,1.67h0a4.18,4.18,0,0,1,6.69-.41,5.84,5.84,0,0,1,1.25,3.89Zm-2.39.09a4.41,4.41,0,0,0-.7-2.55,2.49,2.49,0,0,0-3.62-.46,2.61,2.61,0,0,0-.92,1.51,2.84,2.84,0,0,0-.11.71v1.76a2.79,2.79,0,0,0,.71,2,2.33,2.33,0,0,0,1.83.79,2.42,2.42,0,0,0,2.07-1A4.51,4.51,0,0,0,69.69,29.21Zm14.54-.09a6,6,0,0,1-1.47,4.26,4.27,4.27,0,0,1-3.25,1.39,3.26,3.26,0,0,1-3-1.5v5.54H74.14V27.44c0-1.13,0-2.28-.09-3.47h2.07l.13,1.67h0A4.18,4.18,0,0,1,83,25.23a5.84,5.84,0,0,1,1.25,3.89Zm-2.4.09a4.41,4.41,0,0,0-.69-2.55,2.49,2.49,0,0,0-3.62-.46,2.61,2.61,0,0,0-.92,1.51,3.16,3.16,0,0,0-.11.71v1.76a2.83,2.83,0,0,0,.7,2,2.35,2.35,0,0,0,1.84.79,2.39,2.39,0,0,0,2.06-1A4.44,4.44,0,0,0,81.83,29.21Zm16,1.21a3.92,3.92,0,0,1-1.3,3,5.8,5.8,0,0,1-4,1.28,7.08,7.08,0,0,1-3.8-.91l.55-2a6.53,6.53,0,0,0,3.39.91,3.24,3.24,0,0,0,2.06-.59,2,2,0,0,0,.74-1.6,2,2,0,0,0-.61-1.5,5.51,5.51,0,0,0-2-1.13C90.27,27,89,25.62,89,23.78a3.72,3.72,0,0,1,1.36-3,5.38,5.38,0,0,1,3.6-1.15,7.21,7.21,0,0,1,3.33.69l-.59,1.92a5.82,5.82,0,0,0-2.82-.68,2.87,2.87,0,0,0-1.94.61,1.74,1.74,0,0,0-.59,1.33A1.78,1.78,0,0,0,92,25a7.43,7.43,0,0,0,2.12,1.13,7.26,7.26,0,0,1,2.79,1.78,3.75,3.75,0,0,1,.89,2.54Zm7.78-4.69H103v5.13c0,1.3.46,2,1.37,2a3.93,3.93,0,0,0,1-.11l.06,1.79a5.36,5.36,0,0,1-1.82.26,2.84,2.84,0,0,1-2.18-.85,4.19,4.19,0,0,1-.78-2.85V25.73H99.16V24h1.54V22l2.3-.69V24h2.59v1.76Zm11.65,3.43a5.77,5.77,0,0,1-1.39,4A4.94,4.94,0,0,1,112,34.77a4.73,4.73,0,0,1-3.71-1.54,5.63,5.63,0,0,1-1.38-3.89,5.73,5.73,0,0,1,1.43-4,4.94,4.94,0,0,1,3.83-1.56,4.82,4.82,0,0,1,3.74,1.54,5.54,5.54,0,0,1,1.35,3.86Zm-2.43.06a4.7,4.7,0,0,0-.63-2.49,2.32,2.32,0,0,0-2.11-1.26,2.35,2.35,0,0,0-2.15,1.26,4.77,4.77,0,0,0-.63,2.53,4.7,4.7,0,0,0,.63,2.49,2.4,2.4,0,0,0,4.24,0,4.74,4.74,0,0,0,.65-2.51ZM124.87,26a4.52,4.52,0,0,0-.74-.06,2.23,2.23,0,0,0-1.91.93,3.54,3.54,0,0,0-.59,2.09v5.54h-2.34V27.3c0-1.11,0-2.22-.07-3.33h2l.09,2h.06a3.62,3.62,0,0,1,1.18-1.67,2.8,2.8,0,0,1,1.69-.57,3.42,3.42,0,0,1,.59.05V26Zm10.5,2.72a4.84,4.84,0,0,1-.09,1.07h-7a3.09,3.09,0,0,0,1,2.39,3.52,3.52,0,0,0,2.31.74,7.9,7.9,0,0,0,2.85-.5l.36,1.62a8.74,8.74,0,0,1-3.54.66,5.11,5.11,0,0,1-3.86-1.45A5.34,5.34,0,0,1,126,29.4a6,6,0,0,1,1.31-4A4.48,4.48,0,0,1,131,23.74a3.94,3.94,0,0,1,3.46,1.69,5.68,5.68,0,0,1,.93,3.32Zm-2.24-.61a3.22,3.22,0,0,0-.45-1.8,2.05,2.05,0,0,0-1.87-1,2.22,2.22,0,0,0-1.87,1,3.54,3.54,0,0,0-.7,1.82Z"/><path class="cls-1" d="M50.66,16A13.67,13.67,0,0,1,49,15.89V8.81a13.33,13.33,0,0,1,2-.15c2.69,0,3.93,1.33,3.93,3.48C54.89,14.63,53.43,16,50.66,16Zm.4-6.41a4.89,4.89,0,0,0-.93.07V15a6.59,6.59,0,0,0,.78,0,2.54,2.54,0,0,0,2.76-2.88A2.34,2.34,0,0,0,51.06,9.57ZM58.76,16a2.47,2.47,0,0,1-2.5-2.67,2.52,2.52,0,0,1,2.58-2.74,2.45,2.45,0,0,1,2.5,2.66A2.54,2.54,0,0,1,58.76,16Zm0-4.57c-.83,0-1.37.78-1.37,1.87s.55,1.85,1.36,1.85,1.36-.84,1.36-1.87-.54-1.85-1.35-1.85ZM70,10.72l-1.62,5.19H67.31l-.67-2.25A15.86,15.86,0,0,1,66.22,12h0a11.79,11.79,0,0,1-.42,1.68l-.71,2.25H64l-1.53-5.19h1.19l.58,2.47c.14.59.26,1.14.36,1.67h0a14.74,14.74,0,0,1,.43-1.66l.73-2.47h.94l.71,2.42q.25.88.42,1.71h0a14.07,14.07,0,0,1,.35-1.71l.63-2.42Zm6,5.19H74.82v-3c0-.91-.36-1.37-1-1.37a1.19,1.19,0,0,0-1.15,1.27v3.08H71.46v-3.7c0-.46,0-1,0-1.49h1l.06.8h0a1.87,1.87,0,0,1,1.65-.9c1.09,0,1.8.83,1.8,2.19v3.1Zm3.18,0H78V8.34h1.15Zm4.21.12a2.47,2.47,0,0,1-2.5-2.67,2.52,2.52,0,0,1,2.58-2.74,2.45,2.45,0,0,1,2.5,2.66A2.54,2.54,0,0,1,83.36,16Zm0-4.57c-.83,0-1.37.78-1.37,1.87s.55,1.85,1.36,1.85,1.36-.84,1.36-1.87-.54-1.85-1.35-1.85Zm7.09,4.45-.08-.59h0a1.77,1.77,0,0,1-1.52.71,1.51,1.51,0,0,1-1.59-1.53c0-1.28,1.11-1.94,3-1.94v-.09c0-.69-.36-1-1.08-1a2.45,2.45,0,0,0-1.35.38l-.24-.75a3.33,3.33,0,0,1,1.79-.45c1.35,0,2,.71,2,2.14v1.92a8.21,8.21,0,0,0,.07,1.24Zm-.16-2.58c-1.28,0-1.92.31-1.92,1.05a.74.74,0,0,0,.79.81,1.1,1.1,0,0,0,1.13-1.06Zm6.73,2.58,0-.83h0a1.73,1.73,0,0,1-1.66,1c-1.25,0-2.18-1.1-2.18-2.65s1-2.76,2.27-2.76a1.57,1.57,0,0,1,1.47.7h0v-3H98v6.18c0,.5,0,1,0,1.39Zm-.17-3.05a1.26,1.26,0,0,0-1.22-1.35c-.85,0-1.37.76-1.37,1.83s.54,1.76,1.35,1.76a1.29,1.29,0,0,0,1.24-1.37v-.87ZM105.37,16a2.47,2.47,0,0,1-2.5-2.67,2.52,2.52,0,0,1,2.58-2.74,2.45,2.45,0,0,1,2.5,2.66A2.54,2.54,0,0,1,105.37,16Zm0-4.57c-.83,0-1.37.78-1.37,1.87s.55,1.85,1.36,1.85,1.35-.84,1.35-1.87-.53-1.85-1.34-1.85Zm8.75,4.45H113v-3c0-.91-.35-1.37-1-1.37a1.19,1.19,0,0,0-1.15,1.27v3.08h-1.15v-3.7c0-.46,0-1-.05-1.49h1l0,.8h0a1.88,1.88,0,0,1,1.65-.9c1.09,0,1.81.83,1.81,2.19Zm7.76-4.32h-1.27v2.52c0,.64.22,1,.67,1a2.44,2.44,0,0,0,.51-.05l0,.87A2.43,2.43,0,0,1,121,16c-.91,0-1.45-.5-1.45-1.81V11.59h-.76v-.87h.76v-1l1.13-.34v1.29h1.27v.87ZM128,15.91h-1.16V13c0-.93-.35-1.4-1-1.4a1.13,1.13,0,0,0-1.16,1.23v3.12h-1.15V8.34h1.15v3.12h0a1.75,1.75,0,0,1,1.57-.84c1.09,0,1.77.85,1.77,2.21v3.08Zm6.25-2.31h-3.46a1.48,1.48,0,0,0,1.64,1.53,3.92,3.92,0,0,0,1.4-.24l.18.8a4.44,4.44,0,0,1-1.75.32,2.41,2.41,0,0,1-2.58-2.62,2.53,2.53,0,0,1,2.45-2.78,2.18,2.18,0,0,1,2.16,2.46,1.9,1.9,0,0,1,0,.53Zm-1.05-.83c0-.8-.41-1.36-1.15-1.36a1.37,1.37,0,0,0-1.26,1.36Z"/></svg>