<?xml version="1.0" encoding="utf-8"?>
<!-- Generator: Adobe Illustrator 22.0.1, SVG Export Plug-In . SVG Version: 6.00 Build 0)  -->
<svg version="1.1" id="圖層_1" xmlns="http://www.w3.org/2000/svg" xmlns:xlink="http://www.w3.org/1999/xlink" x="0px" y="0px"
	 viewBox="0 0 470.3 71.1" style="enable-background:new 0 0 470.3 71.1;" xml:space="preserve">
<style type="text/css">
	.st0{fill:#1A1919;}
	.st1{fill:#F4B827;}
	.st2{fill:#CBCCCB;}
	.st3{fill:#03335F;}
	.st4{fill:#C21E4B;}
</style>
<g>
	<g id="logo_2_">
		<path class="st0" d="M37.8,26.7c-4.9,0-8.8,4-8.8,8.8c0,4.9,4,8.8,8.8,8.8c4.9,0,8.8-4,8.8-8.8C46.6,30.6,42.7,26.7,37.8,26.7
			 M37.8,45.8c-5.7,0-10.3-4.6-10.3-10.3s4.6-10.3,10.3-10.3s10.3,4.6,10.3,10.3S43.5,45.8,37.8,45.8"/>
		<path class="st0" d="M44.7,35.5c0,3.8-3.1,6.9-6.9,6.9c-3.8,0-6.9-3.1-6.9-6.9c0-3.8,3.1-6.9,6.9-6.9S44.7,31.7,44.7,35.5
			 M17.4,0.1h43.2c5.1-0.1,8.8,3.5,8.7,8.5H41.7H27.1H8.5C8.7,3.7,12.2,0.3,17.4,0.1"/>
		<path class="st1" d="M58.1,70.8H14.6c-5.1,0.1-8.8-3.5-8.7-8.6l25,0.1h15h20.8C66.5,67.4,63.3,70.7,58.1,70.8"/>
		<path class="st2" d="M67,13.8v8.5H33.2l4.4-8.6L67,13.8z"/>
		<path class="st2" d="M18.7,25c1.2-2.6,7.1-2.7,7.1-2.7h7.5l4.5-8.6c-5.6,0-11.2,2.1-15.4,6.4c-4.3,4.3-6.4,9.8-6.4,15.4 M8,57.4
			v-8.7l34.4-0.1l-4.5,8.7L8,57.4z"/>
		<path class="st2" d="M56.9,46c-1.2,2.6-6.5,2.7-6.5,2.7h-8.2l-4.5,8.6c5.6,0,11.2-2.1,15.4-6.4c4.3-4.3,6.4-9.8,6.4-15.4"/>
		<path class="st2" d="M56.7,57.2h3.7V22h-3.7V57.2z M15.1,48.9h3.8V18.4h-3.8C15.1,18.4,15.1,48.9,15.1,48.9z"/>
		<path class="st0" d="M53.5,27.2c0,1.1-0.9,2-2,2s-2-0.9-2-2s0.9-2,2-2.1C52.6,25.2,53.5,26.1,53.5,27.2L53.5,27.2"/>
		<path class="st2" d="M15.1,16.2h6.1v-2.4h-6.1C15.1,13.8,15.1,16.2,15.1,16.2z"/>
		<path class="st3" d="M75.2,21.9c0.1-4.8-3.5-8.2-8.6-8.1v16.9v13.8v17.9c5.1-0.1,8.4-3,8.5-7.8L75.2,21.9z"/>
		<path class="st4" d="M0,17v32.3c-0.1,4.8,3.5,8.3,8.5,8.1V39.8V26.2V8.7C3.5,8.8,0.1,12.2,0,17"/>
	</g>
</g>
<g>
	<g>
		<g>
			<path class="st0" d="M96.9,17.3h8.2c6.9,0,9.6,3.2,9.6,9.1v1.5c0,5.7-2,7.3-3.7,8.1c1.8,0.7,4.5,2.2,4.5,8v3
				c0,6.8-2.8,10.3-9.8,10.3h-8.8V17.3z M104.4,33.6c3.5,0,4.5-1.1,4.5-5V27c0-3.3-1.2-4.6-4.1-4.6h-1.9v11.2H104.4z M102.9,52.4
				h2.1c3.6,0,4.5-1.6,4.5-5.5v-2.7c0-3.9-1-5.6-4.9-5.6h-1.6V52.4z"/>
			<path class="st0" d="M119.7,17.3h6.2v34.6h10.1l-0.5,5.5h-15.7V17.3z"/>
			<path class="st0" d="M157.2,28v18.7c0,7.7-3.3,11.3-10,11.3c-6.5,0-9.4-3.7-9.4-11.2V27.9c0-7.7,3.9-11.2,9.8-11.2
				C153.6,16.7,157.2,20.3,157.2,28z M144,27.4v20.2c0,3.3,1.2,4.9,3.4,4.9c2.4,0,3.5-1.5,3.5-5V27.3c0-3.2-1-4.9-3.5-4.9
				C145.2,22.4,144,24,144,27.4z"/>
			<path class="st0" d="M179.1,45.4V47c0,4.6-0.8,11-9.2,11c-7.4,0-9-4.6-9-10.8V27c0-6.2,2.8-10.3,9.1-10.3c7.5,0,9,5,9,10.5v1.8
				h-6.2v-2.5c0-2.7-0.6-4.2-2.8-4.2c-2.1,0-2.8,1.5-2.8,4.2v21.2c0,2.6,0.5,4.6,2.9,4.6c2.2,0,2.8-1.8,2.8-4.7v-2.2H179.1z"/>
			<path class="st0" d="M182.7,17.3h6.1v18.1h0.1c1.5-4,5-12.6,7.2-18.1h6.9l-7.3,15.6l7.7,24.5h-6.7l-5.2-18l-2.6,5.4v12.6h-6.1
				V17.3z"/>
			<path class="st0" d="M222.5,45.4V47c0,4.6-0.8,11-9.2,11c-7.4,0-9-4.6-9-10.8V27c0-6.2,2.8-10.3,9.1-10.3c7.5,0,9,5,9,10.5v1.8
				h-6.2v-2.5c0-2.7-0.6-4.2-2.8-4.2c-2.1,0-2.8,1.5-2.8,4.2v21.2c0,2.6,0.5,4.6,2.9,4.6c2.2,0,2.8-1.8,2.8-4.7v-2.2H222.5z"/>
			<path class="st0" d="M226.1,17.3h6.2v15.8h6.7V17.3h6.2v40.1H239V38.8h-6.7v18.6h-6.2V17.3z"/>
			<path class="st0" d="M256,46.7l-1.4,10.7h-6.3l6.5-40.1h8.7l6.7,40.1h-6.5l-1.6-10.7H256z M261.4,41c-0.9-6.8-1.8-13.3-2.2-17.8
				h-0.2c-0.2,3.3-1.4,11.9-2.2,17.8H261.4z"/>
			<path class="st0" d="M279.5,17.3v40.1h-6.2V17.3H279.5z"/>
			<path class="st0" d="M285,57.4V17.3h7.2c1.6,5.7,6.4,25.4,6.8,27.6h0.1c-0.3-4.9-0.3-10.6-0.3-17.2V17.3h5.7v40.1h-6.9
				c-1.3-4.8-6.6-26.8-7-28.5h-0.1c0.3,4.9,0.3,10.3,0.3,17.5v11H285z"/>
			<path class="st0" d="M321.1,57.4l-5.5-40.1h6.6c0.9,8.6,2.2,21.9,2.5,29.5h0.1c0.9-8.5,2.6-20.7,3.7-29.5h6
				c1.2,9.1,2.9,20.4,3.7,29.2h0.1c0.5-7.8,1.6-20.2,2.6-29.2h6.2l-5.9,40.1h-6.3c-1.1-9-2.7-19.7-3.6-27.9h-0.1
				c-0.9,8.4-2.7,19.3-3.9,27.9H321.1z"/>
			<path class="st0" d="M356.6,17.3v40.1h-6.2V17.3H356.6z"/>
			<path class="st0" d="M365.8,23.1h-6.4v-5.7h19.1v5.7H372v34.3h-6.2V23.1z"/>
			<path class="st0" d="M381.2,57.4V17.3h7.2c1.6,5.7,6.4,25.4,6.8,27.6h0.1C395,40,395,34.3,395,27.7V17.3h5.7v40.1h-6.9
				c-1.3-4.8-6.6-26.8-7-28.5h-0.1c0.3,4.9,0.3,10.3,0.3,17.5v11H381.2z"/>
			<path class="st0" d="M421,39.1h-8.8v12.6h10.2l-0.8,5.7H406V17.3h15.5v5.7h-9.3v10.3h8.8V39.1z"/>
			<path class="st0" d="M429.8,45.6v2.5c0,3,0.9,4.6,3.2,4.6c2.4,0,3-2.3,3-4.9c0-4.3-0.9-5.6-5.2-9c-4.3-3.4-6.6-5.6-6.6-11.5
				c0-5.3,1.6-10.6,8.8-10.6c7.4,0,8.5,5.3,8.5,9.6v2.1h-6.1v-2c0-2.8-0.5-4.5-2.5-4.5c-2,0-2.5,1.7-2.5,4.4c0,2.8,0.5,4.2,4.1,6.8
				c6,4.4,7.8,7,7.8,13.7c0,5.7-2,11.1-9.5,11.1c-7.4,0-9.2-4.7-9.2-10v-2.4H429.8z"/>
			<path class="st0" d="M450.5,45.6v2.5c0,3,0.9,4.6,3.2,4.6c2.4,0,3-2.3,3-4.9c0-4.3-0.9-5.6-5.2-9c-4.3-3.4-6.6-5.6-6.6-11.5
				c0-5.3,1.6-10.6,8.8-10.6c7.4,0,8.5,5.3,8.5,9.6v2.1h-6.1v-2c0-2.8-0.5-4.5-2.5-4.5c-2,0-2.5,1.7-2.5,4.4c0,2.8,0.5,4.2,4.1,6.8
				c6,4.4,7.8,7,7.8,13.7c0,5.7-2,11.1-9.5,11.1c-7.4,0-9.2-4.7-9.2-10v-2.4H450.5z"/>
		</g>
	</g>
</g>
</svg>
