<?xml version="1.0" encoding="utf-8"?>
<!-- Generator: Adobe Illustrator 22.0.1, SVG Export Plug-In . SVG Version: 6.00 Build 0)  -->
<svg version="1.1" id="圖層_1" xmlns="http://www.w3.org/2000/svg" xmlns:xlink="http://www.w3.org/1999/xlink" x="0px" y="0px"
	 viewBox="0 0 359.3 71.1" style="enable-background:new 0 0 359.3 71.1;" xml:space="preserve">
<style type="text/css">
	.st0{fill:#1A1919;}
	.st1{fill:#F4B827;}
	.st2{fill:#CBCCCB;}
	.st3{fill:#03335F;}
	.st4{fill:#C21E4B;}
	.st5{fill:#888888;}
	.st6{font-family:'Arial-BoldMT';}
	.st7{font-size:20px;}
	.st8{letter-spacing:2;}
	.st9{font-family:'FZLTZHB--B51-0';}
	.st10{font-size:39px;}
	.st11{letter-spacing:6;}
</style>
<g>
	<g id="logo_2_">
		<path class="st0" d="M37.8,26.7c-4.9,0-8.8,4-8.8,8.8c0,4.9,4,8.8,8.8,8.8c4.9,0,8.8-4,8.8-8.8C46.6,30.6,42.7,26.7,37.8,26.7
			 M37.8,45.8c-5.7,0-10.3-4.6-10.3-10.3s4.6-10.3,10.3-10.3s10.3,4.6,10.3,10.3S43.5,45.8,37.8,45.8"/>
		<path class="st0" d="M44.7,35.5c0,3.8-3.1,6.9-6.9,6.9c-3.8,0-6.9-3.1-6.9-6.9c0-3.8,3.1-6.9,6.9-6.9S44.7,31.7,44.7,35.5
			 M17.4,0.1h43.2c5.1-0.1,8.8,3.5,8.7,8.5H41.7H27.1H8.5C8.7,3.7,12.2,0.3,17.4,0.1"/>
		<path class="st1" d="M58.1,70.8H14.6c-5.1,0.1-8.8-3.5-8.7-8.6l25,0.1h15h20.8C66.5,67.4,63.3,70.7,58.1,70.8"/>
		<path class="st2" d="M67,13.8v8.5H33.2l4.4-8.6L67,13.8z"/>
		<path class="st2" d="M18.7,25c1.2-2.6,7.1-2.7,7.1-2.7h7.5l4.5-8.6c-5.6,0-11.2,2.1-15.4,6.4c-4.3,4.3-6.4,9.8-6.4,15.4 M8,57.4
			v-8.7l34.4-0.1l-4.5,8.7L8,57.4z"/>
		<path class="st2" d="M56.9,46c-1.2,2.6-6.5,2.7-6.5,2.7h-8.2l-4.5,8.6c5.6,0,11.2-2.1,15.4-6.4c4.3-4.3,6.4-9.8,6.4-15.4"/>
		<path class="st2" d="M56.7,57.2h3.7V22h-3.7V57.2z M15.1,48.9h3.8V18.4h-3.8C15.1,18.4,15.1,48.9,15.1,48.9z"/>
		<path class="st0" d="M53.5,27.2c0,1.1-0.9,2-2,2s-2-0.9-2-2s0.9-2,2-2.1C52.6,25.2,53.5,26.1,53.5,27.2L53.5,27.2"/>
		<path class="st2" d="M15.1,16.2h6.1v-2.4h-6.1C15.1,13.8,15.1,16.2,15.1,16.2z"/>
		<path class="st3" d="M75.2,21.9c0.1-4.8-3.5-8.2-8.6-8.1v16.9v13.8v17.9c5.1-0.1,8.4-3,8.5-7.8L75.2,21.9z"/>
		<path class="st4" d="M0,17v32.3c-0.1,4.8,3.5,8.3,8.5,8.1V39.8V26.2V8.7C3.5,8.8,0.1,12.2,0,17"/>
	</g>
	<text transform="matrix(1 0 0 1 94.193 65.1703)" class="st5 st6 st7 st8">BLOCKCHAIN WITNESS</text>
	<text transform="matrix(1 0 0 1 92.193 37.571)" class="st0 st9 st10 st11">區塊鏈存證王</text>
</g>
</svg>
