<svg xmlns="http://www.w3.org/2000/svg" viewBox="0 0 800 450"><defs><style>.cls-1{isolation:isolate;}.cls-2{mix-blend-mode:exclusion;}.cls-3{mix-blend-mode:screen;}.cls-4{fill:#141b56;}.cls-5{fill:#293a99;}</style></defs><title>pic_network</title><g class="cls-1"><g id="圖層_1" data-name="圖層 1"><g class="cls-2"><g class="cls-3"><path class="cls-4" d="M406.35,120.25l.16,0L609,170.79,581.87,331.72l-50,47.49-65,27.67-.18,0-208.48-34.4-.14-.2L191.15,271.67,230.1,165.06l.29-.08Zm201.33,51.32L406.35,121.35,231,165.93l-38.58,105.6,66.51,100,207.79,34.29,64.58-27.5,49.48-47Z"/></g><g class="cls-3"><polygon class="cls-4" points="291.57 43.25 440.54 64.04 440.67 64.28 463.04 104.37 462.01 104.86 439.77 65.01 291.39 44.3 291.57 43.25"/></g><g class="cls-3"><path class="cls-4" d="M291.25,43l58.69,39.35-.05-.23L440.16,64l.14,0L550.92,89.43l.12.17,59,82.93L462.47,105.19l-56.22,16.2-.24-.16L291.71,44.59,231.26,165.35l166,127.47L191.14,272.07l13.54-108.71,25.51,1.58Zm258.94,47.4L440.14,65.07,350.91,83l55.55,37.25L462.58,104l.2.1,143.9,65.69ZM230.32,166l-24.61-1.53L192.43,271.13,393.6,291.38Z"/></g><g class="cls-3"><path class="cls-4" d="M370.11,206.55l34.52,50.2-60.5-3.29Zm32.33,49L370.22,208.7,346,252.49Z"/></g><g class="cls-3"><path class="cls-4" d="M596.29,371.61l13.24,47.51-42.3,9.52Zm11.82,46.74L596,374.75l-26.66,52.33Z"/></g><g class="cls-3"><path class="cls-4" d="M524.38,19.41l29.24,52.88L451.5,35.67Zm26.83,50.88L523.76,20.64,455.35,35.9Z"/></g><g class="cls-3"><path class="cls-4" d="M218.38,36.1l58.28,6.22-77.74,67.94Zm55.69,7-54.8-5.84L201,107Z"/></g><g class="cls-3"><polygon class="cls-4" points="218.37 36.36 219.29 37.01 198.13 62.08 200.52 108.61 199.36 108.66 196.95 61.74 218.37 36.36"/></g><g class="cls-3"><path class="cls-4" d="M624.22,178.09,662,277.3l-64.35,39.77Zm36.37,98.79-36-94.58L599.24,314.8Z"/></g><g class="cls-3"><polygon class="cls-4" points="624.72 179.75 658.95 199.73 658.96 200.01 661.86 277.07 660.7 277.11 657.81 200.33 624.09 180.65 624.72 179.75"/></g><g class="cls-3"><path class="cls-4" d="M170.71,212.71,200,318.41,153.94,286.7Zm27.37,103-27.25-98.31-15.6,68.81Z"/></g><g class="cls-3"><path class="cls-4" d="M190.35,369.7l130.24,27.71L205,408.08ZM313.51,397,192.15,371.17l13.68,35.77Z"/></g><g class="cls-3"><polygon class="cls-4" points="190.82 370.08 191.68 370.79 167.2 395.47 205.62 407 205.25 408.01 165.13 395.97 190.82 370.08"/></g><g class="cls-3"><path class="cls-4" d="M615.28,41.18l-7.85,40.76L573,58.55Zm-8.66,38.88L613.76,43l-38.52,15.8Z"/></g><g class="cls-3"><polygon class="cls-4" points="580.92 36.05 614.62 41.55 614.42 42.6 581.73 37.26 574.65 58.81 573.54 58.51 580.92 36.05"/></g><g class="cls-3"><polygon class="cls-4" points="595.77 372.76 596.49 373.6 558.74 400.86 568.82 427.69 567.72 428.04 557.37 400.49 595.77 372.76"/></g><g class="cls-3"><path class="cls-4" d="M406.09,119.94l111.16,78.2,49.33,44.22-58.05,50.47,1,.61h-1.68l-.1.09-.24-.09-112.77-.8,8.37-37.2,100,35.3-133.61-82.9.17-.39ZM564.9,242.35l-48.41-43.41L406.62,121.66l-35.75,85.76,136.68,84.8Zm-60.48,50L404,256.88l-7.8,34.7Z"/></g><g class="cls-3"><path class="cls-4" d="M609.55,170.26l-43.2,72.19,15.74,90-74.15-38.81-41,114-71.7-114.78L257.56,373.19l21.23-64.38L395.24,291.6l.41-.24,71,113.67L507,292.79l9.32-94.63.36-.1Zm-29,160.2-15.42-88.2,42-70.16L517.44,199l-9.22,93.65Zm-321,40.29L392.76,293,279.69,309.75Z"/></g><g class="cls-3"><polygon class="cls-4" points="432.83 176.37 433.11 176.8 508.11 292.63 507.11 293.17 432.39 177.78 370.44 208.09 369.9 207.16 432.83 176.37"/></g><g class="cls-3"><polygon class="cls-4" points="406.89 120.59 433.14 176.87 432.08 177.29 405.82 121.01 406.89 120.59"/></g><g class="cls-3"><polygon class="cls-4" points="363.23 350.11 363.43 350.21 467.09 405.87 466.5 406.79 363.03 351.24 258.69 372.49 258.44 371.45 363.23 350.11"/></g><g class="cls-3"><polygon class="cls-4" points="394.93 291.86 395.96 292.34 363.65 350.91 362.61 350.44 394.93 291.86"/></g><g class="cls-3"><polygon class="cls-4" points="403.91 255.75 438.48 282.55 395.59 292.62 395.3 291.59 436.01 282.03 403.16 256.56 403.91 255.75"/></g><g class="cls-3"><polygon class="cls-4" points="437.34 281.77 507.7 292.37 507.51 293.42 437.15 282.82 437.34 281.77"/></g><g class="cls-3"><polygon class="cls-4" points="433.01 176.69 482.23 220.01 516.57 198.13 517.23 199 482.11 221.38 481.77 221.08 432.21 177.46 433.01 176.69"/></g><g class="cls-3"><polygon class="cls-4" points="482.73 220.53 508.16 292.73 507.06 293.06 481.62 220.86 482.73 220.53"/></g><g class="cls-3"><polygon class="cls-4" points="611.72 245.88 661.61 276.65 660.96 277.53 611.07 246.77 611.72 245.88"/></g><g class="cls-3"><polygon class="cls-4" points="292.06 42.01 292.37 149.89 291.21 149.9 290.91 45.54 205.68 164.22 204.71 163.64 292.06 42.01"/></g><line class="cls-5" x1="370.13" y1="205.14" x2="325.29" y2="140.88"/><g class="cls-3"><polygon class="cls-4" points="325.78 140.59 370.62 204.85 369.64 205.43 324.8 141.17 325.78 140.59"/></g><g class="cls-3"><path class="cls-4" d="M249,206.73l80.19,58.35-96.84-8.29Zm76.41,57-75.8-55.14L233.9,255.85Z"/></g><g class="cls-3"><path class="cls-4" d="M256.53,221.89l44.37,32.28-53.59-4.59Zm40.58,30.88-40-29.08-8.3,25Z"/></g><g class="cls-3"><polygon class="cls-4" points="232.92 255.83 233.35 256.81 193.24 271.63 279.49 308.8 278.99 309.76 190.33 271.56 232.92 255.83"/></g><g class="cls-3"><polygon class="cls-4" points="229.53 164.63 370.35 207.12 369.98 208.13 231.56 166.36 249.87 207.43 248.8 207.84 229.53 164.63"/></g><g class="cls-3"><polygon class="cls-4" points="327.57 263.89 395.68 291.62 395.21 292.59 327.1 264.87 327.57 263.89"/></g><g class="cls-3"><polygon class="cls-4" points="247.81 248.64 248.34 249.59 233.41 256.79 232.87 255.85 247.81 248.64"/></g><g class="cls-3"><polygon class="cls-4" points="249.86 207.41 257.36 222.57 256.3 223.01 248.81 207.86 249.86 207.41"/></g><g class="cls-3"><polygon class="cls-4" points="299.23 252.98 327.56 263.89 327.11 264.87 298.78 253.96 299.23 252.98"/></g><g class="cls-3"><polygon class="cls-4" points="507.25 292.48 507.96 293.32 431.09 348.23 430.38 347.39 507.25 292.48"/></g><g class="cls-3"><polygon class="cls-4" points="508.28 145.73 517.47 198.48 516.33 198.65 507.13 145.9 508.28 145.73"/></g><g class="cls-3"><polygon class="cls-4" points="323.4 48.07 330.72 69.66 292.8 97.59 325.76 140.57 324.81 141.19 291.22 97.39 329.38 69.29 322.3 48.39 323.4 48.07"/></g><g class="cls-3"><polygon class="cls-4" points="550.19 89.48 550.92 90.3 505.54 124.22 504.8 123.39 550.19 89.48"/></g><g class="cls-3"><polygon class="cls-4" points="237.77 117.12 238.91 117.28 231.12 165.57 229.97 165.42 237.77 117.12"/></g><g class="cls-3"><polygon class="cls-4" points="257.43 112.31 292.23 149.54 291.35 150.24 256.55 113.01 257.43 112.31"/></g><g class="cls-3"><polygon class="cls-4" points="363.7 350.58 370.87 389.93 369.72 390.11 362.56 350.76 363.7 350.58"/></g><g class="cls-3"><polygon class="cls-4" points="155.09 286.21 174.97 317.68 199.02 316.55 199.08 317.61 174.32 318.78 154.09 286.74 155.09 286.21"/></g><g class="cls-3"><polygon class="cls-4" points="432.03 177.02 433.19 177.13 428.73 217.9 370.06 208.15 370.27 207.1 427.7 216.65 432.03 177.02"/></g><g class="cls-3"><polygon class="cls-4" points="428.71 217 457.76 261.54 456.76 262.09 427.71 217.55 428.71 217"/></g><g class="cls-3"><polygon class="cls-4" points="432.77 176.56 517.06 198.05 516.74 199.07 432.45 177.59 432.77 176.56"/></g><g class="cls-3"><polygon class="cls-4" points="324.71 140.87 325.87 140.89 324.38 193.58 293.73 213.97 293.05 213.11 323.23 193.03 324.71 140.87"/></g><g class="cls-3"><path class="cls-4" d="M614.11,108l-.7,34-17.06-31.39Zm-1.77,29.68.58-28.42-14.82,2.21Z"/></g><g class="cls-3"><polygon class="cls-4" points="491.07 338.91 532.06 378.36 531.22 379.09 490.23 339.64 491.07 338.91"/></g><g class="cls-3"><polygon class="cls-4" points="462.93 104.24 508.12 145.44 507.3 146.2 462.12 104.99 462.93 104.24"/></g><g class="cls-3"><path class="cls-4" d="M406.35,120.25l.16,0L609,170.79,581.87,331.72l-50,47.49-65,27.67-.18,0-208.48-34.4-.14-.2L191.15,271.67,230.1,165.06l.29-.08Zm201.33,51.32L406.35,121.35,231,165.93l-38.58,105.6,66.51,100,207.79,34.29,64.58-27.5,49.48-47Z"/></g><g class="cls-3"><polygon class="cls-4" points="291.57 43.25 440.54 64.04 440.67 64.28 463.04 104.37 462.01 104.86 439.77 65.01 291.39 44.3 291.57 43.25"/></g><g class="cls-3"><path class="cls-4" d="M291.25,43l58.69,39.35-.05-.23L440.16,64l.14,0L550.92,89.43l.12.17,59,82.93L462.47,105.19l-56.22,16.2-.24-.16L291.71,44.59,231.26,165.35l166,127.47L191.14,272.07l13.54-108.71,25.51,1.58Zm258.94,47.4L440.14,65.07,350.91,83l55.55,37.25L462.58,104l.2.1,143.9,65.69ZM230.32,166l-24.61-1.53L192.43,271.13,393.6,291.38Z"/></g><g class="cls-3"><path class="cls-4" d="M370.11,206.55l34.52,50.2-60.5-3.29Zm32.33,49L370.22,208.7,346,252.49Z"/></g><g class="cls-3"><path class="cls-4" d="M524.38,19.41l29.24,52.88L451.5,35.67Zm26.83,50.88L523.76,20.64,455.35,35.9Z"/></g><g class="cls-3"><path class="cls-4" d="M218.38,36.1l58.28,6.22-77.74,67.94Zm55.69,7-54.8-5.84L201,107Z"/></g><g class="cls-3"><polygon class="cls-4" points="218.37 36.36 219.29 37.01 198.13 62.08 200.52 108.61 199.36 108.66 196.95 61.74 218.37 36.36"/></g><g class="cls-3"><path class="cls-4" d="M624.22,178.09,662,277.3l-64.35,39.77Zm36.37,98.79-36-94.58L599.24,314.8Z"/></g><g class="cls-3"><polygon class="cls-4" points="624.72 179.75 658.95 199.73 658.96 200.01 661.86 277.07 660.7 277.11 657.81 200.33 624.09 180.65 624.72 179.75"/></g><g class="cls-3"><path class="cls-4" d="M406.09,119.94l111.16,78.2,49.33,44.22-58.05,50.47,1,.61h-1.68l-.1.09-.24-.09-112.77-.8,8.37-37.2,100,35.3-133.61-82.9.17-.39ZM564.9,242.35l-48.41-43.41L406.62,121.66l-35.75,85.76,136.68,84.8Zm-60.48,50L404,256.88l-7.8,34.7Z"/></g><g class="cls-3"><path class="cls-4" d="M609.55,170.26l-43.2,72.19,15.74,90-74.15-38.81-41,114-71.7-114.78L257.56,373.19l21.23-64.38L395.24,291.6l.41-.24,71,113.67L507,292.79l9.32-94.63.36-.1Zm-29,160.2-15.42-88.2,42-70.16L517.44,199l-9.22,93.65Zm-321,40.29L392.76,293,279.69,309.75Z"/></g><g class="cls-3"><polygon class="cls-4" points="432.83 176.37 433.11 176.8 508.11 292.63 507.11 293.17 432.39 177.78 370.44 208.09 369.9 207.16 432.83 176.37"/></g><g class="cls-3"><polygon class="cls-4" points="406.89 120.59 433.14 176.87 432.08 177.29 405.82 121.01 406.89 120.59"/></g><g class="cls-3"><polygon class="cls-4" points="363.23 350.11 363.43 350.21 467.09 405.87 466.5 406.79 363.03 351.24 258.69 372.49 258.44 371.45 363.23 350.11"/></g><g class="cls-3"><polygon class="cls-4" points="394.93 291.86 395.96 292.34 363.65 350.91 362.61 350.44 394.93 291.86"/></g><g class="cls-3"><polygon class="cls-4" points="403.91 255.75 438.48 282.55 395.59 292.62 395.3 291.59 436.01 282.03 403.16 256.56 403.91 255.75"/></g><g class="cls-3"><polygon class="cls-4" points="437.34 281.77 507.7 292.37 507.51 293.42 437.15 282.82 437.34 281.77"/></g><g class="cls-3"><polygon class="cls-4" points="433.01 176.69 482.23 220.01 516.57 198.13 517.23 199 482.11 221.38 481.77 221.08 432.21 177.46 433.01 176.69"/></g><g class="cls-3"><polygon class="cls-4" points="482.73 220.53 508.16 292.73 507.06 293.06 481.62 220.86 482.73 220.53"/></g><g class="cls-3"><polygon class="cls-4" points="611.72 245.88 661.61 276.65 660.96 277.53 611.07 246.77 611.72 245.88"/></g><g class="cls-3"><polygon class="cls-4" points="292.06 42.01 292.37 149.89 291.21 149.9 290.91 45.54 205.68 164.22 204.71 163.64 292.06 42.01"/></g><line class="cls-5" x1="370.13" y1="205.14" x2="325.29" y2="140.88"/><g class="cls-3"><polygon class="cls-4" points="325.78 140.59 370.62 204.85 369.64 205.43 324.8 141.17 325.78 140.59"/></g><g class="cls-3"><path class="cls-4" d="M249,206.73l80.19,58.35-96.84-8.29Zm76.41,57-75.8-55.14L233.9,255.85Z"/></g><g class="cls-3"><path class="cls-4" d="M256.53,221.89l44.37,32.28-53.59-4.59Zm40.58,30.88-40-29.08-8.3,25Z"/></g><g class="cls-3"><polygon class="cls-4" points="232.92 255.83 233.35 256.81 193.24 271.63 279.49 308.8 278.99 309.76 190.33 271.56 232.92 255.83"/></g><g class="cls-3"><polygon class="cls-4" points="229.53 164.63 370.35 207.12 369.98 208.13 231.56 166.36 249.87 207.43 248.8 207.84 229.53 164.63"/></g><g class="cls-3"><polygon class="cls-4" points="327.57 263.89 395.68 291.62 395.21 292.59 327.1 264.87 327.57 263.89"/></g><g class="cls-3"><polygon class="cls-4" points="247.81 248.64 248.34 249.59 233.41 256.79 232.87 255.85 247.81 248.64"/></g><g class="cls-3"><polygon class="cls-4" points="249.86 207.41 257.36 222.57 256.3 223.01 248.81 207.86 249.86 207.41"/></g><g class="cls-3"><polygon class="cls-4" points="299.23 252.98 327.56 263.89 327.11 264.87 298.78 253.96 299.23 252.98"/></g><g class="cls-3"><polygon class="cls-4" points="507.25 292.48 507.96 293.32 431.09 348.23 430.38 347.39 507.25 292.48"/></g><g class="cls-3"><polygon class="cls-4" points="508.28 145.73 517.47 198.48 516.33 198.65 507.13 145.9 508.28 145.73"/></g><g class="cls-3"><polygon class="cls-4" points="323.4 48.07 330.72 69.66 292.8 97.59 325.76 140.57 324.81 141.19 291.22 97.39 329.38 69.29 322.3 48.39 323.4 48.07"/></g><g class="cls-3"><polygon class="cls-4" points="550.19 89.48 550.92 90.3 505.54 124.22 504.8 123.39 550.19 89.48"/></g><g class="cls-3"><polygon class="cls-4" points="237.77 117.12 238.91 117.28 231.12 165.57 229.97 165.42 237.77 117.12"/></g><g class="cls-3"><polygon class="cls-4" points="257.43 112.31 292.23 149.54 291.35 150.24 256.55 113.01 257.43 112.31"/></g><g class="cls-3"><polygon class="cls-4" points="363.7 350.58 370.87 389.93 369.72 390.11 362.56 350.76 363.7 350.58"/></g><g class="cls-3"><polygon class="cls-4" points="432.03 177.02 433.19 177.13 428.73 217.9 370.06 208.15 370.27 207.1 427.7 216.65 432.03 177.02"/></g><g class="cls-3"><polygon class="cls-4" points="428.71 217 457.76 261.54 456.76 262.09 427.71 217.55 428.71 217"/></g><g class="cls-3"><polygon class="cls-4" points="432.77 176.56 517.06 198.05 516.74 199.07 432.45 177.59 432.77 176.56"/></g><g class="cls-3"><polygon class="cls-4" points="324.71 140.87 325.87 140.89 324.38 193.58 293.73 213.97 293.05 213.11 323.23 193.03 324.71 140.87"/></g><g class="cls-3"><polygon class="cls-4" points="491.07 338.91 532.06 378.36 531.22 379.09 490.23 339.64 491.07 338.91"/></g><g class="cls-3"><polygon class="cls-4" points="462.93 104.24 508.12 145.44 507.3 146.2 462.12 104.99 462.93 104.24"/></g><path class="cls-5" d="M593.42,373.22a2.72,2.72,0,1,1,2.75,2.44A2.59,2.59,0,0,1,593.42,373.22Z"/><g class="cls-3"><path class="cls-4" d="M596.15,374.6a1.43,1.43,0,1,1,1.53-1.45,1.49,1.49,0,0,1-1.53,1.45m0,1.06a2.49,2.49,0,1,0-2.75-2.44,2.6,2.6,0,0,0,2.75,2.44Z"/></g><path class="cls-5" d="M595.72,316a2.72,2.72,0,1,1,2.76,2.44A2.62,2.62,0,0,1,595.72,316Z"/><g class="cls-3"><path class="cls-4" d="M598.46,317.36a1.43,1.43,0,1,1-.05-2.84,1.48,1.48,0,0,1,1.57,1.39,1.49,1.49,0,0,1-1.52,1.45m0,1.06a2.5,2.5,0,1,0-2.76-2.44,2.6,2.6,0,0,0,2.76,2.44Z"/></g><path class="cls-5" d="M608.68,246.37a2.72,2.72,0,1,1,2.75,2.44A2.61,2.61,0,0,1,608.68,246.37Z"/><g class="cls-3"><path class="cls-4" d="M611.41,247.75a1.43,1.43,0,1,1,1.53-1.45,1.49,1.49,0,0,1-1.53,1.45m0,1.06a2.49,2.49,0,1,0-2.75-2.44,2.6,2.6,0,0,0,2.75,2.44Z"/></g><path class="cls-5" d="M658.57,277.13a2.72,2.72,0,1,1,2.75,2.44A2.61,2.61,0,0,1,658.57,277.13Z"/><g class="cls-3"><path class="cls-4" d="M661.31,278.51a1.43,1.43,0,1,1,0-2.84,1.43,1.43,0,1,1,0,2.84m0,1.06a2.49,2.49,0,1,0-2.75-2.44,2.59,2.59,0,0,0,2.75,2.44Z"/></g><path class="cls-5" d="M621.7,180.24a2.72,2.72,0,1,1,2.75,2.44A2.59,2.59,0,0,1,621.7,180.24Z"/><g class="cls-3"><path class="cls-4" d="M624.43,181.62a1.43,1.43,0,1,1,1.52-1.45,1.48,1.48,0,0,1-1.52,1.45m0,1.06a2.49,2.49,0,1,0-2.75-2.44,2.59,2.59,0,0,0,2.75,2.44Z"/></g><path class="cls-5" d="M655.67,200.08a2.72,2.72,0,1,1,2.75,2.44A2.6,2.6,0,0,1,655.67,200.08Z"/><g class="cls-3"><path class="cls-4" d="M658.4,201.45a1.43,1.43,0,1,1,1.53-1.44,1.48,1.48,0,0,1-1.53,1.44m0,1.07a2.49,2.49,0,1,0-2.75-2.44,2.61,2.61,0,0,0,2.75,2.44Z"/></g><path class="cls-5" d="M555.34,400.72a2.72,2.72,0,1,1,2.75,2.44A2.6,2.6,0,0,1,555.34,400.72Z"/><g class="cls-3"><path class="cls-4" d="M558.08,402.09a1.43,1.43,0,1,1,1.52-1.44,1.49,1.49,0,0,1-1.52,1.44m0,1.07a2.49,2.49,0,1,0-2.75-2.44,2.61,2.61,0,0,0,2.75,2.44Z"/></g><path class="cls-5" d="M464.09,406.37a2.72,2.72,0,1,1,2.75,2.44A2.59,2.59,0,0,1,464.09,406.37Z"/><g class="cls-3"><path class="cls-4" d="M466.82,407.75a1.43,1.43,0,1,1,1.53-1.45,1.49,1.49,0,0,1-1.53,1.45m0,1.06a2.49,2.49,0,1,0-2.75-2.44,2.6,2.6,0,0,0,2.75,2.44Z"/></g><path class="cls-5" d="M528.93,378.77a2.72,2.72,0,1,1,2.75,2.44A2.61,2.61,0,0,1,528.93,378.77Z"/><g class="cls-3"><path class="cls-4" d="M531.66,380.15a1.43,1.43,0,1,1,1.53-1.45,1.5,1.5,0,0,1-1.53,1.45m0,1.06a2.49,2.49,0,1,0-2.75-2.44,2.61,2.61,0,0,0,2.75,2.44Z"/></g><path class="cls-5" d="M487.94,339.32a2.72,2.72,0,1,1,2.75,2.44A2.61,2.61,0,0,1,487.94,339.32Z"/><g class="cls-3"><path class="cls-4" d="M490.67,340.7a1.43,1.43,0,1,1,1.53-1.45,1.49,1.49,0,0,1-1.53,1.45m0,1.06a2.49,2.49,0,1,0-2.75-2.44,2.6,2.6,0,0,0,2.75,2.44Z"/></g><path class="cls-5" d="M578.62,331.52a2.72,2.72,0,1,1,2.75,2.44A2.6,2.6,0,0,1,578.62,331.52Z"/><g class="cls-3"><path class="cls-4" d="M581.35,332.89a1.43,1.43,0,1,1-.05-2.84,1.43,1.43,0,1,1,.05,2.84m0,1.07a2.49,2.49,0,1,0-2.75-2.44,2.62,2.62,0,0,0,2.75,2.44Z"/></g><path class="cls-5" d="M392.73,292.15a2.72,2.72,0,1,1,2.76,2.44A2.61,2.61,0,0,1,392.73,292.15Z"/><g class="cls-3"><path class="cls-4" d="M395.47,293.52a1.49,1.49,0,0,1-1.58-1.39,1.51,1.51,0,0,1,1.53-1.45,1.43,1.43,0,1,1,.05,2.84m0,1.07a2.5,2.5,0,1,0-2.76-2.44,2.6,2.6,0,0,0,2.76,2.44Z"/></g><path class="cls-5" d="M367.58,390.06a2.72,2.72,0,1,1,2.76,2.44A2.6,2.6,0,0,1,367.58,390.06Z"/><g class="cls-3"><path class="cls-4" d="M370.32,391.44a1.43,1.43,0,1,1-.05-2.84,1.43,1.43,0,1,1,.05,2.84m0,1.06a2.49,2.49,0,1,0-2.76-2.44,2.59,2.59,0,0,0,2.76,2.44Z"/></g><path class="cls-5" d="M360.42,350.72a2.72,2.72,0,1,1,2.75,2.44A2.6,2.6,0,0,1,360.42,350.72Z"/><g class="cls-3"><path class="cls-4" d="M363.15,352.09a1.48,1.48,0,0,1-1.57-1.39,1.56,1.56,0,1,1,1.57,1.39m0,1.07a2.49,2.49,0,1,0-2.75-2.44,2.61,2.61,0,0,0,2.75,2.44Z"/></g><path class="cls-5" d="M255.86,372a2.72,2.72,0,1,1,2.75,2.44A2.6,2.6,0,0,1,255.86,372Z"/><g class="cls-3"><path class="cls-4" d="M258.59,373.39a1.43,1.43,0,1,1,0-2.84,1.43,1.43,0,1,1,0,2.84m0,1.07a2.49,2.49,0,1,0-2.75-2.44,2.61,2.61,0,0,0,2.75,2.44Z"/></g><path class="cls-5" d="M202.72,407.55a2.72,2.72,0,1,1,2.75,2.44A2.62,2.62,0,0,1,202.72,407.55Z"/><g class="cls-3"><path class="cls-4" d="M205.46,408.93a1.43,1.43,0,1,1-.05-2.84,1.43,1.43,0,1,1,.05,2.84m0,1.06a2.49,2.49,0,1,0-2.75-2.44,2.6,2.6,0,0,0,2.75,2.44Z"/></g><path class="cls-5" d="M188.54,370.48a2.72,2.72,0,1,1,2.75,2.44A2.6,2.6,0,0,1,188.54,370.48Z"/><g class="cls-3"><path class="cls-4" d="M191.28,371.85a1.43,1.43,0,1,1,1.52-1.44,1.49,1.49,0,0,1-1.52,1.44m0,1.07a2.49,2.49,0,1,0-2.75-2.44,2.61,2.61,0,0,0,2.75,2.44Z"/></g><path class="cls-5" d="M163.46,395.77a2.72,2.72,0,0,1,5.42-.09,2.72,2.72,0,0,1-5.42.09Z"/><g class="cls-3"><path class="cls-4" d="M166.19,397.14a1.43,1.43,0,1,1-.05-2.84,1.43,1.43,0,1,1,.05,2.84m0,1.07a2.5,2.5,0,1,0-.09-5,2.49,2.49,0,1,0,.09,5Z"/></g><path class="cls-5" d="M314.34,397.25a2.72,2.72,0,1,1,2.75,2.44A2.6,2.6,0,0,1,314.34,397.25Z"/><g class="cls-3"><path class="cls-4" d="M317.07,398.62a1.43,1.43,0,1,1,1.53-1.44,1.48,1.48,0,0,1-1.53,1.44m0,1.07a2.49,2.49,0,1,0-2.75-2.44,2.61,2.61,0,0,0,2.75,2.44Z"/></g><path class="cls-5" d="M276.53,309.33a2.72,2.72,0,1,1,2.75,2.44A2.6,2.6,0,0,1,276.53,309.33Z"/><g class="cls-3"><path class="cls-4" d="M279.26,310.7a1.43,1.43,0,1,1-.05-2.84,1.43,1.43,0,1,1,.05,2.84m0,1.07a2.49,2.49,0,1,0-2.75-2.44,2.62,2.62,0,0,0,2.75,2.44Z"/></g><path class="cls-5" d="M428,347.86a2.72,2.72,0,1,1,2.75,2.44A2.6,2.6,0,0,1,428,347.86Z"/><g class="cls-3"><path class="cls-4" d="M430.76,349.23a1.48,1.48,0,0,1-1.57-1.39,1.56,1.56,0,1,1,1.57,1.39m0,1.07a2.49,2.49,0,1,0-2.75-2.44,2.62,2.62,0,0,0,2.75,2.44Z"/></g><path class="cls-5" d="M403.65,120.85a2.72,2.72,0,1,1,2.75,2.43A2.59,2.59,0,0,1,403.65,120.85Z"/><g class="cls-3"><path class="cls-4" d="M406.38,122.22a1.43,1.43,0,1,1,1.52-1.45,1.48,1.48,0,0,1-1.52,1.45m0,1.06a2.49,2.49,0,1,0-2.75-2.43,2.59,2.59,0,0,0,2.75,2.43Z"/></g><path class="cls-5" d="M459.81,104.66a2.72,2.72,0,1,1,2.76,2.44A2.62,2.62,0,0,1,459.81,104.66Z"/><g class="cls-3"><path class="cls-4" d="M462.55,106a1.43,1.43,0,1,1-.05-2.84,1.43,1.43,0,1,1,.05,2.84m0,1.06a2.5,2.5,0,1,0-2.76-2.44,2.6,2.6,0,0,0,2.76,2.44Z"/></g><path class="cls-5" d="M502.46,123.85a2.72,2.72,0,1,1,2.75,2.44A2.61,2.61,0,0,1,502.46,123.85Z"/><g class="cls-3"><path class="cls-4" d="M505.19,125.23a1.43,1.43,0,1,1,1.53-1.45,1.49,1.49,0,0,1-1.53,1.45m0,1.06a2.49,2.49,0,1,0-2.75-2.44,2.6,2.6,0,0,0,2.75,2.44Z"/></g><path class="cls-5" d="M547.84,89.94a2.72,2.72,0,1,1,2.75,2.44A2.61,2.61,0,0,1,547.84,89.94Z"/><g class="cls-3"><path class="cls-4" d="M550.58,91.31a1.43,1.43,0,1,1,1.52-1.44,1.49,1.49,0,0,1-1.52,1.44m0,1.07a2.49,2.49,0,1,0-2.75-2.44,2.6,2.6,0,0,0,2.75,2.44Z"/></g><path class="cls-5" d="M347.3,82.65a2.72,2.72,0,1,1,2.75,2.44A2.6,2.6,0,0,1,347.3,82.65Z"/><g class="cls-3"><path class="cls-4" d="M350,84a1.43,1.43,0,1,1,1.53-1.44A1.48,1.48,0,0,1,350,84m0,1.07a2.49,2.49,0,1,0-2.75-2.44,2.61,2.61,0,0,0,2.75,2.44Z"/></g><path class="cls-5" d="M288.77,43.82a2.72,2.72,0,1,1,2.75,2.44A2.61,2.61,0,0,1,288.77,43.82Z"/><g class="cls-3"><path class="cls-4" d="M291.5,45.19a1.48,1.48,0,0,1-1.57-1.39,1.56,1.56,0,1,1,1.57,1.39m0,1.07a2.49,2.49,0,1,0-2.75-2.44,2.61,2.61,0,0,0,2.75,2.44Z"/></g><path class="cls-5" d="M272.65,42.76a2.72,2.72,0,1,1,2.76,2.44A2.62,2.62,0,0,1,272.65,42.76Z"/><g class="cls-3"><path class="cls-4" d="M275.39,44.14a1.43,1.43,0,1,1,1.52-1.45,1.49,1.49,0,0,1-1.52,1.45m0,1.06a2.5,2.5,0,1,0-2.76-2.44,2.6,2.6,0,0,0,2.76,2.44Z"/></g><path class="cls-5" d="M197.23,108.68a2.72,2.72,0,1,1,2.75,2.44A2.6,2.6,0,0,1,197.23,108.68Z"/><g class="cls-3"><path class="cls-4" d="M200,110.05a1.43,1.43,0,1,1,1.53-1.44,1.48,1.48,0,0,1-1.53,1.44m0,1.07a2.49,2.49,0,1,0-2.75-2.44,2.61,2.61,0,0,0,2.75,2.44Z"/></g><path class="cls-5" d="M194.83,62a2.72,2.72,0,1,1,2.75,2.44A2.6,2.6,0,0,1,194.83,62Z"/><g class="cls-3"><path class="cls-4" d="M197.56,63.33a1.43,1.43,0,1,1,1.53-1.44,1.48,1.48,0,0,1-1.53,1.44m0,1.07A2.49,2.49,0,1,0,194.83,62a2.61,2.61,0,0,0,2.75,2.44Z"/></g><path class="cls-5" d="M216.12,36.73a2.72,2.72,0,1,1,2.75,2.44A2.6,2.6,0,0,1,216.12,36.73Z"/><g class="cls-3"><path class="cls-4" d="M218.85,38.11a1.43,1.43,0,1,1,1.53-1.45,1.49,1.49,0,0,1-1.53,1.45m0,1.06a2.49,2.49,0,1,0-2.75-2.44,2.6,2.6,0,0,0,2.75,2.44Z"/></g><path class="cls-5" d="M437.44,64.57A2.72,2.72,0,1,1,440.19,67,2.62,2.62,0,0,1,437.44,64.57Z"/><g class="cls-3"><path class="cls-4" d="M440.18,66a1.43,1.43,0,1,1-.05-2.84,1.43,1.43,0,1,1,.05,2.84m0,1.06a2.49,2.49,0,1,0-2.75-2.44A2.6,2.6,0,0,0,440.19,67Z"/></g><path class="cls-5" d="M434.54,282.34a2.72,2.72,0,1,1,2.75,2.44A2.6,2.6,0,0,1,434.54,282.34Z"/><g class="cls-3"><path class="cls-4" d="M437.27,283.71a1.43,1.43,0,1,1,0-2.84,1.43,1.43,0,1,1,0,2.84m0,1.07a2.49,2.49,0,1,0-2.75-2.44,2.61,2.61,0,0,0,2.75,2.44Z"/></g><path class="cls-5" d="M400.82,256.2a2.72,2.72,0,1,1,2.75,2.44A2.6,2.6,0,0,1,400.82,256.2Z"/><g class="cls-3"><path class="cls-4" d="M403.56,257.57a1.43,1.43,0,1,1,1.52-1.44,1.49,1.49,0,0,1-1.52,1.44m0,1.07a2.49,2.49,0,1,0-2.75-2.44,2.61,2.61,0,0,0,2.75,2.44Z"/></g><path class="cls-5" d="M454.55,261.86a2.72,2.72,0,1,1,2.75,2.44A2.6,2.6,0,0,1,454.55,261.86Z"/><g class="cls-3"><path class="cls-4" d="M457.28,263.23a1.48,1.48,0,0,1-1.57-1.39,1.56,1.56,0,1,1,1.57,1.39m0,1.07a2.49,2.49,0,1,0-2.75-2.44,2.61,2.61,0,0,0,2.75,2.44Z"/></g><path class="cls-5" d="M479.46,220.74a2.72,2.72,0,1,1,2.75,2.44A2.61,2.61,0,0,1,479.46,220.74Z"/><g class="cls-3"><path class="cls-4" d="M482.2,222.11a1.49,1.49,0,0,1-1.58-1.39,1.51,1.51,0,0,1,1.53-1.45,1.43,1.43,0,1,1,.05,2.84m0,1.07a2.49,2.49,0,1,0-2.75-2.44,2.6,2.6,0,0,0,2.75,2.44Z"/></g><path class="cls-5" d="M342.34,253a2.72,2.72,0,1,1,2.75,2.44A2.61,2.61,0,0,1,342.34,253Z"/><g class="cls-3"><path class="cls-4" d="M345.08,254.4a1.51,1.51,0,0,1-1.58-1.4,1.56,1.56,0,1,1,1.58,1.4m0,1.06a2.49,2.49,0,1,0-2.75-2.44,2.6,2.6,0,0,0,2.75,2.44Z"/></g><path class="cls-5" d="M324.62,264.42a2.72,2.72,0,1,1,2.75,2.44A2.6,2.6,0,0,1,324.62,264.42Z"/><g class="cls-3"><path class="cls-4" d="M327.36,265.8a1.43,1.43,0,1,1-.05-2.84,1.43,1.43,0,1,1,.05,2.84m0,1.06a2.49,2.49,0,1,0-2.75-2.44,2.59,2.59,0,0,0,2.75,2.44Z"/></g><path class="cls-5" d="M230.43,256.37a2.72,2.72,0,1,1,2.75,2.44A2.6,2.6,0,0,1,230.43,256.37Z"/><g class="cls-3"><path class="cls-4" d="M233.16,257.74a1.43,1.43,0,1,1,0-2.84,1.43,1.43,0,1,1,0,2.84m0,1.07a2.49,2.49,0,1,0-2.75-2.44,2.62,2.62,0,0,0,2.75,2.44Z"/></g><path class="cls-5" d="M189.08,271.64a2.72,2.72,0,1,1,2.75,2.44A2.6,2.6,0,0,1,189.08,271.64Z"/><g class="cls-3"><path class="cls-4" d="M191.81,273a1.43,1.43,0,1,1,1.53-1.45,1.49,1.49,0,0,1-1.53,1.45m0,1.06a2.49,2.49,0,1,0-2.75-2.44,2.6,2.6,0,0,0,2.75,2.44Z"/></g><path class="cls-5" d="M151.88,286.52a2.72,2.72,0,1,1,2.75,2.44A2.61,2.61,0,0,1,151.88,286.52Z"/><g class="cls-3"><path class="cls-4" d="M154.61,287.9a1.43,1.43,0,1,1,1.53-1.45,1.5,1.5,0,0,1-1.53,1.45m0,1.06a2.49,2.49,0,1,0-2.75-2.44,2.61,2.61,0,0,0,2.75,2.44Z"/></g><path class="cls-5" d="M168.35,216.36a2.72,2.72,0,1,1,2.75,2.43A2.6,2.6,0,0,1,168.35,216.36Z"/><g class="cls-3"><path class="cls-4" d="M171.09,217.73a1.43,1.43,0,1,1,1.52-1.45,1.49,1.49,0,0,1-1.52,1.45m0,1.06a2.49,2.49,0,1,0-2.75-2.43,2.59,2.59,0,0,0,2.75,2.43Z"/></g><path class="cls-5" d="M196.34,317.12a2.72,2.72,0,1,1,2.75,2.44A2.61,2.61,0,0,1,196.34,317.12Z"/><g class="cls-3"><path class="cls-4" d="M199.07,318.5a1.43,1.43,0,1,1,1.53-1.45,1.49,1.49,0,0,1-1.53,1.45m0,1.06a2.49,2.49,0,1,0-2.75-2.44,2.6,2.6,0,0,0,2.75,2.44Z"/></g><path class="cls-5" d="M171.94,318.27a2.72,2.72,0,1,1,2.75,2.44A2.61,2.61,0,0,1,171.94,318.27Z"/><g class="cls-3"><path class="cls-4" d="M174.67,319.65a1.43,1.43,0,1,1,1.53-1.45,1.49,1.49,0,0,1-1.53,1.45m0,1.06a2.49,2.49,0,1,0-2.75-2.44,2.6,2.6,0,0,0,2.75,2.44Z"/></g><path class="cls-5" d="M245.37,249.16a2.72,2.72,0,1,1,2.75,2.44A2.6,2.6,0,0,1,245.37,249.16Z"/><g class="cls-3"><path class="cls-4" d="M248.1,250.53a1.48,1.48,0,0,1-1.57-1.39,1.56,1.56,0,1,1,1.57,1.39m0,1.07a2.49,2.49,0,1,0-2.75-2.44,2.62,2.62,0,0,0,2.75,2.44Z"/></g><path class="cls-5" d="M254.12,222.84a2.72,2.72,0,1,1,2.75,2.44A2.6,2.6,0,0,1,254.12,222.84Z"/><g class="cls-3"><path class="cls-4" d="M256.86,224.21a1.43,1.43,0,1,1,1.52-1.44,1.49,1.49,0,0,1-1.52,1.44m0,1.07a2.49,2.49,0,1,0-2.75-2.44,2.6,2.6,0,0,0,2.75,2.44Z"/></g><path class="cls-5" d="M290.68,213.58a2.72,2.72,0,1,1,2.75,2.44A2.61,2.61,0,0,1,290.68,213.58Z"/><g class="cls-3"><path class="cls-4" d="M293.41,215a1.43,1.43,0,1,1,1.53-1.45,1.49,1.49,0,0,1-1.53,1.45m0,1.06a2.49,2.49,0,1,0-2.75-2.44,2.6,2.6,0,0,0,2.75,2.44Z"/></g><path class="cls-5" d="M321.09,193.35a2.72,2.72,0,1,1,2.76,2.44A2.61,2.61,0,0,1,321.09,193.35Z"/><g class="cls-3"><path class="cls-4" d="M323.83,194.72a1.49,1.49,0,0,1-1.58-1.39,1.51,1.51,0,0,1,1.53-1.45,1.43,1.43,0,1,1,.05,2.84m0,1.07a2.5,2.5,0,1,0-2.76-2.44,2.6,2.6,0,0,0,2.76,2.44Z"/></g><path class="cls-5" d="M296.29,253.52a2.72,2.72,0,1,1,2.76,2.43A2.6,2.6,0,0,1,296.29,253.52Z"/><g class="cls-3"><path class="cls-4" d="M299,254.89a1.43,1.43,0,1,1,1.52-1.44,1.48,1.48,0,0,1-1.52,1.44m0,1.06a2.49,2.49,0,1,0-2.76-2.43,2.59,2.59,0,0,0,2.76,2.43Z"/></g><path class="cls-5" d="M246.62,207.68a2.72,2.72,0,1,1,2.76,2.44A2.62,2.62,0,0,1,246.62,207.68Z"/><g class="cls-3"><path class="cls-4" d="M249.36,209.06a1.43,1.43,0,1,1,1.52-1.45,1.49,1.49,0,0,1-1.52,1.45m0,1.06a2.5,2.5,0,1,0-2.76-2.44,2.6,2.6,0,0,0,2.76,2.44Z"/></g><path class="cls-5" d="M227.84,165.54a2.72,2.72,0,1,1,2.75,2.44A2.61,2.61,0,0,1,227.84,165.54Z"/><g class="cls-3"><path class="cls-4" d="M230.57,166.92a1.43,1.43,0,1,1,1.53-1.45,1.49,1.49,0,0,1-1.53,1.45m0,1.06a2.49,2.49,0,1,0-2.75-2.44,2.6,2.6,0,0,0,2.75,2.44Z"/></g><path class="cls-5" d="M202.49,164a2.72,2.72,0,1,1,2.75,2.44A2.6,2.6,0,0,1,202.49,164Z"/><g class="cls-3"><path class="cls-4" d="M205.22,165.35a1.43,1.43,0,1,1,1.53-1.45,1.49,1.49,0,0,1-1.53,1.45m0,1.06a2.49,2.49,0,1,0-2.75-2.44,2.6,2.6,0,0,0,2.75,2.44Z"/></g><path class="cls-5" d="M254.28,112.71a2.72,2.72,0,1,1,2.75,2.44A2.6,2.6,0,0,1,254.28,112.71Z"/><g class="cls-3"><path class="cls-4" d="M257,114.08a1.43,1.43,0,1,1-.05-2.84,1.43,1.43,0,1,1,.05,2.84m0,1.07a2.49,2.49,0,1,0-2.75-2.44,2.62,2.62,0,0,0,2.75,2.44Z"/></g><path class="cls-5" d="M235.63,117.24a2.72,2.72,0,1,1,2.75,2.44A2.6,2.6,0,0,1,235.63,117.24Z"/><g class="cls-3"><path class="cls-4" d="M238.36,118.62a1.43,1.43,0,1,1,1.53-1.45,1.49,1.49,0,0,1-1.53,1.45m0,1.06a2.49,2.49,0,1,0-2.75-2.44,2.6,2.6,0,0,0,2.75,2.44Z"/></g><path class="cls-5" d="M367.46,207.67a2.72,2.72,0,1,1,2.75,2.44A2.6,2.6,0,0,1,367.46,207.67Z"/><g class="cls-3"><path class="cls-4" d="M370.19,209a1.48,1.48,0,0,1-1.57-1.39,1.56,1.56,0,1,1,1.57,1.39m0,1.07a2.49,2.49,0,1,0-2.75-2.44,2.61,2.61,0,0,0,2.75,2.44Z"/></g><path class="cls-5" d="M425.5,217.32a2.72,2.72,0,1,1,2.75,2.44A2.61,2.61,0,0,1,425.5,217.32Z"/><g class="cls-3"><path class="cls-4" d="M428.24,218.7a1.43,1.43,0,1,1,1.52-1.45,1.51,1.51,0,0,1-1.52,1.45m0,1.06a2.49,2.49,0,1,0-2.75-2.44,2.61,2.61,0,0,0,2.75,2.44Z"/></g><path class="cls-5" d="M322.58,140.93a2.72,2.72,0,1,1,2.75,2.43A2.6,2.6,0,0,1,322.58,140.93Z"/><g class="cls-3"><path class="cls-4" d="M325.31,142.3a1.43,1.43,0,1,1,1.53-1.45,1.49,1.49,0,0,1-1.53,1.45m0,1.06a2.49,2.49,0,1,0-2.75-2.43,2.6,2.6,0,0,0,2.75,2.43Z"/></g><path class="cls-5" d="M289.11,97.37a2.72,2.72,0,1,1,2.75,2.44A2.61,2.61,0,0,1,289.11,97.37Z"/><g class="cls-3"><path class="cls-4" d="M291.85,98.75a1.43,1.43,0,1,1-.05-2.84,1.48,1.48,0,0,1,1.57,1.39,1.5,1.5,0,0,1-1.52,1.45m0,1.06a2.49,2.49,0,1,0-2.75-2.44,2.6,2.6,0,0,0,2.75,2.44Z"/></g><path class="cls-5" d="M326.82,69.39a2.72,2.72,0,1,1,2.75,2.44A2.6,2.6,0,0,1,326.82,69.39Z"/><g class="cls-3"><path class="cls-4" d="M329.55,70.76A1.48,1.48,0,0,1,328,69.37a1.56,1.56,0,1,1,1.57,1.39m0,1.07a2.49,2.49,0,1,0-2.75-2.44,2.61,2.61,0,0,0,2.75,2.44Z"/></g><path class="cls-5" d="M450.72,35.83a2.72,2.72,0,1,1,2.75,2.44A2.6,2.6,0,0,1,450.72,35.83Z"/><g class="cls-3"><path class="cls-4" d="M453.45,37.21A1.43,1.43,0,1,1,455,35.76a1.49,1.49,0,0,1-1.52,1.45m0,1.06a2.49,2.49,0,1,0-2.75-2.44,2.6,2.6,0,0,0,2.75,2.44Z"/></g><path class="cls-5" d="M521.36,20.07a2.72,2.72,0,0,1,5.42-.09,2.72,2.72,0,0,1-5.42.09Z"/><g class="cls-3"><path class="cls-4" d="M524.1,21.45A1.43,1.43,0,1,1,525.62,20a1.51,1.51,0,0,1-1.52,1.45m0,1.06A2.61,2.61,0,0,0,526.78,20a2.72,2.72,0,0,0-5.42.09,2.62,2.62,0,0,0,2.75,2.44Z"/></g><path class="cls-5" d="M549.71,71.33a2.72,2.72,0,1,1,2.75,2.44A2.59,2.59,0,0,1,549.71,71.33Z"/><g class="cls-3"><path class="cls-4" d="M552.44,72.71A1.43,1.43,0,1,1,554,71.26a1.49,1.49,0,0,1-1.53,1.45m0,1.06a2.49,2.49,0,1,0-2.75-2.44,2.6,2.6,0,0,0,2.75,2.44Z"/></g><path class="cls-5" d="M604.31,81a2.72,2.72,0,1,1,2.76,2.44A2.62,2.62,0,0,1,604.31,81Z"/><g class="cls-3"><path class="cls-4" d="M607.05,82.42A1.43,1.43,0,1,1,608.57,81a1.49,1.49,0,0,1-1.52,1.45m0,1.06A2.5,2.5,0,1,0,604.31,81a2.6,2.6,0,0,0,2.76,2.44Z"/></g><path class="cls-5" d="M578.62,36.7a2.72,2.72,0,1,1,2.75,2.44A2.6,2.6,0,0,1,578.62,36.7Z"/><g class="cls-3"><path class="cls-4" d="M581.35,38.07a1.48,1.48,0,0,1-1.57-1.39,1.56,1.56,0,1,1,1.57,1.39m0,1.07a2.49,2.49,0,1,0-2.75-2.44,2.61,2.61,0,0,0,2.75,2.44Z"/></g><path class="cls-5" d="M611.81,42.12a2.72,2.72,0,1,1,2.75,2.44A2.6,2.6,0,0,1,611.81,42.12Z"/><g class="cls-3"><path class="cls-4" d="M614.54,43.49A1.48,1.48,0,0,1,613,42.1a1.56,1.56,0,1,1,1.57,1.39m0,1.07a2.49,2.49,0,1,0-2.75-2.44,2.61,2.61,0,0,0,2.75,2.44Z"/></g><path class="cls-5" d="M571.39,58.71a2.72,2.72,0,1,1,2.75,2.43A2.59,2.59,0,0,1,571.39,58.71Z"/><g class="cls-3"><path class="cls-4" d="M574.12,60.08a1.43,1.43,0,1,1,1.52-1.45,1.48,1.48,0,0,1-1.52,1.45m0,1.06a2.49,2.49,0,1,0-2.75-2.43,2.59,2.59,0,0,0,2.75,2.43Z"/></g><path class="cls-5" d="M320.47,48.1a2.72,2.72,0,1,1,2.75,2.44A2.6,2.6,0,0,1,320.47,48.1Z"/><g class="cls-3"><path class="cls-4" d="M323.2,49.48A1.43,1.43,0,1,1,324.73,48a1.49,1.49,0,0,1-1.53,1.45m0,1.06a2.49,2.49,0,1,0-2.75-2.44,2.6,2.6,0,0,0,2.75,2.44Z"/></g><path class="cls-5" d="M289.08,149.94a2.72,2.72,0,1,1,2.75,2.44A2.6,2.6,0,0,1,289.08,149.94Z"/><g class="cls-3"><path class="cls-4" d="M291.81,151.31a1.43,1.43,0,1,1,1.53-1.44,1.49,1.49,0,0,1-1.53,1.44m0,1.07a2.49,2.49,0,1,0-2.75-2.44,2.61,2.61,0,0,0,2.75,2.44Z"/></g><path class="cls-5" d="M429.9,177.12a2.72,2.72,0,1,1,2.75,2.44A2.61,2.61,0,0,1,429.9,177.12Z"/><g class="cls-3"><path class="cls-4" d="M432.63,178.5a1.43,1.43,0,1,1,1.53-1.45,1.5,1.5,0,0,1-1.53,1.45m0,1.06a2.49,2.49,0,1,0-2.75-2.44,2.61,2.61,0,0,0,2.75,2.44Z"/></g><path class="cls-5" d="M505,145.86a2.72,2.72,0,1,1,2.75,2.44A2.6,2.6,0,0,1,505,145.86Z"/><g class="cls-3"><path class="cls-4" d="M507.73,147.24a1.43,1.43,0,1,1,1.52-1.45,1.49,1.49,0,0,1-1.52,1.45m0,1.06a2.49,2.49,0,1,0-2.75-2.44,2.59,2.59,0,0,0,2.75,2.44Z"/></g><path class="cls-5" d="M504.9,292.94a2.72,2.72,0,1,1,2.75,2.44A2.61,2.61,0,0,1,504.9,292.94Z"/><g class="cls-3"><path class="cls-4" d="M507.63,294.32a1.43,1.43,0,1,1,1.53-1.45,1.49,1.49,0,0,1-1.53,1.45m0,1.06a2.49,2.49,0,1,0-2.75-2.44,2.6,2.6,0,0,0,2.75,2.44Z"/></g><path class="cls-5" d="M514.19,198.61a2.72,2.72,0,1,1,2.75,2.44A2.6,2.6,0,0,1,514.19,198.61Z"/><g class="cls-3"><path class="cls-4" d="M516.92,200a1.43,1.43,0,1,1,1.53-1.44,1.48,1.48,0,0,1-1.53,1.44m0,1.07a2.49,2.49,0,1,0-2.75-2.44,2.61,2.61,0,0,0,2.75,2.44Z"/></g><path class="cls-5" d="M563,242.4a2.72,2.72,0,1,1,2.75,2.44A2.61,2.61,0,0,1,563,242.4Z"/><g class="cls-3"><path class="cls-4" d="M565.76,243.78a1.43,1.43,0,1,1,1.53-1.45,1.49,1.49,0,0,1-1.53,1.45m0,1.06A2.49,2.49,0,1,0,563,242.4a2.6,2.6,0,0,0,2.75,2.44Z"/></g><path class="cls-5" d="M605.63,171.22a2.72,2.72,0,1,1,2.75,2.44A2.59,2.59,0,0,1,605.63,171.22Z"/><g class="cls-3"><path class="cls-4" d="M608.36,172.6a1.43,1.43,0,1,1,1.53-1.45,1.49,1.49,0,0,1-1.53,1.45m0,1.06a2.49,2.49,0,1,0-2.75-2.44,2.6,2.6,0,0,0,2.75,2.44Z"/></g><path class="cls-5" d="M610.9,138.17a2.87,2.87,0,0,1,3.83-.13,2.34,2.34,0,0,1,.13,3.51,2.9,2.9,0,0,1-3.83.13A2.34,2.34,0,0,1,610.9,138.17Z"/><g class="cls-3"><path class="cls-4" d="M612.9,141.28a1.66,1.66,0,0,1-1.08-.38,1.34,1.34,0,0,1-.07-2,1.54,1.54,0,0,1,1.1-.45,1.58,1.58,0,0,1,1.09.38,1.34,1.34,0,0,1,.07,2,1.6,1.6,0,0,1-1.11.46m0,1.06a2.85,2.85,0,0,0,1.94-.79,2.34,2.34,0,0,0-.13-3.51,2.85,2.85,0,0,0-1.89-.67,2.8,2.8,0,0,0-1.94.8,2.34,2.34,0,0,0,.13,3.51,2.85,2.85,0,0,0,1.89.66Z"/></g><path class="cls-5" d="M611.54,106.94a2.9,2.9,0,0,1,3.83-.13,2.34,2.34,0,0,1,.13,3.51,2.88,2.88,0,0,1-3.83.13A2.33,2.33,0,0,1,611.54,106.94Z"/><g class="cls-3"><path class="cls-4" d="M613.54,110.05h0a1.6,1.6,0,0,1-1.08-.38,1.36,1.36,0,0,1-.49-1,1.31,1.31,0,0,1,.41-1,1.62,1.62,0,0,1,1.11-.46,1.64,1.64,0,0,1,1.08.38,1.33,1.33,0,0,1,.08,2,1.61,1.61,0,0,1-1.11.45m0,1.07a2.86,2.86,0,0,0,1.94-.8,2.34,2.34,0,0,0-.13-3.51,2.89,2.89,0,0,0-1.89-.66,2.84,2.84,0,0,0-1.94.79,2.33,2.33,0,0,0,.13,3.51,2.81,2.81,0,0,0,1.89.67Z"/></g><path class="cls-5" d="M595.25,109.37a2.87,2.87,0,0,1,3.83-.13,2.34,2.34,0,0,1,.13,3.51,2.9,2.9,0,0,1-3.83.13A2.33,2.33,0,0,1,595.25,109.37Z"/><g class="cls-3"><path class="cls-4" d="M597.25,112.48h0a1.66,1.66,0,0,1-1.08-.38,1.36,1.36,0,0,1-.49-1,1.34,1.34,0,0,1,.41-1,1.61,1.61,0,0,1,1.11-.45,1.59,1.59,0,0,1,1.08.38,1.34,1.34,0,0,1,.08,2,1.62,1.62,0,0,1-1.11.46m0,1.06a2.85,2.85,0,0,0,1.94-.79,2.34,2.34,0,0,0-.13-3.51,2.85,2.85,0,0,0-1.9-.67,2.82,2.82,0,0,0-1.93.8,2.33,2.33,0,0,0,.13,3.51,2.85,2.85,0,0,0,1.89.66Z"/></g><path class="cls-5" d="M565.56,427.91a2.72,2.72,0,1,1,2.75,2.44A2.6,2.6,0,0,1,565.56,427.91Z"/><g class="cls-3"><path class="cls-4" d="M568.29,429.28a1.48,1.48,0,0,1-1.57-1.39,1.56,1.56,0,1,1,1.57,1.39m0,1.07a2.49,2.49,0,1,0-2.75-2.44,2.61,2.61,0,0,0,2.75,2.44Z"/></g><path class="cls-5" d="M606.11,418.78a2.72,2.72,0,1,1,2.75,2.44A2.61,2.61,0,0,1,606.11,418.78Z"/><g class="cls-3"><path class="cls-4" d="M608.84,420.16a1.43,1.43,0,1,1,1.53-1.45,1.5,1.5,0,0,1-1.53,1.45m0,1.06a2.49,2.49,0,1,0-2.75-2.44,2.61,2.61,0,0,0,2.75,2.44Z"/></g><path class="cls-5" d="M595.72,316a2.72,2.72,0,1,1,2.76,2.44A2.62,2.62,0,0,1,595.72,316Z"/><g class="cls-3"><path class="cls-4" d="M598.46,317.36a1.43,1.43,0,1,1-.05-2.84,1.48,1.48,0,0,1,1.57,1.39,1.49,1.49,0,0,1-1.52,1.45m0,1.06a2.5,2.5,0,1,0-2.76-2.44,2.6,2.6,0,0,0,2.76,2.44Z"/></g><path class="cls-5" d="M608.68,246.37a2.72,2.72,0,1,1,2.75,2.44A2.61,2.61,0,0,1,608.68,246.37Z"/><g class="cls-3"><path class="cls-4" d="M611.41,247.75a1.43,1.43,0,1,1,1.53-1.45,1.49,1.49,0,0,1-1.53,1.45m0,1.06a2.49,2.49,0,1,0-2.75-2.44,2.6,2.6,0,0,0,2.75,2.44Z"/></g><path class="cls-5" d="M658.57,277.13a2.72,2.72,0,1,1,2.75,2.44A2.61,2.61,0,0,1,658.57,277.13Z"/><g class="cls-3"><path class="cls-4" d="M661.31,278.51a1.43,1.43,0,1,1,0-2.84,1.43,1.43,0,1,1,0,2.84m0,1.06a2.49,2.49,0,1,0-2.75-2.44,2.59,2.59,0,0,0,2.75,2.44Z"/></g><path class="cls-5" d="M621.7,180.24a2.72,2.72,0,1,1,2.75,2.44A2.59,2.59,0,0,1,621.7,180.24Z"/><g class="cls-3"><path class="cls-4" d="M624.43,181.62a1.43,1.43,0,1,1,1.52-1.45,1.48,1.48,0,0,1-1.52,1.45m0,1.06a2.49,2.49,0,1,0-2.75-2.44,2.59,2.59,0,0,0,2.75,2.44Z"/></g><path class="cls-5" d="M655.67,200.08a2.72,2.72,0,1,1,2.75,2.44A2.6,2.6,0,0,1,655.67,200.08Z"/><g class="cls-3"><path class="cls-4" d="M658.4,201.45a1.43,1.43,0,1,1,1.53-1.44,1.48,1.48,0,0,1-1.53,1.44m0,1.07a2.49,2.49,0,1,0-2.75-2.44,2.61,2.61,0,0,0,2.75,2.44Z"/></g><path class="cls-5" d="M464.09,406.37a2.72,2.72,0,1,1,2.75,2.44A2.59,2.59,0,0,1,464.09,406.37Z"/><g class="cls-3"><path class="cls-4" d="M466.82,407.75a1.43,1.43,0,1,1,1.53-1.45,1.49,1.49,0,0,1-1.53,1.45m0,1.06a2.49,2.49,0,1,0-2.75-2.44,2.6,2.6,0,0,0,2.75,2.44Z"/></g><path class="cls-5" d="M528.93,378.77a2.72,2.72,0,1,1,2.75,2.44A2.61,2.61,0,0,1,528.93,378.77Z"/><g class="cls-3"><path class="cls-4" d="M531.66,380.15a1.43,1.43,0,1,1,1.53-1.45,1.5,1.5,0,0,1-1.53,1.45m0,1.06a2.49,2.49,0,1,0-2.75-2.44,2.61,2.61,0,0,0,2.75,2.44Z"/></g><path class="cls-5" d="M487.94,339.32a2.72,2.72,0,1,1,2.75,2.44A2.61,2.61,0,0,1,487.94,339.32Z"/><g class="cls-3"><path class="cls-4" d="M490.67,340.7a1.43,1.43,0,1,1,1.53-1.45,1.49,1.49,0,0,1-1.53,1.45m0,1.06a2.49,2.49,0,1,0-2.75-2.44,2.6,2.6,0,0,0,2.75,2.44Z"/></g><path class="cls-5" d="M578.62,331.52a2.72,2.72,0,1,1,2.75,2.44A2.6,2.6,0,0,1,578.62,331.52Z"/><g class="cls-3"><path class="cls-4" d="M581.35,332.89a1.43,1.43,0,1,1-.05-2.84,1.43,1.43,0,1,1,.05,2.84m0,1.07a2.49,2.49,0,1,0-2.75-2.44,2.62,2.62,0,0,0,2.75,2.44Z"/></g><path class="cls-5" d="M392.73,292.15a2.72,2.72,0,1,1,2.76,2.44A2.61,2.61,0,0,1,392.73,292.15Z"/><g class="cls-3"><path class="cls-4" d="M395.47,293.52a1.49,1.49,0,0,1-1.58-1.39,1.51,1.51,0,0,1,1.53-1.45,1.43,1.43,0,1,1,.05,2.84m0,1.07a2.5,2.5,0,1,0-2.76-2.44,2.6,2.6,0,0,0,2.76,2.44Z"/></g><path class="cls-5" d="M367.58,390.06a2.72,2.72,0,1,1,2.76,2.44A2.6,2.6,0,0,1,367.58,390.06Z"/><g class="cls-3"><path class="cls-4" d="M370.32,391.44a1.43,1.43,0,1,1-.05-2.84,1.43,1.43,0,1,1,.05,2.84m0,1.06a2.49,2.49,0,1,0-2.76-2.44,2.59,2.59,0,0,0,2.76,2.44Z"/></g><path class="cls-5" d="M360.42,350.72a2.72,2.72,0,1,1,2.75,2.44A2.6,2.6,0,0,1,360.42,350.72Z"/><g class="cls-3"><path class="cls-4" d="M363.15,352.09a1.48,1.48,0,0,1-1.57-1.39,1.56,1.56,0,1,1,1.57,1.39m0,1.07a2.49,2.49,0,1,0-2.75-2.44,2.61,2.61,0,0,0,2.75,2.44Z"/></g><path class="cls-5" d="M255.86,372a2.72,2.72,0,1,1,2.75,2.44A2.6,2.6,0,0,1,255.86,372Z"/><g class="cls-3"><path class="cls-4" d="M258.59,373.39a1.43,1.43,0,1,1,0-2.84,1.43,1.43,0,1,1,0,2.84m0,1.07a2.49,2.49,0,1,0-2.75-2.44,2.61,2.61,0,0,0,2.75,2.44Z"/></g><g class="cls-3"><path class="cls-4" d="M71.11,352.47l.49.85,52,89.31L52.9,382.09Zm48.14,85L71.08,354.68l-16.72,27.2Z"/></g><g class="cls-3"><polygon class="cls-4" points="39.37 352.57 71.1 353.04 71.08 354.1 41.14 353.66 54.16 381.78 53.1 382.19 39.37 352.57"/></g><path class="cls-5" d="M52.13,380.46a2.4,2.4,0,0,1,3.17.14,2,2,0,0,1-.16,2.91,2.39,2.39,0,0,1-3.17-.14A1.94,1.94,0,0,1,52.13,380.46Z"/><g class="cls-3"><path class="cls-4" d="M53.65,383h0a1.09,1.09,0,0,1-.82-.33.89.89,0,0,1-.28-.71,1,1,0,0,1,.35-.69,1.21,1.21,0,0,1,.71-.26,1.17,1.17,0,0,1,.83.33.94.94,0,0,1-.08,1.4,1.15,1.15,0,0,1-.71.26m0,1.06a2.37,2.37,0,0,0,1.47-.53,2,2,0,0,0,.16-2.91,2.4,2.4,0,0,0-3.17-.14,1.94,1.94,0,0,0-.16,2.91,2.31,2.31,0,0,0,1.7.67Z"/></g><path class="cls-5" d="M69.58,352.05a2.41,2.41,0,0,1,3.18.14,1.93,1.93,0,0,1-.16,2.9,2.38,2.38,0,0,1-3.17-.13A1.94,1.94,0,0,1,69.58,352.05Z"/><g class="cls-3"><path class="cls-4" d="M71.11,354.57a1.17,1.17,0,0,1-.82-.33.94.94,0,0,1,.07-1.4,1.15,1.15,0,0,1,.71-.26,1.08,1.08,0,0,1,.82.32.91.91,0,0,1,.28.72,1,1,0,0,1-.35.69,1.21,1.21,0,0,1-.71.26m0,1.06a2.38,2.38,0,0,0,1.47-.54,1.93,1.93,0,0,0,.16-2.9,2.3,2.3,0,0,0-1.7-.67,2.34,2.34,0,0,0-1.48.53,1.94,1.94,0,0,0-.15,2.91,2.35,2.35,0,0,0,1.7.67Z"/></g><path class="cls-5" d="M38.75,351.59a2.39,2.39,0,0,1,3.17.14,2,2,0,0,1-.16,2.91,2.39,2.39,0,0,1-3.17-.14A2,2,0,0,1,38.75,351.59Z"/><g class="cls-3"><path class="cls-4" d="M40.27,354.11a1.17,1.17,0,0,1-.82-.33.94.94,0,0,1,.08-1.4,1.16,1.16,0,0,1,1.53.06.94.94,0,0,1-.08,1.41,1.16,1.16,0,0,1-.71.26m0,1.06a2.41,2.41,0,0,0,1.47-.53,2,2,0,0,0,.16-2.91,2.4,2.4,0,0,0-3.17-.14,2,2,0,0,0-.16,2.91,2.36,2.36,0,0,0,1.7.67Z"/></g><path class="cls-5" d="M119.9,438.53a2.38,2.38,0,0,1,3.17.13,1.94,1.94,0,0,1-.16,2.91,2.38,2.38,0,0,1-3.17-.14A1.93,1.93,0,0,1,119.9,438.53Z"/><g class="cls-3"><path class="cls-4" d="M121.42,441a1.12,1.12,0,0,1-.82-.32.94.94,0,0,1,.08-1.41,1.1,1.1,0,0,1,.71-.25,1.12,1.12,0,0,1,.82.32,1,1,0,0,1,.28.72.94.94,0,0,1-.36.68,1.07,1.07,0,0,1-.71.26m0,1.07a2.36,2.36,0,0,0,1.47-.54,1.94,1.94,0,0,0,.16-2.91,2.39,2.39,0,0,0-3.17-.13,1.93,1.93,0,0,0-.16,2.9,2.33,2.33,0,0,0,1.7.68Z"/></g><path class="cls-5" d="M276.53,309.33a2.72,2.72,0,1,1,2.75,2.44A2.6,2.6,0,0,1,276.53,309.33Z"/><g class="cls-3"><path class="cls-4" d="M279.26,310.7a1.43,1.43,0,1,1-.05-2.84,1.43,1.43,0,1,1,.05,2.84m0,1.07a2.49,2.49,0,1,0-2.75-2.44,2.62,2.62,0,0,0,2.75,2.44Z"/></g><path class="cls-5" d="M428,347.86a2.72,2.72,0,1,1,2.75,2.44A2.6,2.6,0,0,1,428,347.86Z"/><g class="cls-3"><path class="cls-4" d="M430.76,349.23a1.48,1.48,0,0,1-1.57-1.39,1.56,1.56,0,1,1,1.57,1.39m0,1.07a2.49,2.49,0,1,0-2.75-2.44,2.62,2.62,0,0,0,2.75,2.44Z"/></g><path class="cls-5" d="M403.65,120.85a2.72,2.72,0,1,1,2.75,2.43A2.59,2.59,0,0,1,403.65,120.85Z"/><g class="cls-3"><path class="cls-4" d="M406.38,122.22a1.43,1.43,0,1,1,1.52-1.45,1.48,1.48,0,0,1-1.52,1.45m0,1.06a2.49,2.49,0,1,0-2.75-2.43,2.59,2.59,0,0,0,2.75,2.43Z"/></g><path class="cls-5" d="M459.81,104.66a2.72,2.72,0,1,1,2.76,2.44A2.62,2.62,0,0,1,459.81,104.66Z"/><g class="cls-3"><path class="cls-4" d="M462.55,106a1.43,1.43,0,1,1-.05-2.84,1.43,1.43,0,1,1,.05,2.84m0,1.06a2.5,2.5,0,1,0-2.76-2.44,2.6,2.6,0,0,0,2.76,2.44Z"/></g><path class="cls-5" d="M502.46,123.85a2.72,2.72,0,1,1,2.75,2.44A2.61,2.61,0,0,1,502.46,123.85Z"/><g class="cls-3"><path class="cls-4" d="M505.19,125.23a1.43,1.43,0,1,1,1.53-1.45,1.49,1.49,0,0,1-1.53,1.45m0,1.06a2.49,2.49,0,1,0-2.75-2.44,2.6,2.6,0,0,0,2.75,2.44Z"/></g><path class="cls-5" d="M547.84,89.94a2.72,2.72,0,1,1,2.75,2.44A2.61,2.61,0,0,1,547.84,89.94Z"/><g class="cls-3"><path class="cls-4" d="M550.58,91.31a1.43,1.43,0,1,1,1.52-1.44,1.49,1.49,0,0,1-1.52,1.44m0,1.07a2.49,2.49,0,1,0-2.75-2.44,2.6,2.6,0,0,0,2.75,2.44Z"/></g><path class="cls-5" d="M347.3,82.65a2.72,2.72,0,1,1,2.75,2.44A2.6,2.6,0,0,1,347.3,82.65Z"/><g class="cls-3"><path class="cls-4" d="M350,84a1.43,1.43,0,1,1,1.53-1.44A1.48,1.48,0,0,1,350,84m0,1.07a2.49,2.49,0,1,0-2.75-2.44,2.61,2.61,0,0,0,2.75,2.44Z"/></g><path class="cls-5" d="M288.77,43.82a2.72,2.72,0,1,1,2.75,2.44A2.61,2.61,0,0,1,288.77,43.82Z"/><g class="cls-3"><path class="cls-4" d="M291.5,45.19a1.48,1.48,0,0,1-1.57-1.39,1.56,1.56,0,1,1,1.57,1.39m0,1.07a2.49,2.49,0,1,0-2.75-2.44,2.61,2.61,0,0,0,2.75,2.44Z"/></g><path class="cls-5" d="M272.65,42.76a2.72,2.72,0,1,1,2.76,2.44A2.62,2.62,0,0,1,272.65,42.76Z"/><g class="cls-3"><path class="cls-4" d="M275.39,44.14a1.43,1.43,0,1,1,1.52-1.45,1.49,1.49,0,0,1-1.52,1.45m0,1.06a2.5,2.5,0,1,0-2.76-2.44,2.6,2.6,0,0,0,2.76,2.44Z"/></g><path class="cls-5" d="M197.23,108.68a2.72,2.72,0,1,1,2.75,2.44A2.6,2.6,0,0,1,197.23,108.68Z"/><g class="cls-3"><path class="cls-4" d="M200,110.05a1.43,1.43,0,1,1,1.53-1.44,1.48,1.48,0,0,1-1.53,1.44m0,1.07a2.49,2.49,0,1,0-2.75-2.44,2.61,2.61,0,0,0,2.75,2.44Z"/></g><path class="cls-5" d="M194.83,62a2.72,2.72,0,1,1,2.75,2.44A2.6,2.6,0,0,1,194.83,62Z"/><g class="cls-3"><path class="cls-4" d="M197.56,63.33a1.43,1.43,0,1,1,1.53-1.44,1.48,1.48,0,0,1-1.53,1.44m0,1.07A2.49,2.49,0,1,0,194.83,62a2.61,2.61,0,0,0,2.75,2.44Z"/></g><path class="cls-5" d="M216.12,36.73a2.72,2.72,0,1,1,2.75,2.44A2.6,2.6,0,0,1,216.12,36.73Z"/><g class="cls-3"><path class="cls-4" d="M218.85,38.11a1.43,1.43,0,1,1,1.53-1.45,1.49,1.49,0,0,1-1.53,1.45m0,1.06a2.49,2.49,0,1,0-2.75-2.44,2.6,2.6,0,0,0,2.75,2.44Z"/></g><path class="cls-5" d="M437.44,64.57A2.72,2.72,0,1,1,440.19,67,2.62,2.62,0,0,1,437.44,64.57Z"/><g class="cls-3"><path class="cls-4" d="M440.18,66a1.43,1.43,0,1,1-.05-2.84,1.43,1.43,0,1,1,.05,2.84m0,1.06a2.49,2.49,0,1,0-2.75-2.44A2.6,2.6,0,0,0,440.19,67Z"/></g><path class="cls-5" d="M434.54,282.34a2.72,2.72,0,1,1,2.75,2.44A2.6,2.6,0,0,1,434.54,282.34Z"/><g class="cls-3"><path class="cls-4" d="M437.27,283.71a1.43,1.43,0,1,1,0-2.84,1.43,1.43,0,1,1,0,2.84m0,1.07a2.49,2.49,0,1,0-2.75-2.44,2.61,2.61,0,0,0,2.75,2.44Z"/></g><path class="cls-5" d="M400.82,256.2a2.72,2.72,0,1,1,2.75,2.44A2.6,2.6,0,0,1,400.82,256.2Z"/><g class="cls-3"><path class="cls-4" d="M403.56,257.57a1.43,1.43,0,1,1,1.52-1.44,1.49,1.49,0,0,1-1.52,1.44m0,1.07a2.49,2.49,0,1,0-2.75-2.44,2.61,2.61,0,0,0,2.75,2.44Z"/></g><path class="cls-5" d="M454.55,261.86a2.72,2.72,0,1,1,2.75,2.44A2.6,2.6,0,0,1,454.55,261.86Z"/><g class="cls-3"><path class="cls-4" d="M457.28,263.23a1.48,1.48,0,0,1-1.57-1.39,1.56,1.56,0,1,1,1.57,1.39m0,1.07a2.49,2.49,0,1,0-2.75-2.44,2.61,2.61,0,0,0,2.75,2.44Z"/></g><path class="cls-5" d="M479.46,220.74a2.72,2.72,0,1,1,2.75,2.44A2.61,2.61,0,0,1,479.46,220.74Z"/><g class="cls-3"><path class="cls-4" d="M482.2,222.11a1.49,1.49,0,0,1-1.58-1.39,1.51,1.51,0,0,1,1.53-1.45,1.43,1.43,0,1,1,.05,2.84m0,1.07a2.49,2.49,0,1,0-2.75-2.44,2.6,2.6,0,0,0,2.75,2.44Z"/></g><path class="cls-5" d="M342.34,253a2.72,2.72,0,1,1,2.75,2.44A2.61,2.61,0,0,1,342.34,253Z"/><g class="cls-3"><path class="cls-4" d="M345.08,254.4a1.51,1.51,0,0,1-1.58-1.4,1.56,1.56,0,1,1,1.58,1.4m0,1.06a2.49,2.49,0,1,0-2.75-2.44,2.6,2.6,0,0,0,2.75,2.44Z"/></g><path class="cls-5" d="M324.62,264.42a2.72,2.72,0,1,1,2.75,2.44A2.6,2.6,0,0,1,324.62,264.42Z"/><g class="cls-3"><path class="cls-4" d="M327.36,265.8a1.43,1.43,0,1,1-.05-2.84,1.43,1.43,0,1,1,.05,2.84m0,1.06a2.49,2.49,0,1,0-2.75-2.44,2.59,2.59,0,0,0,2.75,2.44Z"/></g><path class="cls-5" d="M230.43,256.37a2.72,2.72,0,1,1,2.75,2.44A2.6,2.6,0,0,1,230.43,256.37Z"/><g class="cls-3"><path class="cls-4" d="M233.16,257.74a1.43,1.43,0,1,1,0-2.84,1.43,1.43,0,1,1,0,2.84m0,1.07a2.49,2.49,0,1,0-2.75-2.44,2.62,2.62,0,0,0,2.75,2.44Z"/></g><path class="cls-5" d="M189.08,271.64a2.72,2.72,0,1,1,2.75,2.44A2.6,2.6,0,0,1,189.08,271.64Z"/><g class="cls-3"><path class="cls-4" d="M191.81,273a1.43,1.43,0,1,1,1.53-1.45,1.49,1.49,0,0,1-1.53,1.45m0,1.06a2.49,2.49,0,1,0-2.75-2.44,2.6,2.6,0,0,0,2.75,2.44Z"/></g><g class="cls-3"><path class="cls-4" d="M105.67,40.11,89.37,90.89,8,102.73ZM88.47,89.94l15.15-47.23L12.76,101Z"/></g><g class="cls-3"><polygon class="cls-4" points="105.18 41.2 115.01 62.02 114.79 62.28 89.37 90.75 88.47 90.08 113.67 61.85 104.11 41.62 105.18 41.2"/></g><path class="cls-5" d="M89.91,92.72a2.79,2.79,0,0,1-3.51-1.39,2.43,2.43,0,0,1,1.53-3.23,2.79,2.79,0,0,1,3.51,1.4A2.42,2.42,0,0,1,89.91,92.72Z"/><g class="cls-3"><path class="cls-4" d="M88.94,91.83h0a1.56,1.56,0,0,1-1.47-.89,1.4,1.4,0,0,1,.87-1.85,2.05,2.05,0,0,1,.55-.1,1.55,1.55,0,0,1,1.46.9,1.3,1.3,0,0,1,0,1.09,1.5,1.5,0,0,1-.85.75,1.49,1.49,0,0,1-.55.1m0,1.07a2.86,2.86,0,0,0,1-.18,2.42,2.42,0,0,0,1.53-3.22,2.7,2.7,0,0,0-2.56-1.57,2.84,2.84,0,0,0-.95.17,2.43,2.43,0,0,0-1.53,3.23A2.71,2.71,0,0,0,89,92.9Z"/></g><path class="cls-5" d="M12.52,103.46A2.79,2.79,0,0,1,9,102.07a2.43,2.43,0,0,1,1.53-3.23,2.8,2.8,0,0,1,3.52,1.4A2.43,2.43,0,0,1,12.52,103.46Z"/><g class="cls-3"><path class="cls-4" d="M11.55,102.57h0a1.58,1.58,0,0,1-1.47-.89A1.4,1.4,0,0,1,11,99.83a2,2,0,0,1,.54-.1,1.57,1.57,0,0,1,1.47.9,1.39,1.39,0,0,1-.88,1.84,1.44,1.44,0,0,1-.54.1m0,1.07a3,3,0,0,0,.95-.18,2.43,2.43,0,0,0,1.53-3.22,2.72,2.72,0,0,0-2.57-1.57,2.89,2.89,0,0,0-1,.17A2.43,2.43,0,0,0,9,102.07a2.72,2.72,0,0,0,2.57,1.57Z"/></g><path class="cls-5" d="M105.64,43.72a2.8,2.8,0,0,1-3.52-1.39,2.44,2.44,0,0,1,1.53-3.23,2.79,2.79,0,0,1,3.52,1.39A2.43,2.43,0,0,1,105.64,43.72Z"/><g class="cls-3"><path class="cls-4" d="M104.67,42.83h0a1.57,1.57,0,0,1-1.47-.9,1.39,1.39,0,0,1,.88-1.84,1.66,1.66,0,0,1,.54-.1,1.57,1.57,0,0,1,1.47.9,1.31,1.31,0,0,1,0,1.08,1.51,1.51,0,0,1-.86.76,1.66,1.66,0,0,1-.54.1m0,1.06a2.89,2.89,0,0,0,1-.17,2.43,2.43,0,0,0,1.53-3.23,2.74,2.74,0,0,0-2.57-1.57,3.25,3.25,0,0,0-.95.18,2.44,2.44,0,0,0-1.53,3.23,2.73,2.73,0,0,0,2.57,1.56Z"/></g><path class="cls-5" d="M115.33,64.25a2.79,2.79,0,0,1-3.51-1.39,2.43,2.43,0,0,1,1.53-3.23A2.79,2.79,0,0,1,116.86,61,2.43,2.43,0,0,1,115.33,64.25Z"/><g class="cls-3"><path class="cls-4" d="M114.36,63.36h0a1.55,1.55,0,0,1-1.46-.9,1.27,1.27,0,0,1,0-1.08,1.49,1.49,0,0,1,.85-.76,1.72,1.72,0,0,1,.55-.1,1.55,1.55,0,0,1,1.46.9,1.28,1.28,0,0,1,0,1.08,1.49,1.49,0,0,1-.85.76,1.72,1.72,0,0,1-.55.1m0,1.06a2.84,2.84,0,0,0,1-.17A2.43,2.43,0,0,0,116.86,61a2.7,2.7,0,0,0-2.56-1.56,2.84,2.84,0,0,0-1,.17,2.43,2.43,0,0,0-1.53,3.23,2.7,2.7,0,0,0,2.56,1.56Z"/></g><path class="cls-5" d="M245.37,249.16a2.72,2.72,0,1,1,2.75,2.44A2.6,2.6,0,0,1,245.37,249.16Z"/><g class="cls-3"><path class="cls-4" d="M248.1,250.53a1.48,1.48,0,0,1-1.57-1.39,1.56,1.56,0,1,1,1.57,1.39m0,1.07a2.49,2.49,0,1,0-2.75-2.44,2.62,2.62,0,0,0,2.75,2.44Z"/></g><path class="cls-5" d="M254.12,222.84a2.72,2.72,0,1,1,2.75,2.44A2.6,2.6,0,0,1,254.12,222.84Z"/><g class="cls-3"><path class="cls-4" d="M256.86,224.21a1.43,1.43,0,1,1,1.52-1.44,1.49,1.49,0,0,1-1.52,1.44m0,1.07a2.49,2.49,0,1,0-2.75-2.44,2.6,2.6,0,0,0,2.75,2.44Z"/></g><path class="cls-5" d="M290.68,213.58a2.72,2.72,0,1,1,2.75,2.44A2.61,2.61,0,0,1,290.68,213.58Z"/><g class="cls-3"><path class="cls-4" d="M293.41,215a1.43,1.43,0,1,1,1.53-1.45,1.49,1.49,0,0,1-1.53,1.45m0,1.06a2.49,2.49,0,1,0-2.75-2.44,2.6,2.6,0,0,0,2.75,2.44Z"/></g><path class="cls-5" d="M321.09,193.35a2.72,2.72,0,1,1,2.76,2.44A2.61,2.61,0,0,1,321.09,193.35Z"/><g class="cls-3"><path class="cls-4" d="M323.83,194.72a1.49,1.49,0,0,1-1.58-1.39,1.51,1.51,0,0,1,1.53-1.45,1.43,1.43,0,1,1,.05,2.84m0,1.07a2.5,2.5,0,1,0-2.76-2.44,2.6,2.6,0,0,0,2.76,2.44Z"/></g><path class="cls-5" d="M296.29,253.52a2.72,2.72,0,1,1,2.76,2.43A2.6,2.6,0,0,1,296.29,253.52Z"/><g class="cls-3"><path class="cls-4" d="M299,254.89a1.43,1.43,0,1,1,1.52-1.44,1.48,1.48,0,0,1-1.52,1.44m0,1.06a2.49,2.49,0,1,0-2.76-2.43,2.59,2.59,0,0,0,2.76,2.43Z"/></g><path class="cls-5" d="M246.62,207.68a2.72,2.72,0,1,1,2.76,2.44A2.62,2.62,0,0,1,246.62,207.68Z"/><g class="cls-3"><path class="cls-4" d="M249.36,209.06a1.43,1.43,0,1,1,1.52-1.45,1.49,1.49,0,0,1-1.52,1.45m0,1.06a2.5,2.5,0,1,0-2.76-2.44,2.6,2.6,0,0,0,2.76,2.44Z"/></g><path class="cls-5" d="M227.84,165.54a2.72,2.72,0,1,1,2.75,2.44A2.61,2.61,0,0,1,227.84,165.54Z"/><g class="cls-3"><path class="cls-4" d="M230.57,166.92a1.43,1.43,0,1,1,1.53-1.45,1.49,1.49,0,0,1-1.53,1.45m0,1.06a2.49,2.49,0,1,0-2.75-2.44,2.6,2.6,0,0,0,2.75,2.44Z"/></g><path class="cls-5" d="M202.49,164a2.72,2.72,0,1,1,2.75,2.44A2.6,2.6,0,0,1,202.49,164Z"/><g class="cls-3"><path class="cls-4" d="M205.22,165.35a1.43,1.43,0,1,1,1.53-1.45,1.49,1.49,0,0,1-1.53,1.45m0,1.06a2.49,2.49,0,1,0-2.75-2.44,2.6,2.6,0,0,0,2.75,2.44Z"/></g><path class="cls-5" d="M254.28,112.71a2.72,2.72,0,1,1,2.75,2.44A2.6,2.6,0,0,1,254.28,112.71Z"/><g class="cls-3"><path class="cls-4" d="M257,114.08a1.43,1.43,0,1,1-.05-2.84,1.43,1.43,0,1,1,.05,2.84m0,1.07a2.49,2.49,0,1,0-2.75-2.44,2.62,2.62,0,0,0,2.75,2.44Z"/></g><path class="cls-5" d="M235.63,117.24a2.72,2.72,0,1,1,2.75,2.44A2.6,2.6,0,0,1,235.63,117.24Z"/><g class="cls-3"><path class="cls-4" d="M238.36,118.62a1.43,1.43,0,1,1,1.53-1.45,1.49,1.49,0,0,1-1.53,1.45m0,1.06a2.49,2.49,0,1,0-2.75-2.44,2.6,2.6,0,0,0,2.75,2.44Z"/></g><path class="cls-5" d="M367.46,207.67a2.72,2.72,0,1,1,2.75,2.44A2.6,2.6,0,0,1,367.46,207.67Z"/><g class="cls-3"><path class="cls-4" d="M370.19,209a1.48,1.48,0,0,1-1.57-1.39,1.56,1.56,0,1,1,1.57,1.39m0,1.07a2.49,2.49,0,1,0-2.75-2.44,2.61,2.61,0,0,0,2.75,2.44Z"/></g><path class="cls-5" d="M425.5,217.32a2.72,2.72,0,1,1,2.75,2.44A2.61,2.61,0,0,1,425.5,217.32Z"/><g class="cls-3"><path class="cls-4" d="M428.24,218.7a1.43,1.43,0,1,1,1.52-1.45,1.51,1.51,0,0,1-1.52,1.45m0,1.06a2.49,2.49,0,1,0-2.75-2.44,2.61,2.61,0,0,0,2.75,2.44Z"/></g><path class="cls-5" d="M322.58,140.93a2.72,2.72,0,1,1,2.75,2.43A2.6,2.6,0,0,1,322.58,140.93Z"/><g class="cls-3"><path class="cls-4" d="M325.31,142.3a1.43,1.43,0,1,1,1.53-1.45,1.49,1.49,0,0,1-1.53,1.45m0,1.06a2.49,2.49,0,1,0-2.75-2.43,2.6,2.6,0,0,0,2.75,2.43Z"/></g><path class="cls-5" d="M289.11,97.37a2.72,2.72,0,1,1,2.75,2.44A2.61,2.61,0,0,1,289.11,97.37Z"/><g class="cls-3"><path class="cls-4" d="M291.85,98.75a1.43,1.43,0,1,1-.05-2.84,1.48,1.48,0,0,1,1.57,1.39,1.5,1.5,0,0,1-1.52,1.45m0,1.06a2.49,2.49,0,1,0-2.75-2.44,2.6,2.6,0,0,0,2.75,2.44Z"/></g><path class="cls-5" d="M326.82,69.39a2.72,2.72,0,1,1,2.75,2.44A2.6,2.6,0,0,1,326.82,69.39Z"/><g class="cls-3"><path class="cls-4" d="M329.55,70.76A1.48,1.48,0,0,1,328,69.37a1.56,1.56,0,1,1,1.57,1.39m0,1.07a2.49,2.49,0,1,0-2.75-2.44,2.61,2.61,0,0,0,2.75,2.44Z"/></g><path class="cls-5" d="M450.72,35.83a2.72,2.72,0,1,1,2.75,2.44A2.6,2.6,0,0,1,450.72,35.83Z"/><g class="cls-3"><path class="cls-4" d="M453.45,37.21A1.43,1.43,0,1,1,455,35.76a1.49,1.49,0,0,1-1.52,1.45m0,1.06a2.49,2.49,0,1,0-2.75-2.44,2.6,2.6,0,0,0,2.75,2.44Z"/></g><path class="cls-5" d="M521.36,20.07a2.72,2.72,0,0,1,5.42-.09,2.72,2.72,0,0,1-5.42.09Z"/><g class="cls-3"><path class="cls-4" d="M524.1,21.45A1.43,1.43,0,1,1,525.62,20a1.51,1.51,0,0,1-1.52,1.45m0,1.06A2.61,2.61,0,0,0,526.78,20a2.72,2.72,0,0,0-5.42.09,2.62,2.62,0,0,0,2.75,2.44Z"/></g><path class="cls-5" d="M549.71,71.33a2.72,2.72,0,1,1,2.75,2.44A2.59,2.59,0,0,1,549.71,71.33Z"/><g class="cls-3"><path class="cls-4" d="M552.44,72.71A1.43,1.43,0,1,1,554,71.26a1.49,1.49,0,0,1-1.53,1.45m0,1.06a2.49,2.49,0,1,0-2.75-2.44,2.6,2.6,0,0,0,2.75,2.44Z"/></g><g class="cls-3"><path class="cls-4" d="M790.53,302.17l-7.85,40.76L748.2,319.54Zm-8.67,38.88L789,304l-38.52,15.81Z"/></g><g class="cls-3"><polygon class="cls-4" points="756.17 297.04 789.87 302.54 789.66 303.59 756.98 298.25 749.9 319.81 748.78 319.5 756.17 297.04"/></g><path class="cls-5" d="M779.56,342a2.72,2.72,0,1,1,2.75,2.44A2.6,2.6,0,0,1,779.56,342Z"/><g class="cls-3"><path class="cls-4" d="M782.29,343.41a1.43,1.43,0,1,1,1.53-1.44,1.48,1.48,0,0,1-1.53,1.44m0,1.07a2.49,2.49,0,1,0-2.75-2.44,2.61,2.61,0,0,0,2.75,2.44Z"/></g><path class="cls-5" d="M753.86,297.69a2.72,2.72,0,1,1,2.75,2.44A2.62,2.62,0,0,1,753.86,297.69Z"/><g class="cls-3"><path class="cls-4" d="M756.6,299.07a1.43,1.43,0,1,1-.05-2.84,1.43,1.43,0,1,1,.05,2.84m0,1.06a2.49,2.49,0,1,0-2.75-2.44,2.6,2.6,0,0,0,2.75,2.44Z"/></g><path class="cls-5" d="M787.06,303.11a2.72,2.72,0,1,1,2.75,2.44A2.6,2.6,0,0,1,787.06,303.11Z"/><g class="cls-3"><path class="cls-4" d="M789.79,304.49a1.43,1.43,0,1,1,1.52-1.45,1.49,1.49,0,0,1-1.52,1.45m0,1.06a2.49,2.49,0,1,0-2.75-2.44,2.6,2.6,0,0,0,2.75,2.44Z"/></g><path class="cls-5" d="M746.63,319.7a2.72,2.72,0,1,1,2.75,2.44A2.61,2.61,0,0,1,746.63,319.7Z"/><g class="cls-3"><path class="cls-4" d="M749.36,321.07a1.48,1.48,0,0,1-1.57-1.39,1.56,1.56,0,1,1,1.57,1.39m0,1.07a2.49,2.49,0,1,0-2.75-2.44,2.61,2.61,0,0,0,2.75,2.44Z"/></g><path class="cls-5" d="M320.47,48.1a2.72,2.72,0,1,1,2.75,2.44A2.6,2.6,0,0,1,320.47,48.1Z"/><g class="cls-3"><path class="cls-4" d="M323.2,49.48A1.43,1.43,0,1,1,324.73,48a1.49,1.49,0,0,1-1.53,1.45m0,1.06a2.49,2.49,0,1,0-2.75-2.44,2.6,2.6,0,0,0,2.75,2.44Z"/></g><path class="cls-5" d="M289.08,149.94a2.72,2.72,0,1,1,2.75,2.44A2.6,2.6,0,0,1,289.08,149.94Z"/><g class="cls-3"><path class="cls-4" d="M291.81,151.31a1.43,1.43,0,1,1,1.53-1.44,1.49,1.49,0,0,1-1.53,1.44m0,1.07a2.49,2.49,0,1,0-2.75-2.44,2.61,2.61,0,0,0,2.75,2.44Z"/></g><path class="cls-5" d="M429.9,177.12a2.72,2.72,0,1,1,2.75,2.44A2.61,2.61,0,0,1,429.9,177.12Z"/><g class="cls-3"><path class="cls-4" d="M432.63,178.5a1.43,1.43,0,1,1,1.53-1.45,1.5,1.5,0,0,1-1.53,1.45m0,1.06a2.49,2.49,0,1,0-2.75-2.44,2.61,2.61,0,0,0,2.75,2.44Z"/></g><path class="cls-5" d="M505,145.86a2.72,2.72,0,1,1,2.75,2.44A2.6,2.6,0,0,1,505,145.86Z"/><g class="cls-3"><path class="cls-4" d="M507.73,147.24a1.43,1.43,0,1,1,1.52-1.45,1.49,1.49,0,0,1-1.52,1.45m0,1.06a2.49,2.49,0,1,0-2.75-2.44,2.59,2.59,0,0,0,2.75,2.44Z"/></g><path class="cls-5" d="M504.9,292.94a2.72,2.72,0,1,1,2.75,2.44A2.61,2.61,0,0,1,504.9,292.94Z"/><g class="cls-3"><path class="cls-4" d="M507.63,294.32a1.43,1.43,0,1,1,1.53-1.45,1.49,1.49,0,0,1-1.53,1.45m0,1.06a2.49,2.49,0,1,0-2.75-2.44,2.6,2.6,0,0,0,2.75,2.44Z"/></g><path class="cls-5" d="M514.19,198.61a2.72,2.72,0,1,1,2.75,2.44A2.6,2.6,0,0,1,514.19,198.61Z"/><g class="cls-3"><path class="cls-4" d="M516.92,200a1.43,1.43,0,1,1,1.53-1.44,1.48,1.48,0,0,1-1.53,1.44m0,1.07a2.49,2.49,0,1,0-2.75-2.44,2.61,2.61,0,0,0,2.75,2.44Z"/></g><path class="cls-5" d="M563,242.4a2.72,2.72,0,1,1,2.75,2.44A2.61,2.61,0,0,1,563,242.4Z"/><g class="cls-3"><path class="cls-4" d="M565.76,243.78a1.43,1.43,0,1,1,1.53-1.45,1.49,1.49,0,0,1-1.53,1.45m0,1.06A2.49,2.49,0,1,0,563,242.4a2.6,2.6,0,0,0,2.75,2.44Z"/></g><path class="cls-5" d="M605.63,171.22a2.72,2.72,0,1,1,2.75,2.44A2.59,2.59,0,0,1,605.63,171.22Z"/><g class="cls-3"><path class="cls-4" d="M608.36,172.6a1.43,1.43,0,1,1,1.53-1.45,1.49,1.49,0,0,1-1.53,1.45m0,1.06a2.49,2.49,0,1,0-2.75-2.44,2.6,2.6,0,0,0,2.75,2.44Z"/></g><g class="cls-3"><path class="cls-4" d="M137.89,134l-.7,34-17.06-31.38Zm-1.77,29.68.58-28.42-14.82,2.2Z"/></g><path class="cls-5" d="M134.68,164.14a2.9,2.9,0,0,1,3.83-.13,2.35,2.35,0,0,1,.13,3.52,2.89,2.89,0,0,1-3.83.12A2.34,2.34,0,0,1,134.68,164.14Z"/><g class="cls-3"><path class="cls-4" d="M136.68,167.25a1.6,1.6,0,0,1-1.08-.37,1.34,1.34,0,0,1-.07-2,1.59,1.59,0,0,1,1.1-.46,1.68,1.68,0,0,1,1.09.38,1.35,1.35,0,0,1,.07,2,1.55,1.55,0,0,1-1.11.45m0,1.07a2.85,2.85,0,0,0,1.94-.79,2.35,2.35,0,0,0-.13-3.52,2.89,2.89,0,0,0-1.89-.66,2.84,2.84,0,0,0-1.94.79,2.34,2.34,0,0,0,.13,3.51,2.81,2.81,0,0,0,1.89.67Z"/></g><path class="cls-5" d="M135.32,132.92a2.89,2.89,0,0,1,3.83-.13,2.34,2.34,0,0,1,.13,3.51,2.89,2.89,0,0,1-3.83.13A2.33,2.33,0,0,1,135.32,132.92Z"/><g class="cls-3"><path class="cls-4" d="M137.32,136h0a1.6,1.6,0,0,1-1.08-.38,1.36,1.36,0,0,1-.49-1,1.34,1.34,0,0,1,.41-1,1.65,1.65,0,0,1,1.11-.45,1.59,1.59,0,0,1,1.08.38,1.35,1.35,0,0,1,.08,2,1.65,1.65,0,0,1-1.11.45m0,1.06a2.81,2.81,0,0,0,1.94-.79,2.34,2.34,0,0,0-.13-3.51,2.9,2.9,0,0,0-3.83.13,2.33,2.33,0,0,0,.13,3.51,2.75,2.75,0,0,0,1.89.66Z"/></g><path class="cls-5" d="M119,135.34a2.88,2.88,0,0,1,3.83-.12,2.34,2.34,0,0,1,.13,3.51,2.91,2.91,0,0,1-3.84.13A2.35,2.35,0,0,1,119,135.34Z"/><g class="cls-3"><path class="cls-4" d="M121,138.46a1.66,1.66,0,0,1-1.08-.38,1.35,1.35,0,0,1-.08-2,1.65,1.65,0,0,1,2.19-.07,1.29,1.29,0,0,1,.49,1,1.34,1.34,0,0,1-.41,1,1.62,1.62,0,0,1-1.11.46m0,1.06a2.85,2.85,0,0,0,1.94-.79,2.34,2.34,0,0,0-.13-3.51,2.85,2.85,0,0,0-1.9-.67,2.81,2.81,0,0,0-1.93.79,2.35,2.35,0,0,0,.12,3.52,2.9,2.9,0,0,0,1.9.66Z"/></g><g class="cls-3"><path class="cls-4" d="M645.55,320.5l10.73,13.2L623.05,349Zm9,12.82-9-11-18.78,23.78Z"/></g><path class="cls-5" d="M625.64,345.13a2.47,2.47,0,0,1,1.89,3.06,2.77,2.77,0,0,1-3.34,1.74,2.47,2.47,0,0,1-1.89-3.06A2.77,2.77,0,0,1,625.64,345.13Z"/><g class="cls-3"><path class="cls-4" d="M624.94,349h0a1.65,1.65,0,0,1-.44-.05,1.41,1.41,0,0,1-1.08-1.75,1.55,1.55,0,0,1,1.47-1,1.65,1.65,0,0,1,.44.05,1.41,1.41,0,0,1,1.08,1.74,1.54,1.54,0,0,1-1.47,1.05m0,1.06a2.7,2.7,0,0,0,2.57-1.82,2.47,2.47,0,0,0-1.89-3.06,3.37,3.37,0,0,0-.77-.09,2.7,2.7,0,0,0-2.57,1.83,2.47,2.47,0,0,0,1.89,3.06,2.88,2.88,0,0,0,.77.08Z"/></g><path class="cls-5" d="M656.12,331.11a2.47,2.47,0,0,1,1.89,3.06,2.76,2.76,0,0,1-3.34,1.74,2.46,2.46,0,0,1-1.88-3.06A2.76,2.76,0,0,1,656.12,331.11Z"/><g class="cls-3"><path class="cls-4" d="M655.42,334.93h0a1.7,1.7,0,0,1-.44-.05,1.53,1.53,0,0,1-.93-.67,1.33,1.33,0,0,1-.15-1.08,1.56,1.56,0,0,1,1.47-1,1.61,1.61,0,0,1,.44.05,1.55,1.55,0,0,1,.94.67,1.31,1.31,0,0,1,.14,1.07,1.53,1.53,0,0,1-1.47,1.05m0,1.06a2.7,2.7,0,0,0,2.57-1.82,2.47,2.47,0,0,0-1.89-3.06,3.29,3.29,0,0,0-.76-.09,2.68,2.68,0,0,0-2.57,1.83,2.46,2.46,0,0,0,1.88,3.06,2.92,2.92,0,0,0,.77.08Z"/></g><path class="cls-5" d="M646.27,319a2.45,2.45,0,0,1,1.89,3.05,2.76,2.76,0,0,1-3.33,1.74,2.46,2.46,0,0,1-1.89-3.05A2.74,2.74,0,0,1,646.27,319Z"/><g class="cls-3"><path class="cls-4" d="M645.58,322.82h0a1.3,1.3,0,0,1-.44-.05,1.53,1.53,0,0,1-.94-.66,1.33,1.33,0,0,1-.14-1.08,1.53,1.53,0,0,1,1.47-1,2.1,2.1,0,0,1,.43,0,1.52,1.52,0,0,1,.94.67,1.32,1.32,0,0,1,.14,1.08,1.53,1.53,0,0,1-1.46,1m0,1.07a2.69,2.69,0,0,0,2.57-1.83,2.63,2.63,0,0,0-2.65-3.14,2.7,2.7,0,0,0-2.57,1.83,2.46,2.46,0,0,0,1.89,3.05,3.29,3.29,0,0,0,.76.09Z"/></g><g class="cls-3"><path class="cls-4" d="M728.34,8.32l38.4,69.59L713.86,67.83Zm36.27,68.09-35.85-65L715.25,67Z"/></g><g class="cls-3"><polygon class="cls-4" points="728.89 9.46 778.01 42.51 766.23 77.32 765.12 77 776.66 42.92 728.21 10.32 728.89 9.46"/></g><path class="cls-5" d="M731.94,9.83a3.4,3.4,0,0,0-6.78.11,3.4,3.4,0,0,0,6.78-.11Z"/><g class="cls-3"><path class="cls-4" d="M728.58,11.93a2.14,2.14,0,0,1-2.26-2,2.24,2.24,0,0,1,4.46-.07,2.15,2.15,0,0,1-2.2,2.08m0,1.07a3.26,3.26,0,0,0,3.34-3.17,3.4,3.4,0,0,0-6.78.11A3.26,3.26,0,0,0,728.6,13Z"/></g><path class="cls-5" d="M780.73,42.66a3.41,3.41,0,1,0-3.35,3.16A3.27,3.27,0,0,0,780.73,42.66Z"/><g class="cls-3"><path class="cls-4" d="M777.37,44.76a2.05,2.05,0,1,1,2.2-2.09,2.15,2.15,0,0,1-2.2,2.09m0,1.06a3.12,3.12,0,1,0-3.44-3,3.27,3.27,0,0,0,3.44,3Z"/></g><path class="cls-5" d="M769.07,77.1a3.41,3.41,0,1,0-3.34,3.17A3.27,3.27,0,0,0,769.07,77.1Z"/><g class="cls-3"><path class="cls-4" d="M765.71,79.21a2.06,2.06,0,1,1,2.2-2.09,2.15,2.15,0,0,1-2.2,2.09m0,1.06a3.12,3.12,0,1,0-3.45-3,3.26,3.26,0,0,0,3.45,3Z"/></g><path class="cls-5" d="M718,67.36a3.41,3.41,0,1,0-3.34,3.17A3.26,3.26,0,0,0,718,67.36Z"/><g class="cls-3"><path class="cls-4" d="M714.59,69.46a2.05,2.05,0,1,1,2.2-2.08,2.14,2.14,0,0,1-2.2,2.08m0,1.07a3.12,3.12,0,1,0-3.45-3.06,3.26,3.26,0,0,0,3.45,3.06Z"/></g></g></g></g></svg>