<svg xmlns="http://www.w3.org/2000/svg" viewBox="0 0 800 450"><defs><style>.cls-1{isolation:isolate;}.cls-2{mix-blend-mode:exclusion;}.cls-3{mix-blend-mode:screen;}.cls-4{fill:#141b56;}.cls-5{fill:#293a99;}</style></defs><title>pic_network</title><g class="cls-1"><g id="圖層_1" data-name="圖層 1"><g class="cls-2"><g class="cls-3"><path class="cls-4" d="M393.87,329.45l-.16,0-202.48-50.5L218.35,118l50-47.49,65-27.67.18,0L542,77.25l.14.2L609.07,178l-39,106.6-.29.08ZM192.54,278.13l201.33,50.22,175.35-44.58,38.58-105.6-66.51-100L333.5,43.93,268.92,71.42l-49.48,47.06Z"/></g><g class="cls-3"><polygon class="cls-4" points="508.65 406.45 359.69 385.66 359.55 385.42 337.18 345.33 338.21 344.84 360.45 384.69 508.83 405.4 508.65 406.45"/></g><g class="cls-3"><path class="cls-4" d="M509,406.74l-58.69-39.35.05.23-90.27,18.1-.13,0L249.3,360.28l-.12-.18-59-82.93,147.52,67.35L394,328.31l.24.16,114.3,76.64L569,284.35l-166-127.47,206.15,20.75L595.54,286.34,570,284.76ZM250,359.34l110,25.29,89.23-17.89-55.55-37.25-56.11,16.17-.21-.1-143.9-65.69ZM569.9,283.69l24.61,1.52,13.28-106.64L406.62,158.32Z"/></g><g class="cls-3"><path class="cls-4" d="M430.11,243.15,395.59,193l60.5,3.28Zm-32.33-49L430,241l24.25-43.79Z"/></g><g class="cls-3"><path class="cls-4" d="M203.93,78.09,190.69,30.58,233,21.06ZM192.11,31.36,204.26,75l26.65-52.33Z"/></g><g class="cls-3"><path class="cls-4" d="M275.84,430.29,246.6,377.41,348.72,414ZM249,379.42l27.45,49.64,68.41-15.26Z"/></g><g class="cls-3"><path class="cls-4" d="M581.84,413.6l-58.28-6.21,77.74-67.95Zm-55.69-7,54.8,5.84,18.31-69.73Z"/></g><g class="cls-3"><polygon class="cls-4" points="581.85 413.34 580.93 412.69 602.09 387.62 599.7 341.1 600.86 341.04 603.27 387.96 581.85 413.34"/></g><g class="cls-3"><path class="cls-4" d="M176,271.61,138.24,172.4l64.35-39.77Zm-36.37-98.79,36,94.58L201,134.91Z"/></g><g class="cls-3"><polygon class="cls-4" points="175.5 269.95 141.27 249.97 141.26 249.69 138.36 172.63 139.52 172.59 142.41 249.37 176.13 269.05 175.5 269.95"/></g><g class="cls-3"><path class="cls-4" d="M629.51,237,600.2,131.29,646.28,163ZM602.14,134l27.25,98.31L645,163.45Z"/></g><g class="cls-3"><path class="cls-4" d="M609.87,80,479.63,52.29,595.19,41.62ZM486.71,52.71,608.07,78.53,594.39,42.77Z"/></g><g class="cls-3"><polygon class="cls-4" points="609.4 79.63 608.54 78.91 633.02 54.23 594.61 42.7 594.97 41.69 635.09 53.73 609.4 79.63"/></g><g class="cls-3"><path class="cls-4" d="M184.94,408.52l7.85-40.76,34.48,23.39Zm8.66-38.88-7.14,37.09L225,390.93Z"/></g><g class="cls-3"><polygon class="cls-4" points="219.3 413.66 185.6 408.15 185.81 407.11 218.49 412.44 225.57 390.89 226.68 391.19 219.3 413.66"/></g><g class="cls-3"><polygon class="cls-4" points="204.45 76.94 203.74 76.11 241.49 48.85 231.4 22.01 232.5 21.66 242.85 49.21 204.45 76.94"/></g><g class="cls-3"><path class="cls-4" d="M394.13,329.76,283,251.56l-49.33-44.22,58.05-50.47-1-.61h1.68l.1-.08.24.08,112.77.8-8.37,37.2L297.15,159l133.61,82.89-.16.4ZM235.32,207.35l48.41,43.41L393.6,328l35.75-85.76-136.68-84.8Zm60.48-50,100.46,35.47,7.81-34.7Z"/></g><g class="cls-3"><path class="cls-4" d="M190.67,279.44l43.21-72.19-15.75-90L292.28,156l41-114L405,156.85,542.66,76.51l-21.23,64.38L405,158.11l-.42.24-71-113.68L293.18,156.91l-9.31,94.63-.37.11Zm29-160.2,15.42,88.2-42,70.16,89.68-26.86L292,157.1ZM540.65,79,407.46,156.66,520.53,140Z"/></g><g class="cls-3"><polygon class="cls-4" points="367.39 273.33 367.11 272.9 292.11 157.08 293.11 156.53 367.83 271.92 429.78 241.61 430.32 242.55 367.39 273.33"/></g><g class="cls-3"><polygon class="cls-4" points="393.33 329.11 367.08 272.84 368.14 272.42 394.4 328.69 393.33 329.11"/></g><g class="cls-3"><polygon class="cls-4" points="436.99 99.59 436.8 99.49 333.13 43.83 333.72 42.91 437.19 98.46 541.53 77.21 541.78 78.25 436.99 99.59"/></g><g class="cls-3"><polygon class="cls-4" points="405.29 157.84 404.26 157.36 436.57 98.79 437.61 99.27 405.29 157.84"/></g><g class="cls-3"><polygon class="cls-4" points="396.31 193.96 361.74 167.15 404.63 157.08 404.92 158.11 364.21 167.67 397.06 193.14 396.31 193.96"/></g><g class="cls-3"><polygon class="cls-4" points="362.88 167.94 292.52 157.33 292.71 156.28 363.07 166.89 362.88 167.94"/></g><g class="cls-3"><polygon class="cls-4" points="367.21 273.01 317.99 229.69 283.65 251.58 282.99 250.71 318.11 228.32 318.45 228.63 368.01 272.24 367.21 273.01"/></g><g class="cls-3"><polygon class="cls-4" points="317.5 229.18 292.06 156.97 293.17 156.64 318.6 228.84 317.5 229.18"/></g><g class="cls-3"><polygon class="cls-4" points="188.51 203.82 138.61 173.06 139.26 172.17 189.16 202.93 188.51 203.82"/></g><g class="cls-3"><polygon class="cls-4" points="508.17 407.69 507.85 299.81 509.01 299.81 509.31 404.16 594.54 285.48 595.51 286.07 508.17 407.69"/></g><line class="cls-5" x1="430.09" y1="244.56" x2="474.93" y2="308.82"/><g class="cls-3"><polygon class="cls-4" points="474.44 309.11 429.61 244.85 430.58 244.28 475.42 308.53 474.44 309.11"/></g><g class="cls-3"><path class="cls-4" d="M551.19,243,471,184.63l96.85,8.28ZM474.78,186l75.8,55.14,15.74-47.31Z"/></g><g class="cls-3"><path class="cls-4" d="M543.69,227.81l-44.37-32.27,53.59,4.58Zm-40.58-30.88,40,29.08,8.3-24.95Z"/></g><g class="cls-3"><polygon class="cls-4" points="567.3 193.87 566.87 192.89 606.98 178.07 520.74 140.9 521.23 139.94 609.89 178.14 567.3 193.87"/></g><g class="cls-3"><polygon class="cls-4" points="570.69 285.07 429.87 242.58 430.24 241.57 568.66 283.34 550.35 242.27 551.42 241.86 570.69 285.07"/></g><g class="cls-3"><polygon class="cls-4" points="472.65 185.81 404.54 158.09 405.01 157.11 473.13 184.84 472.65 185.81"/></g><g class="cls-3"><polygon class="cls-4" points="552.41 201.06 551.88 200.12 566.81 192.91 567.35 193.85 552.41 201.06"/></g><g class="cls-3"><polygon class="cls-4" points="550.36 242.29 542.86 227.13 543.92 226.69 551.41 241.85 550.36 242.29"/></g><g class="cls-3"><polygon class="cls-4" points="500.99 196.72 472.66 185.81 473.11 184.83 501.44 195.74 500.99 196.72"/></g><g class="cls-3"><polygon class="cls-4" points="292.97 157.22 292.26 156.38 369.13 101.47 369.84 102.31 292.97 157.22"/></g><g class="cls-3"><polygon class="cls-4" points="291.94 303.97 282.75 251.23 283.89 251.06 293.09 303.8 291.94 303.97"/></g><g class="cls-3"><polygon class="cls-4" points="476.82 401.63 469.5 380.04 507.42 352.11 474.46 309.13 475.41 308.51 509 352.31 470.84 380.42 477.93 401.31 476.82 401.63"/></g><g class="cls-3"><polygon class="cls-4" points="250.03 360.22 249.3 359.4 294.69 325.48 295.42 326.31 250.03 360.22"/></g><g class="cls-3"><polygon class="cls-4" points="562.46 332.58 561.31 332.43 569.1 284.13 570.25 284.28 562.46 332.58"/></g><g class="cls-3"><polygon class="cls-4" points="542.79 337.39 507.99 300.16 508.87 299.46 543.67 336.69 542.79 337.39"/></g><g class="cls-3"><polygon class="cls-4" points="436.52 99.12 429.36 59.77 430.5 59.59 437.66 98.94 436.52 99.12"/></g><g class="cls-3"><polygon class="cls-4" points="645.13 163.5 625.25 132.02 601.2 133.16 601.14 132.09 625.9 130.93 646.13 162.96 645.13 163.5"/></g><g class="cls-3"><polygon class="cls-4" points="368.19 272.68 367.03 272.57 371.49 231.8 430.16 241.56 429.95 242.6 372.52 233.05 368.19 272.68"/></g><g class="cls-3"><polygon class="cls-4" points="371.51 232.7 342.46 188.16 343.46 187.62 372.51 232.15 371.51 232.7"/></g><g class="cls-3"><polygon class="cls-4" points="367.45 273.14 283.17 251.65 283.48 250.63 367.77 272.11 367.45 273.14"/></g><g class="cls-3"><polygon class="cls-4" points="475.51 308.83 474.35 308.81 475.85 256.12 506.49 235.73 507.17 236.59 476.99 256.67 475.51 308.83"/></g><g class="cls-3"><path class="cls-4" d="M186.11,341.7l.7-34,17.06,31.38ZM187.88,312l-.58,28.41,14.82-2.2Z"/></g><g class="cls-3"><polygon class="cls-4" points="309.15 110.79 268.16 71.34 269 70.61 309.99 110.06 309.15 110.79"/></g><g class="cls-3"><polygon class="cls-4" points="337.29 345.46 292.11 304.26 292.93 303.51 338.11 344.71 337.29 345.46"/></g><g class="cls-3"><path class="cls-4" d="M393.87,329.45l-.16,0-202.48-50.5L218.35,118l50-47.49,65-27.67.18,0L542,77.25l.14.2L609.07,178l-39,106.6-.29.08ZM192.54,278.13l201.33,50.22,175.35-44.58,38.58-105.6-66.51-100L333.5,43.93,268.92,71.42l-49.48,47.06Z"/></g><g class="cls-3"><polygon class="cls-4" points="508.65 406.45 359.69 385.66 359.55 385.42 337.18 345.33 338.21 344.84 360.45 384.69 508.83 405.4 508.65 406.45"/></g><g class="cls-3"><path class="cls-4" d="M509,406.74l-58.69-39.35.05.23-90.27,18.1-.13,0L249.3,360.28l-.12-.18-59-82.93,147.52,67.35L394,328.31l.24.16,114.3,76.64L569,284.35l-166-127.47,206.15,20.75L595.54,286.34,570,284.76ZM250,359.34l110,25.29,89.23-17.89-55.55-37.25-56.11,16.17-.21-.1-143.9-65.69ZM569.9,283.69l24.61,1.52,13.28-106.64L406.62,158.32Z"/></g><g class="cls-3"><path class="cls-4" d="M430.11,243.15,395.59,193l60.5,3.28Zm-32.33-49L430,241l24.25-43.79Z"/></g><g class="cls-3"><path class="cls-4" d="M275.84,430.29,246.6,377.41,348.72,414ZM249,379.42l27.45,49.64,68.41-15.26Z"/></g><g class="cls-3"><path class="cls-4" d="M581.84,413.6l-58.28-6.21,77.74-67.95Zm-55.69-7,54.8,5.84,18.31-69.73Z"/></g><g class="cls-3"><polygon class="cls-4" points="581.85 413.34 580.93 412.69 602.09 387.62 599.7 341.1 600.86 341.04 603.27 387.96 581.85 413.34"/></g><g class="cls-3"><path class="cls-4" d="M176,271.61,138.24,172.4l64.35-39.77Zm-36.37-98.79,36,94.58L201,134.91Z"/></g><g class="cls-3"><polygon class="cls-4" points="175.5 269.95 141.27 249.97 141.26 249.69 138.36 172.63 139.52 172.59 142.41 249.37 176.13 269.05 175.5 269.95"/></g><g class="cls-3"><path class="cls-4" d="M394.13,329.76,283,251.56l-49.33-44.22,58.05-50.47-1-.61h1.68l.1-.08.24.08,112.77.8-8.37,37.2L297.15,159l133.61,82.89-.16.4ZM235.32,207.35l48.41,43.41L393.6,328l35.75-85.76-136.68-84.8Zm60.48-50,100.46,35.47,7.81-34.7Z"/></g><g class="cls-3"><path class="cls-4" d="M190.67,279.44l43.21-72.19-15.75-90L292.28,156l41-114L405,156.85,542.66,76.51l-21.23,64.38L405,158.11l-.42.24-71-113.68L293.18,156.91l-9.31,94.63-.37.11Zm29-160.2,15.42,88.2-42,70.16,89.68-26.86L292,157.1ZM540.65,79,407.46,156.66,520.53,140Z"/></g><g class="cls-3"><polygon class="cls-4" points="367.39 273.33 367.11 272.9 292.11 157.08 293.11 156.53 367.83 271.92 429.78 241.61 430.32 242.55 367.39 273.33"/></g><g class="cls-3"><polygon class="cls-4" points="393.33 329.11 367.08 272.84 368.14 272.42 394.4 328.69 393.33 329.11"/></g><g class="cls-3"><polygon class="cls-4" points="436.99 99.59 436.8 99.49 333.13 43.83 333.72 42.91 437.19 98.46 541.53 77.21 541.78 78.25 436.99 99.59"/></g><g class="cls-3"><polygon class="cls-4" points="405.29 157.84 404.26 157.36 436.57 98.79 437.61 99.27 405.29 157.84"/></g><g class="cls-3"><polygon class="cls-4" points="396.31 193.96 361.74 167.15 404.63 157.08 404.92 158.11 364.21 167.67 397.06 193.14 396.31 193.96"/></g><g class="cls-3"><polygon class="cls-4" points="362.88 167.94 292.52 157.33 292.71 156.28 363.07 166.89 362.88 167.94"/></g><g class="cls-3"><polygon class="cls-4" points="367.21 273.01 317.99 229.69 283.65 251.58 282.99 250.71 318.11 228.32 318.45 228.63 368.01 272.24 367.21 273.01"/></g><g class="cls-3"><polygon class="cls-4" points="317.5 229.18 292.06 156.97 293.17 156.64 318.6 228.84 317.5 229.18"/></g><g class="cls-3"><polygon class="cls-4" points="188.51 203.82 138.61 173.06 139.26 172.17 189.16 202.93 188.51 203.82"/></g><g class="cls-3"><polygon class="cls-4" points="508.17 407.69 507.85 299.81 509.01 299.81 509.31 404.16 594.54 285.48 595.51 286.07 508.17 407.69"/></g><line class="cls-5" x1="430.09" y1="244.56" x2="474.93" y2="308.82"/><g class="cls-3"><polygon class="cls-4" points="474.44 309.11 429.61 244.85 430.58 244.28 475.42 308.53 474.44 309.11"/></g><g class="cls-3"><path class="cls-4" d="M551.19,243,471,184.63l96.85,8.28ZM474.78,186l75.8,55.14,15.74-47.31Z"/></g><g class="cls-3"><path class="cls-4" d="M543.69,227.81l-44.37-32.27,53.59,4.58Zm-40.58-30.88,40,29.08,8.3-24.95Z"/></g><g class="cls-3"><polygon class="cls-4" points="567.3 193.87 566.87 192.89 606.98 178.07 520.74 140.9 521.23 139.94 609.89 178.14 567.3 193.87"/></g><g class="cls-3"><polygon class="cls-4" points="570.69 285.07 429.87 242.58 430.24 241.57 568.66 283.34 550.35 242.27 551.42 241.86 570.69 285.07"/></g><g class="cls-3"><polygon class="cls-4" points="472.65 185.81 404.54 158.09 405.01 157.11 473.13 184.84 472.65 185.81"/></g><g class="cls-3"><polygon class="cls-4" points="552.41 201.06 551.88 200.12 566.81 192.91 567.35 193.85 552.41 201.06"/></g><g class="cls-3"><polygon class="cls-4" points="550.36 242.29 542.86 227.13 543.92 226.69 551.41 241.85 550.36 242.29"/></g><g class="cls-3"><polygon class="cls-4" points="500.99 196.72 472.66 185.81 473.11 184.83 501.44 195.74 500.99 196.72"/></g><g class="cls-3"><polygon class="cls-4" points="292.97 157.22 292.26 156.38 369.13 101.47 369.84 102.31 292.97 157.22"/></g><g class="cls-3"><polygon class="cls-4" points="291.94 303.97 282.75 251.23 283.89 251.06 293.09 303.8 291.94 303.97"/></g><g class="cls-3"><polygon class="cls-4" points="476.82 401.63 469.5 380.04 507.42 352.11 474.46 309.13 475.41 308.51 509 352.31 470.84 380.42 477.93 401.31 476.82 401.63"/></g><g class="cls-3"><polygon class="cls-4" points="250.03 360.22 249.3 359.4 294.69 325.48 295.42 326.31 250.03 360.22"/></g><g class="cls-3"><polygon class="cls-4" points="562.46 332.58 561.31 332.43 569.1 284.13 570.25 284.28 562.46 332.58"/></g><g class="cls-3"><polygon class="cls-4" points="542.79 337.39 507.99 300.16 508.87 299.46 543.67 336.69 542.79 337.39"/></g><g class="cls-3"><polygon class="cls-4" points="436.52 99.12 429.36 59.77 430.5 59.59 437.66 98.94 436.52 99.12"/></g><g class="cls-3"><polygon class="cls-4" points="368.19 272.68 367.03 272.57 371.49 231.8 430.16 241.56 429.95 242.6 372.52 233.05 368.19 272.68"/></g><g class="cls-3"><polygon class="cls-4" points="371.51 232.7 342.46 188.16 343.46 187.62 372.51 232.15 371.51 232.7"/></g><g class="cls-3"><polygon class="cls-4" points="367.45 273.14 283.17 251.65 283.48 250.63 367.77 272.11 367.45 273.14"/></g><g class="cls-3"><polygon class="cls-4" points="475.51 308.83 474.35 308.81 475.85 256.12 506.49 235.73 507.17 236.59 476.99 256.67 475.51 308.83"/></g><g class="cls-3"><polygon class="cls-4" points="309.15 110.79 268.16 71.34 269 70.61 309.99 110.06 309.15 110.79"/></g><g class="cls-3"><polygon class="cls-4" points="337.29 345.46 292.11 304.26 292.93 303.51 338.11 344.71 337.29 345.46"/></g><path class="cls-5" d="M206.8,76.48A2.72,2.72,0,1,1,204.05,74,2.6,2.6,0,0,1,206.8,76.48Z"/><g class="cls-3"><path class="cls-4" d="M204.07,75.1a1.43,1.43,0,1,1-1.52,1.45,1.49,1.49,0,0,1,1.52-1.45m0-1.06a2.49,2.49,0,1,0,2.75,2.44A2.6,2.6,0,0,0,204.05,74Z"/></g><path class="cls-5" d="M204.5,133.72a2.72,2.72,0,1,1-2.75-2.44A2.61,2.61,0,0,1,204.5,133.72Z"/><g class="cls-3"><path class="cls-4" d="M201.76,132.35a1.49,1.49,0,0,1,1.58,1.39,1.51,1.51,0,0,1-1.53,1.45,1.43,1.43,0,1,1-.05-2.84m0-1.07a2.49,2.49,0,1,0,2.75,2.44,2.6,2.6,0,0,0-2.75-2.44Z"/></g><path class="cls-5" d="M191.54,203.33a2.72,2.72,0,1,1-2.75-2.44A2.61,2.61,0,0,1,191.54,203.33Z"/><g class="cls-3"><path class="cls-4" d="M188.81,202a1.48,1.48,0,0,1,1.57,1.39,1.56,1.56,0,1,1-1.57-1.39m0-1.07a2.49,2.49,0,1,0,2.75,2.44,2.61,2.61,0,0,0-2.75-2.44Z"/></g><path class="cls-5" d="M141.65,172.57a2.72,2.72,0,1,1-2.75-2.44A2.61,2.61,0,0,1,141.65,172.57Z"/><g class="cls-3"><path class="cls-4" d="M138.91,171.19A1.43,1.43,0,1,1,139,174a1.48,1.48,0,0,1-1.57-1.39,1.5,1.5,0,0,1,1.52-1.45m0-1.06a2.49,2.49,0,1,0,2.75,2.44,2.6,2.6,0,0,0-2.75-2.44Z"/></g><path class="cls-5" d="M178.53,269.46a2.72,2.72,0,1,1-2.75-2.44A2.62,2.62,0,0,1,178.53,269.46Z"/><g class="cls-3"><path class="cls-4" d="M175.79,268.08a1.43,1.43,0,1,1,.05,2.84,1.43,1.43,0,1,1-.05-2.84m0-1.06a2.49,2.49,0,1,0,2.75,2.44,2.6,2.6,0,0,0-2.75-2.44Z"/></g><path class="cls-5" d="M144.55,249.63a2.72,2.72,0,1,1-2.75-2.44A2.6,2.6,0,0,1,144.55,249.63Z"/><g class="cls-3"><path class="cls-4" d="M141.82,248.25a1.43,1.43,0,1,1-1.53,1.45,1.49,1.49,0,0,1,1.53-1.45m0-1.06a2.49,2.49,0,1,0,2.75,2.44,2.6,2.6,0,0,0-2.75-2.44Z"/></g><path class="cls-5" d="M244.88,49a2.72,2.72,0,1,1-2.75-2.43A2.6,2.6,0,0,1,244.88,49Z"/><g class="cls-3"><path class="cls-4" d="M242.15,47.61a1.43,1.43,0,1,1-1.53,1.45,1.49,1.49,0,0,1,1.53-1.45m0-1.06A2.49,2.49,0,1,0,244.88,49a2.6,2.6,0,0,0-2.75-2.43Z"/></g><path class="cls-5" d="M336.13,43.33a2.72,2.72,0,1,1-2.75-2.44A2.6,2.6,0,0,1,336.13,43.33Z"/><g class="cls-3"><path class="cls-4" d="M333.4,42a1.43,1.43,0,1,1-1.53,1.45A1.51,1.51,0,0,1,333.4,42m0-1.06a2.49,2.49,0,1,0,2.75,2.44,2.61,2.61,0,0,0-2.75-2.44Z"/></g><path class="cls-5" d="M271.29,70.93a2.72,2.72,0,1,1-2.75-2.44A2.6,2.6,0,0,1,271.29,70.93Z"/><g class="cls-3"><path class="cls-4" d="M268.56,69.56A1.48,1.48,0,0,1,270.13,71a1.56,1.56,0,1,1-1.57-1.39m0-1.07a2.49,2.49,0,1,0,2.75,2.44,2.61,2.61,0,0,0-2.75-2.44Z"/></g><path class="cls-5" d="M312.28,110.38a2.72,2.72,0,1,1-2.75-2.44A2.61,2.61,0,0,1,312.28,110.38Z"/><g class="cls-3"><path class="cls-4" d="M309.55,109a1.48,1.48,0,0,1,1.57,1.39,1.56,1.56,0,1,1-1.57-1.39m0-1.07a2.49,2.49,0,1,0,2.75,2.44,2.61,2.61,0,0,0-2.75-2.44Z"/></g><path class="cls-5" d="M221.6,118.18a2.72,2.72,0,1,1-2.75-2.44A2.59,2.59,0,0,1,221.6,118.18Z"/><g class="cls-3"><path class="cls-4" d="M218.87,116.81a1.43,1.43,0,1,1-1.52,1.44,1.48,1.48,0,0,1,1.52-1.44m0-1.07a2.49,2.49,0,1,0,2.75,2.44,2.6,2.6,0,0,0-2.75-2.44Z"/></g><path class="cls-5" d="M407.49,157.55a2.72,2.72,0,1,1-2.75-2.44A2.6,2.6,0,0,1,407.49,157.55Z"/><g class="cls-3"><path class="cls-4" d="M404.75,156.18a1.43,1.43,0,1,1-1.52,1.44,1.49,1.49,0,0,1,1.52-1.44m0-1.07a2.49,2.49,0,1,0,2.75,2.44,2.6,2.6,0,0,0-2.75-2.44Z"/></g><path class="cls-5" d="M432.64,59.64a2.72,2.72,0,1,1-2.75-2.44A2.62,2.62,0,0,1,432.64,59.64Z"/><g class="cls-3"><path class="cls-4" d="M429.9,58.26A1.43,1.43,0,1,1,430,61.1a1.43,1.43,0,1,1-.05-2.84m0-1.06a2.49,2.49,0,1,0,2.75,2.44,2.6,2.6,0,0,0-2.75-2.44Z"/></g><path class="cls-5" d="M439.8,99a2.72,2.72,0,1,1-2.75-2.44A2.6,2.6,0,0,1,439.8,99Z"/><g class="cls-3"><path class="cls-4" d="M437.07,97.61a1.43,1.43,0,1,1-1.53,1.44,1.48,1.48,0,0,1,1.53-1.44m0-1.07A2.49,2.49,0,1,0,439.8,99a2.61,2.61,0,0,0-2.75-2.44Z"/></g><path class="cls-5" d="M544.36,77.69a2.72,2.72,0,1,1-2.75-2.44A2.59,2.59,0,0,1,544.36,77.69Z"/><g class="cls-3"><path class="cls-4" d="M541.63,76.31a1.43,1.43,0,1,1-1.53,1.45,1.49,1.49,0,0,1,1.53-1.45m0-1.06a2.49,2.49,0,1,0,2.75,2.44,2.6,2.6,0,0,0-2.75-2.44Z"/></g><path class="cls-5" d="M597.5,42.15a2.72,2.72,0,1,1-2.75-2.44A2.61,2.61,0,0,1,597.5,42.15Z"/><g class="cls-3"><path class="cls-4" d="M594.76,40.77a1.51,1.51,0,0,1,1.58,1.4,1.56,1.56,0,1,1-1.58-1.4m0-1.06a2.49,2.49,0,1,0,2.75,2.44,2.61,2.61,0,0,0-2.75-2.44Z"/></g><path class="cls-5" d="M611.68,79.22a2.72,2.72,0,1,1-2.75-2.44A2.6,2.6,0,0,1,611.68,79.22Z"/><g class="cls-3"><path class="cls-4" d="M609,77.85a1.43,1.43,0,1,1-1.53,1.44A1.48,1.48,0,0,1,609,77.85m0-1.07a2.49,2.49,0,1,0,2.75,2.44,2.61,2.61,0,0,0-2.75-2.44Z"/></g><path class="cls-5" d="M636.77,53.94A2.72,2.72,0,1,1,634,51.5,2.6,2.6,0,0,1,636.77,53.94Z"/><g class="cls-3"><path class="cls-4" d="M634,52.56A1.43,1.43,0,1,1,632.51,54,1.48,1.48,0,0,1,634,52.56m0-1.06a2.49,2.49,0,1,0,2.76,2.44A2.59,2.59,0,0,0,634,51.5Z"/></g><path class="cls-5" d="M485.88,52.45A2.72,2.72,0,1,1,483.13,50,2.6,2.6,0,0,1,485.88,52.45Z"/><g class="cls-3"><path class="cls-4" d="M483.15,51.08a1.43,1.43,0,1,1-1.53,1.45,1.49,1.49,0,0,1,1.53-1.45m0-1.06a2.49,2.49,0,1,0,2.75,2.43A2.6,2.6,0,0,0,483.13,50Z"/></g><path class="cls-5" d="M523.69,140.37a2.72,2.72,0,1,1-2.75-2.43A2.59,2.59,0,0,1,523.69,140.37Z"/><g class="cls-3"><path class="cls-4" d="M521,139a1.43,1.43,0,1,1-1.52,1.44A1.48,1.48,0,0,1,521,139m0-1.06a2.49,2.49,0,1,0,2.75,2.43,2.6,2.6,0,0,0-2.75-2.43Z"/></g><path class="cls-5" d="M372.2,101.84a2.72,2.72,0,1,1-2.76-2.44A2.6,2.6,0,0,1,372.2,101.84Z"/><g class="cls-3"><path class="cls-4" d="M369.46,100.47a1.43,1.43,0,1,1-1.52,1.44,1.48,1.48,0,0,1,1.52-1.44m0-1.07a2.5,2.5,0,1,0,2.76,2.44,2.6,2.6,0,0,0-2.76-2.44Z"/></g><path class="cls-5" d="M396.58,328.86a2.72,2.72,0,0,1-5.42.09,2.72,2.72,0,0,1,5.42-.09Z"/><g class="cls-3"><path class="cls-4" d="M393.84,327.48a1.43,1.43,0,1,1,.05,2.84,1.43,1.43,0,1,1-.05-2.84m0-1.06a2.49,2.49,0,1,0,.09,5,2.5,2.5,0,1,0-.09-5Z"/></g><path class="cls-5" d="M340.41,345a2.72,2.72,0,1,1-2.75-2.44A2.61,2.61,0,0,1,340.41,345Z"/><g class="cls-3"><path class="cls-4" d="M337.67,343.67a1.49,1.49,0,0,1,1.58,1.39,1.51,1.51,0,0,1-1.53,1.45,1.43,1.43,0,1,1-.05-2.84m0-1.07a2.49,2.49,0,1,0,2.75,2.44,2.6,2.6,0,0,0-2.75-2.44Z"/></g><path class="cls-5" d="M297.76,325.85a2.72,2.72,0,1,1-2.75-2.44A2.61,2.61,0,0,1,297.76,325.85Z"/><g class="cls-3"><path class="cls-4" d="M295,324.48a1.48,1.48,0,0,1,1.57,1.39,1.56,1.56,0,1,1-1.57-1.39m0-1.07a2.49,2.49,0,1,0,2.75,2.44,2.61,2.61,0,0,0-2.75-2.44Z"/></g><path class="cls-5" d="M252.38,359.77a2.72,2.72,0,1,1-2.75-2.44A2.6,2.6,0,0,1,252.38,359.77Z"/><g class="cls-3"><path class="cls-4" d="M249.64,358.39a1.43,1.43,0,1,1-1.52,1.45,1.48,1.48,0,0,1,1.52-1.45m0-1.06a2.49,2.49,0,1,0,2.75,2.44,2.59,2.59,0,0,0-2.75-2.44Z"/></g><path class="cls-5" d="M452.92,367.06a2.72,2.72,0,1,1-2.75-2.44A2.61,2.61,0,0,1,452.92,367.06Z"/><g class="cls-3"><path class="cls-4" d="M450.19,365.68a1.43,1.43,0,1,1-1.53,1.45,1.49,1.49,0,0,1,1.53-1.45m0-1.06a2.49,2.49,0,1,0,2.75,2.44,2.6,2.6,0,0,0-2.75-2.44Z"/></g><path class="cls-5" d="M511.45,405.88a2.72,2.72,0,1,1-2.75-2.44A2.6,2.6,0,0,1,511.45,405.88Z"/><g class="cls-3"><path class="cls-4" d="M508.72,404.51a1.43,1.43,0,1,1-1.53,1.44,1.48,1.48,0,0,1,1.53-1.44m0-1.07a2.49,2.49,0,1,0,2.75,2.44,2.61,2.61,0,0,0-2.75-2.44Z"/></g><path class="cls-5" d="M527.57,406.94a2.72,2.72,0,1,1-2.75-2.44A2.61,2.61,0,0,1,527.57,406.94Z"/><g class="cls-3"><path class="cls-4" d="M524.83,405.57a1.49,1.49,0,0,1,1.58,1.39,1.51,1.51,0,0,1-1.53,1.45,1.43,1.43,0,1,1,0-2.84m0-1.07a2.49,2.49,0,1,0,2.75,2.44,2.6,2.6,0,0,0-2.75-2.44Z"/></g><path class="cls-5" d="M603,341a2.72,2.72,0,1,1-2.75-2.43A2.6,2.6,0,0,1,603,341Z"/><g class="cls-3"><path class="cls-4" d="M600.26,339.65a1.43,1.43,0,1,1-1.53,1.45,1.49,1.49,0,0,1,1.53-1.45m0-1.06A2.49,2.49,0,1,0,603,341a2.6,2.6,0,0,0-2.75-2.43Z"/></g><path class="cls-5" d="M605.39,387.75a2.72,2.72,0,1,1-2.75-2.44A2.6,2.6,0,0,1,605.39,387.75Z"/><g class="cls-3"><path class="cls-4" d="M602.66,386.37a1.43,1.43,0,1,1-1.53,1.45,1.49,1.49,0,0,1,1.53-1.45m0-1.06a2.49,2.49,0,1,0,2.75,2.44,2.6,2.6,0,0,0-2.75-2.44Z"/></g><path class="cls-5" d="M584.1,413a2.72,2.72,0,1,1-2.75-2.44A2.6,2.6,0,0,1,584.1,413Z"/><g class="cls-3"><path class="cls-4" d="M581.37,411.59a1.43,1.43,0,1,1-1.53,1.45,1.5,1.5,0,0,1,1.53-1.45m0-1.06A2.49,2.49,0,1,0,584.1,413a2.62,2.62,0,0,0-2.75-2.44Z"/></g><path class="cls-5" d="M362.78,385.13a2.72,2.72,0,1,1-2.75-2.44A2.61,2.61,0,0,1,362.78,385.13Z"/><g class="cls-3"><path class="cls-4" d="M360,383.76a1.43,1.43,0,1,1-1.52,1.44,1.49,1.49,0,0,1,1.52-1.44m0-1.07a2.49,2.49,0,1,0,2.75,2.44,2.6,2.6,0,0,0-2.75-2.44Z"/></g><path class="cls-5" d="M365.68,167.37a2.72,2.72,0,1,1-2.75-2.44A2.6,2.6,0,0,1,365.68,167.37Z"/><g class="cls-3"><path class="cls-4" d="M363,166a1.43,1.43,0,1,1-1.53,1.45A1.49,1.49,0,0,1,363,166m0-1.06a2.49,2.49,0,1,0,2.75,2.44,2.6,2.6,0,0,0-2.75-2.44Z"/></g><path class="cls-5" d="M399.4,193.5a2.72,2.72,0,1,1-2.75-2.44A2.6,2.6,0,0,1,399.4,193.5Z"/><g class="cls-3"><path class="cls-4" d="M396.67,192.13a1.43,1.43,0,1,1-1.53,1.44,1.48,1.48,0,0,1,1.53-1.44m0-1.07a2.49,2.49,0,1,0,2.75,2.44,2.61,2.61,0,0,0-2.75-2.44Z"/></g><path class="cls-5" d="M345.67,187.84a2.72,2.72,0,1,1-2.75-2.43A2.6,2.6,0,0,1,345.67,187.84Z"/><g class="cls-3"><path class="cls-4" d="M342.94,186.47a1.43,1.43,0,1,1,.05,2.84,1.43,1.43,0,1,1-.05-2.84m0-1.06a2.49,2.49,0,1,0,2.75,2.43,2.6,2.6,0,0,0-2.75-2.43Z"/></g><path class="cls-5" d="M320.76,229a2.72,2.72,0,1,1-2.75-2.43A2.6,2.6,0,0,1,320.76,229Z"/><g class="cls-3"><path class="cls-4" d="M318,227.59A1.43,1.43,0,1,1,316.5,229a1.5,1.5,0,0,1,1.52-1.45m0-1.06a2.49,2.49,0,1,0,2.75,2.43,2.6,2.6,0,0,0-2.75-2.43Z"/></g><path class="cls-5" d="M457.88,196.68a2.72,2.72,0,1,1-2.75-2.44A2.6,2.6,0,0,1,457.88,196.68Z"/><g class="cls-3"><path class="cls-4" d="M455.15,195.31a1.48,1.48,0,0,1,1.57,1.39,1.56,1.56,0,1,1-1.57-1.39m0-1.07a2.49,2.49,0,1,0,2.75,2.44,2.61,2.61,0,0,0-2.75-2.44Z"/></g><path class="cls-5" d="M475.6,185.28a2.72,2.72,0,1,1-2.75-2.44A2.61,2.61,0,0,1,475.6,185.28Z"/><g class="cls-3"><path class="cls-4" d="M472.86,183.9a1.43,1.43,0,1,1,.05,2.84,1.48,1.48,0,0,1-1.57-1.39,1.5,1.5,0,0,1,1.52-1.45m0-1.06a2.49,2.49,0,1,0,2.75,2.44,2.6,2.6,0,0,0-2.75-2.44Z"/></g><path class="cls-5" d="M569.79,193.34A2.72,2.72,0,1,1,567,190.9,2.59,2.59,0,0,1,569.79,193.34Z"/><g class="cls-3"><path class="cls-4" d="M567.06,192a1.43,1.43,0,1,1-1.53,1.45,1.49,1.49,0,0,1,1.53-1.45m0-1.06a2.49,2.49,0,1,0,2.75,2.44A2.6,2.6,0,0,0,567,190.9Z"/></g><path class="cls-5" d="M611.14,178.06a2.72,2.72,0,1,1-2.75-2.44A2.6,2.6,0,0,1,611.14,178.06Z"/><g class="cls-3"><path class="cls-4" d="M608.41,176.68a1.43,1.43,0,1,1-1.52,1.45,1.49,1.49,0,0,1,1.52-1.45m0-1.06a2.49,2.49,0,1,0,2.75,2.44,2.6,2.6,0,0,0-2.75-2.44Z"/></g><path class="cls-5" d="M648.34,163.18a2.72,2.72,0,1,1-2.75-2.44A2.6,2.6,0,0,1,648.34,163.18Z"/><g class="cls-3"><path class="cls-4" d="M645.61,161.81a1.48,1.48,0,0,1,1.57,1.39,1.56,1.56,0,1,1-1.57-1.39m0-1.07a2.49,2.49,0,1,0,2.75,2.44,2.61,2.61,0,0,0-2.75-2.44Z"/></g><path class="cls-5" d="M631.87,233.35a2.72,2.72,0,1,1-2.75-2.44A2.61,2.61,0,0,1,631.87,233.35Z"/><g class="cls-3"><path class="cls-4" d="M629.13,232a1.43,1.43,0,1,1,0,2.84,1.43,1.43,0,1,1,0-2.84m0-1.06a2.49,2.49,0,1,0,2.75,2.44,2.6,2.6,0,0,0-2.75-2.44Z"/></g><path class="cls-5" d="M603.88,132.58a2.72,2.72,0,1,1-2.75-2.44A2.61,2.61,0,0,1,603.88,132.58Z"/><g class="cls-3"><path class="cls-4" d="M601.15,131.2a1.43,1.43,0,1,1-1.53,1.45,1.5,1.5,0,0,1,1.53-1.45m0-1.06a2.49,2.49,0,1,0,2.75,2.44,2.61,2.61,0,0,0-2.75-2.44Z"/></g><path class="cls-5" d="M628.28,131.43a2.72,2.72,0,1,1-2.75-2.44A2.61,2.61,0,0,1,628.28,131.43Z"/><g class="cls-3"><path class="cls-4" d="M625.55,130.05A1.43,1.43,0,1,1,624,131.5a1.5,1.5,0,0,1,1.53-1.45m0-1.06a2.49,2.49,0,1,0,2.75,2.44,2.61,2.61,0,0,0-2.75-2.44Z"/></g><path class="cls-5" d="M554.86,200.54a2.72,2.72,0,1,1-2.76-2.44A2.61,2.61,0,0,1,554.86,200.54Z"/><g class="cls-3"><path class="cls-4" d="M552.12,199.17a1.43,1.43,0,1,1-1.52,1.44,1.48,1.48,0,0,1,1.52-1.44m0-1.07a2.5,2.5,0,1,0,2.76,2.44,2.6,2.6,0,0,0-2.76-2.44Z"/></g><path class="cls-5" d="M546.1,226.87a2.72,2.72,0,1,1-2.75-2.44A2.61,2.61,0,0,1,546.1,226.87Z"/><g class="cls-3"><path class="cls-4" d="M543.36,225.49a1.43,1.43,0,1,1,0,2.84,1.43,1.43,0,1,1,0-2.84m0-1.06a2.49,2.49,0,1,0,2.75,2.44,2.6,2.6,0,0,0-2.75-2.44Z"/></g><path class="cls-5" d="M509.54,236.12a2.72,2.72,0,1,1-2.75-2.44A2.6,2.6,0,0,1,509.54,236.12Z"/><g class="cls-3"><path class="cls-4" d="M506.81,234.74a1.43,1.43,0,1,1-1.53,1.45,1.49,1.49,0,0,1,1.53-1.45m0-1.06a2.49,2.49,0,1,0,2.75,2.44,2.61,2.61,0,0,0-2.75-2.44Z"/></g><path class="cls-5" d="M479.13,256.35a2.72,2.72,0,1,1-2.75-2.43A2.6,2.6,0,0,1,479.13,256.35Z"/><g class="cls-3"><path class="cls-4" d="M476.39,255a1.43,1.43,0,1,1-1.52,1.45,1.48,1.48,0,0,1,1.52-1.45m0-1.06a2.49,2.49,0,1,0,2.75,2.43,2.59,2.59,0,0,0-2.75-2.43Z"/></g><path class="cls-5" d="M503.93,196.19a2.72,2.72,0,1,1-2.75-2.44A2.62,2.62,0,0,1,503.93,196.19Z"/><g class="cls-3"><path class="cls-4" d="M501.19,194.81a1.43,1.43,0,1,1,.05,2.84,1.43,1.43,0,1,1-.05-2.84m0-1.06a2.49,2.49,0,1,0,2.75,2.44,2.59,2.59,0,0,0-2.75-2.44Z"/></g><path class="cls-5" d="M553.6,242a2.72,2.72,0,1,1-2.75-2.44A2.61,2.61,0,0,1,553.6,242Z"/><g class="cls-3"><path class="cls-4" d="M550.86,240.65a1.49,1.49,0,0,1,1.58,1.39,1.51,1.51,0,0,1-1.53,1.45,1.43,1.43,0,1,1,0-2.84m0-1.07A2.49,2.49,0,1,0,553.6,242a2.6,2.6,0,0,0-2.75-2.44Z"/></g><path class="cls-5" d="M572.38,284.16a2.72,2.72,0,1,1-2.75-2.44A2.6,2.6,0,0,1,572.38,284.16Z"/><g class="cls-3"><path class="cls-4" d="M569.65,282.78a1.5,1.5,0,0,1,1.57,1.4,1.56,1.56,0,0,1-3.1.05,1.51,1.51,0,0,1,1.53-1.45m0-1.06a2.49,2.49,0,1,0,2.75,2.44,2.62,2.62,0,0,0-2.75-2.44Z"/></g><path class="cls-5" d="M597.73,285.73a2.72,2.72,0,1,1-2.75-2.44A2.6,2.6,0,0,1,597.73,285.73Z"/><g class="cls-3"><path class="cls-4" d="M595,284.35a1.5,1.5,0,0,1,1.57,1.4,1.56,1.56,0,0,1-3.1.05,1.51,1.51,0,0,1,1.53-1.45m0-1.06a2.49,2.49,0,1,0,2.75,2.44,2.62,2.62,0,0,0-2.75-2.44Z"/></g><path class="cls-5" d="M545.94,337a2.72,2.72,0,1,1-2.75-2.44A2.59,2.59,0,0,1,545.94,337Z"/><g class="cls-3"><path class="cls-4" d="M543.21,335.62a1.43,1.43,0,1,1-1.53,1.45,1.49,1.49,0,0,1,1.53-1.45m0-1.06a2.49,2.49,0,1,0,2.75,2.44,2.6,2.6,0,0,0-2.75-2.44Z"/></g><path class="cls-5" d="M564.59,332.46a2.72,2.72,0,1,1-2.75-2.44A2.61,2.61,0,0,1,564.59,332.46Z"/><g class="cls-3"><path class="cls-4" d="M561.86,331.08a1.43,1.43,0,1,1-1.53,1.45,1.49,1.49,0,0,1,1.53-1.45m0-1.06a2.49,2.49,0,1,0,2.75,2.44,2.6,2.6,0,0,0-2.75-2.44Z"/></g><path class="cls-5" d="M432.76,242a2.72,2.72,0,1,1-2.75-2.44A2.6,2.6,0,0,1,432.76,242Z"/><g class="cls-3"><path class="cls-4" d="M430,240.66a1.43,1.43,0,1,1,.05,2.84,1.43,1.43,0,1,1-.05-2.84m0-1.07a2.49,2.49,0,1,0,2.75,2.44,2.62,2.62,0,0,0-2.75-2.44Z"/></g><path class="cls-5" d="M374.72,232.38a2.72,2.72,0,1,1-2.75-2.44A2.6,2.6,0,0,1,374.72,232.38Z"/><g class="cls-3"><path class="cls-4" d="M372,231a1.48,1.48,0,0,1,1.57,1.39A1.56,1.56,0,1,1,372,231m0-1.07a2.49,2.49,0,1,0,2.75,2.44,2.61,2.61,0,0,0-2.75-2.44Z"/></g><path class="cls-5" d="M477.64,308.78a2.72,2.72,0,1,1-2.75-2.44A2.6,2.6,0,0,1,477.64,308.78Z"/><g class="cls-3"><path class="cls-4" d="M474.91,307.4a1.43,1.43,0,1,1-1.53,1.45,1.49,1.49,0,0,1,1.53-1.45m0-1.06a2.49,2.49,0,1,0,2.75,2.44,2.6,2.6,0,0,0-2.75-2.44Z"/></g><path class="cls-5" d="M511.11,352.33a2.72,2.72,0,1,1-2.75-2.44A2.61,2.61,0,0,1,511.11,352.33Z"/><g class="cls-3"><path class="cls-4" d="M508.37,351a1.43,1.43,0,1,1-1.52,1.45,1.51,1.51,0,0,1,1.52-1.45m0-1.06a2.49,2.49,0,1,0,2.75,2.44,2.61,2.61,0,0,0-2.75-2.44Z"/></g><path class="cls-5" d="M473.4,380.31a2.72,2.72,0,1,1-2.75-2.44A2.6,2.6,0,0,1,473.4,380.31Z"/><g class="cls-3"><path class="cls-4" d="M470.67,378.94a1.43,1.43,0,1,1,.05,2.84,1.43,1.43,0,1,1-.05-2.84m0-1.07a2.49,2.49,0,1,0,2.75,2.44,2.61,2.61,0,0,0-2.75-2.44Z"/></g><path class="cls-5" d="M349.51,413.87a2.72,2.72,0,1,1-2.76-2.44A2.62,2.62,0,0,1,349.51,413.87Z"/><g class="cls-3"><path class="cls-4" d="M346.77,412.5a1.49,1.49,0,0,1,1.58,1.39,1.56,1.56,0,0,1-3.1.05,1.48,1.48,0,0,1,1.52-1.44m0-1.07a2.5,2.5,0,1,0,2.76,2.44,2.6,2.6,0,0,0-2.76-2.44Z"/></g><path class="cls-5" d="M278.86,429.63a2.72,2.72,0,1,1-2.75-2.44A2.6,2.6,0,0,1,278.86,429.63Z"/><g class="cls-3"><path class="cls-4" d="M276.13,428.26a1.48,1.48,0,0,1,1.57,1.39,1.56,1.56,0,1,1-1.57-1.39m0-1.07a2.49,2.49,0,1,0,2.75,2.44,2.61,2.61,0,0,0-2.75-2.44Z"/></g><path class="cls-5" d="M250.51,378.37a2.72,2.72,0,1,1-2.75-2.44A2.6,2.6,0,0,1,250.51,378.37Z"/><g class="cls-3"><path class="cls-4" d="M247.78,377a1.43,1.43,0,1,1-1.52,1.45,1.49,1.49,0,0,1,1.52-1.45m0-1.06a2.49,2.49,0,1,0,2.75,2.44,2.61,2.61,0,0,0-2.75-2.44Z"/></g><path class="cls-5" d="M195.91,368.66a2.72,2.72,0,1,1-2.75-2.44A2.62,2.62,0,0,1,195.91,368.66Z"/><g class="cls-3"><path class="cls-4" d="M193.17,367.28a1.43,1.43,0,1,1,.05,2.84,1.43,1.43,0,1,1-.05-2.84m0-1.06a2.49,2.49,0,1,0,2.75,2.44,2.6,2.6,0,0,0-2.75-2.44Z"/></g><path class="cls-5" d="M221.6,413a2.72,2.72,0,1,1-2.75-2.43A2.59,2.59,0,0,1,221.6,413Z"/><g class="cls-3"><path class="cls-4" d="M218.87,411.63a1.43,1.43,0,1,1,0,2.84,1.43,1.43,0,1,1,0-2.84m0-1.06A2.49,2.49,0,1,0,221.6,413a2.6,2.6,0,0,0-2.75-2.43Z"/></g><path class="cls-5" d="M188.41,407.58a2.72,2.72,0,1,1-2.75-2.43A2.6,2.6,0,0,1,188.41,407.58Z"/><g class="cls-3"><path class="cls-4" d="M185.68,406.21a1.43,1.43,0,1,1-1.53,1.45,1.48,1.48,0,0,1,1.53-1.45m0-1.06a2.49,2.49,0,1,0,2.75,2.43,2.6,2.6,0,0,0-2.75-2.43Z"/></g><path class="cls-5" d="M228.84,391a2.72,2.72,0,1,1-2.75-2.44A2.62,2.62,0,0,1,228.84,391Z"/><g class="cls-3"><path class="cls-4" d="M226.1,389.62a1.43,1.43,0,1,1,.05,2.84,1.43,1.43,0,1,1-.05-2.84m0-1.06a2.49,2.49,0,1,0,2.75,2.44,2.59,2.59,0,0,0-2.75-2.44Z"/></g><path class="cls-5" d="M479.75,401.6a2.72,2.72,0,1,1-2.75-2.44A2.6,2.6,0,0,1,479.75,401.6Z"/><g class="cls-3"><path class="cls-4" d="M477,400.22a1.43,1.43,0,1,1-1.53,1.45,1.49,1.49,0,0,1,1.53-1.45m0-1.06a2.49,2.49,0,1,0,2.75,2.44,2.61,2.61,0,0,0-2.75-2.44Z"/></g><path class="cls-5" d="M511.14,299.77a2.72,2.72,0,1,1-2.75-2.44A2.6,2.6,0,0,1,511.14,299.77Z"/><g class="cls-3"><path class="cls-4" d="M508.41,298.39a1.43,1.43,0,1,1-1.53,1.45,1.49,1.49,0,0,1,1.53-1.45m0-1.06a2.49,2.49,0,1,0,2.75,2.44,2.6,2.6,0,0,0-2.75-2.44Z"/></g><path class="cls-5" d="M370.32,272.58a2.72,2.72,0,1,1-2.75-2.44A2.6,2.6,0,0,1,370.32,272.58Z"/><g class="cls-3"><path class="cls-4" d="M367.59,271.21a1.48,1.48,0,0,1,1.57,1.39,1.56,1.56,0,1,1-1.57-1.39m0-1.07a2.49,2.49,0,1,0,2.75,2.44,2.61,2.61,0,0,0-2.75-2.44Z"/></g><path class="cls-5" d="M295.23,303.84a2.72,2.72,0,1,1-2.76-2.44A2.62,2.62,0,0,1,295.23,303.84Z"/><g class="cls-3"><path class="cls-4" d="M292.49,302.46a1.43,1.43,0,1,1,.05,2.84,1.43,1.43,0,1,1-.05-2.84m0-1.06a2.5,2.5,0,1,0,2.76,2.44,2.6,2.6,0,0,0-2.76-2.44Z"/></g><path class="cls-5" d="M295.32,156.76a2.72,2.72,0,1,1-2.75-2.44A2.6,2.6,0,0,1,295.32,156.76Z"/><g class="cls-3"><path class="cls-4" d="M292.59,155.38a1.43,1.43,0,1,1-1.53,1.45,1.49,1.49,0,0,1,1.53-1.45m0-1.06a2.49,2.49,0,1,0,2.75,2.44,2.6,2.6,0,0,0-2.75-2.44Z"/></g><path class="cls-5" d="M286,251.1a2.72,2.72,0,1,1-2.75-2.44A2.6,2.6,0,0,1,286,251.1Z"/><g class="cls-3"><path class="cls-4" d="M283.3,249.72a1.43,1.43,0,1,1-1.53,1.45,1.49,1.49,0,0,1,1.53-1.45m0-1.06A2.49,2.49,0,1,0,286,251.1a2.6,2.6,0,0,0-2.75-2.44Z"/></g><path class="cls-5" d="M237.19,207.3a2.72,2.72,0,1,1-2.75-2.44A2.61,2.61,0,0,1,237.19,207.3Z"/><g class="cls-3"><path class="cls-4" d="M234.46,205.92a1.43,1.43,0,1,1-1.53,1.45,1.5,1.5,0,0,1,1.53-1.45m0-1.06a2.49,2.49,0,1,0,2.75,2.44,2.61,2.61,0,0,0-2.75-2.44Z"/></g><path class="cls-5" d="M194.59,278.48a2.72,2.72,0,1,1-2.75-2.44A2.6,2.6,0,0,1,194.59,278.48Z"/><g class="cls-3"><path class="cls-4" d="M191.86,277.1a1.43,1.43,0,1,1-1.53,1.45,1.49,1.49,0,0,1,1.53-1.45m0-1.06a2.49,2.49,0,1,0,2.75,2.44,2.61,2.61,0,0,0-2.75-2.44Z"/></g><path class="cls-5" d="M189.32,311.54a2.9,2.9,0,0,1-3.83.13,2.35,2.35,0,0,1-.13-3.52,2.89,2.89,0,0,1,3.83-.12A2.33,2.33,0,0,1,189.32,311.54Z"/><g class="cls-3"><path class="cls-4" d="M187.32,308.43a1.55,1.55,0,0,1,1.08.38,1.33,1.33,0,0,1,.08,2,1.62,1.62,0,0,1-1.11.46,1.68,1.68,0,0,1-1.09-.38,1.35,1.35,0,0,1-.07-2,1.55,1.55,0,0,1,1.11-.45m0-1.07a2.85,2.85,0,0,0-1.94.79,2.35,2.35,0,0,0,.13,3.52,2.89,2.89,0,0,0,1.89.66,2.84,2.84,0,0,0,1.94-.79,2.33,2.33,0,0,0-.13-3.51,2.81,2.81,0,0,0-1.89-.67Z"/></g><path class="cls-5" d="M188.68,342.76a2.89,2.89,0,0,1-3.83.13,2.34,2.34,0,0,1-.13-3.51,2.89,2.89,0,0,1,3.83-.13A2.33,2.33,0,0,1,188.68,342.76Z"/><g class="cls-3"><path class="cls-4" d="M186.68,339.65h0a1.6,1.6,0,0,1,1.08.38,1.36,1.36,0,0,1,.49,1,1.34,1.34,0,0,1-.41,1,1.65,1.65,0,0,1-1.11.45,1.59,1.59,0,0,1-1.08-.38,1.35,1.35,0,0,1-.08-2,1.65,1.65,0,0,1,1.11-.45m0-1.06a2.81,2.81,0,0,0-1.94.79,2.34,2.34,0,0,0,.13,3.51,2.9,2.9,0,0,0,3.83-.13,2.33,2.33,0,0,0-.13-3.51,2.75,2.75,0,0,0-1.89-.66Z"/></g><path class="cls-5" d="M205,340.34a2.89,2.89,0,0,1-3.83.12A2.33,2.33,0,0,1,201,337a2.9,2.9,0,0,1,3.83-.13A2.35,2.35,0,0,1,205,340.34Z"/><g class="cls-3"><path class="cls-4" d="M203,337.22h0a1.66,1.66,0,0,1,1.08.38,1.35,1.35,0,0,1,.08,2,1.57,1.57,0,0,1-1.11.45,1.6,1.6,0,0,1-1.08-.37,1.35,1.35,0,0,1-.08-2,1.62,1.62,0,0,1,1.11-.46m0-1.06A2.81,2.81,0,0,0,201,337a2.33,2.33,0,0,0,.13,3.51,2.81,2.81,0,0,0,1.89.67,2.85,2.85,0,0,0,1.94-.79,2.35,2.35,0,0,0-.13-3.52,2.9,2.9,0,0,0-1.9-.66Z"/></g><path class="cls-5" d="M234.66,21.79a2.72,2.72,0,0,1-5.42.09,2.72,2.72,0,0,1,5.42-.09Z"/><g class="cls-3"><path class="cls-4" d="M231.93,20.42a1.43,1.43,0,1,1-1.53,1.44,1.48,1.48,0,0,1,1.53-1.44m0-1.07a2.61,2.61,0,0,0-2.67,2.53,2.72,2.72,0,1,0,2.67-2.53Z"/></g><ellipse class="cls-5" cx="191.4" cy="30.97" rx="2.71" ry="2.48" transform="translate(-0.49 3.2) rotate(-0.96)"/><g class="cls-3"><path class="cls-4" d="M191.38,29.55A1.48,1.48,0,0,1,193,30.94a1.56,1.56,0,1,1-1.57-1.39m0-1.07a2.49,2.49,0,1,0,2.75,2.44,2.61,2.61,0,0,0-2.75-2.44Z"/></g><path class="cls-5" d="M204.5,133.72a2.72,2.72,0,1,1-2.75-2.44A2.61,2.61,0,0,1,204.5,133.72Z"/><g class="cls-3"><path class="cls-4" d="M201.76,132.35a1.49,1.49,0,0,1,1.58,1.39,1.51,1.51,0,0,1-1.53,1.45,1.43,1.43,0,1,1-.05-2.84m0-1.07a2.49,2.49,0,1,0,2.75,2.44,2.6,2.6,0,0,0-2.75-2.44Z"/></g><path class="cls-5" d="M191.54,203.33a2.72,2.72,0,1,1-2.75-2.44A2.61,2.61,0,0,1,191.54,203.33Z"/><g class="cls-3"><path class="cls-4" d="M188.81,202a1.48,1.48,0,0,1,1.57,1.39,1.56,1.56,0,1,1-1.57-1.39m0-1.07a2.49,2.49,0,1,0,2.75,2.44,2.61,2.61,0,0,0-2.75-2.44Z"/></g><path class="cls-5" d="M141.65,172.57a2.72,2.72,0,1,1-2.75-2.44A2.61,2.61,0,0,1,141.65,172.57Z"/><g class="cls-3"><path class="cls-4" d="M138.91,171.19A1.43,1.43,0,1,1,139,174a1.48,1.48,0,0,1-1.57-1.39,1.5,1.5,0,0,1,1.52-1.45m0-1.06a2.49,2.49,0,1,0,2.75,2.44,2.6,2.6,0,0,0-2.75-2.44Z"/></g><path class="cls-5" d="M178.53,269.46a2.72,2.72,0,1,1-2.75-2.44A2.62,2.62,0,0,1,178.53,269.46Z"/><g class="cls-3"><path class="cls-4" d="M175.79,268.08a1.43,1.43,0,1,1,.05,2.84,1.43,1.43,0,1,1-.05-2.84m0-1.06a2.49,2.49,0,1,0,2.75,2.44,2.6,2.6,0,0,0-2.75-2.44Z"/></g><path class="cls-5" d="M144.55,249.63a2.72,2.72,0,1,1-2.75-2.44A2.6,2.6,0,0,1,144.55,249.63Z"/><g class="cls-3"><path class="cls-4" d="M141.82,248.25a1.43,1.43,0,1,1-1.53,1.45,1.49,1.49,0,0,1,1.53-1.45m0-1.06a2.49,2.49,0,1,0,2.75,2.44,2.6,2.6,0,0,0-2.75-2.44Z"/></g><path class="cls-5" d="M336.13,43.33a2.72,2.72,0,1,1-2.75-2.44A2.6,2.6,0,0,1,336.13,43.33Z"/><g class="cls-3"><path class="cls-4" d="M333.4,42a1.43,1.43,0,1,1-1.53,1.45A1.51,1.51,0,0,1,333.4,42m0-1.06a2.49,2.49,0,1,0,2.75,2.44,2.61,2.61,0,0,0-2.75-2.44Z"/></g><path class="cls-5" d="M271.29,70.93a2.72,2.72,0,1,1-2.75-2.44A2.6,2.6,0,0,1,271.29,70.93Z"/><g class="cls-3"><path class="cls-4" d="M268.56,69.56A1.48,1.48,0,0,1,270.13,71a1.56,1.56,0,1,1-1.57-1.39m0-1.07a2.49,2.49,0,1,0,2.75,2.44,2.61,2.61,0,0,0-2.75-2.44Z"/></g><path class="cls-5" d="M312.28,110.38a2.72,2.72,0,1,1-2.75-2.44A2.61,2.61,0,0,1,312.28,110.38Z"/><g class="cls-3"><path class="cls-4" d="M309.55,109a1.48,1.48,0,0,1,1.57,1.39,1.56,1.56,0,1,1-1.57-1.39m0-1.07a2.49,2.49,0,1,0,2.75,2.44,2.61,2.61,0,0,0-2.75-2.44Z"/></g><path class="cls-5" d="M221.6,118.18a2.72,2.72,0,1,1-2.75-2.44A2.59,2.59,0,0,1,221.6,118.18Z"/><g class="cls-3"><path class="cls-4" d="M218.87,116.81a1.43,1.43,0,1,1-1.52,1.44,1.48,1.48,0,0,1,1.52-1.44m0-1.07a2.49,2.49,0,1,0,2.75,2.44,2.6,2.6,0,0,0-2.75-2.44Z"/></g><path class="cls-5" d="M407.49,157.55a2.72,2.72,0,1,1-2.75-2.44A2.6,2.6,0,0,1,407.49,157.55Z"/><g class="cls-3"><path class="cls-4" d="M404.75,156.18a1.43,1.43,0,1,1-1.52,1.44,1.49,1.49,0,0,1,1.52-1.44m0-1.07a2.49,2.49,0,1,0,2.75,2.44,2.6,2.6,0,0,0-2.75-2.44Z"/></g><path class="cls-5" d="M432.64,59.64a2.72,2.72,0,1,1-2.75-2.44A2.62,2.62,0,0,1,432.64,59.64Z"/><g class="cls-3"><path class="cls-4" d="M429.9,58.26A1.43,1.43,0,1,1,430,61.1a1.43,1.43,0,1,1-.05-2.84m0-1.06a2.49,2.49,0,1,0,2.75,2.44,2.6,2.6,0,0,0-2.75-2.44Z"/></g><path class="cls-5" d="M439.8,99a2.72,2.72,0,1,1-2.75-2.44A2.6,2.6,0,0,1,439.8,99Z"/><g class="cls-3"><path class="cls-4" d="M437.07,97.61a1.43,1.43,0,1,1-1.53,1.44,1.48,1.48,0,0,1,1.53-1.44m0-1.07A2.49,2.49,0,1,0,439.8,99a2.61,2.61,0,0,0-2.75-2.44Z"/></g><path class="cls-5" d="M544.36,77.69a2.72,2.72,0,1,1-2.75-2.44A2.59,2.59,0,0,1,544.36,77.69Z"/><g class="cls-3"><path class="cls-4" d="M541.63,76.31a1.43,1.43,0,1,1-1.53,1.45,1.49,1.49,0,0,1,1.53-1.45m0-1.06a2.49,2.49,0,1,0,2.75,2.44,2.6,2.6,0,0,0-2.75-2.44Z"/></g><g class="cls-3"><path class="cls-4" d="M729.12,97.24l-.5-.86-52-89.31,70.66,60.54ZM681,12.23,729.14,95l16.72-27.2Z"/></g><g class="cls-3"><polygon class="cls-4" points="760.85 97.13 729.12 96.66 729.14 95.6 759.08 96.04 746.06 67.92 747.12 67.51 760.85 97.13"/></g><path class="cls-5" d="M748.1,69.24a2.39,2.39,0,0,1-3.17-.14,1.94,1.94,0,0,1,.15-2.91,2.39,2.39,0,0,1,3.17.14A1.94,1.94,0,0,1,748.1,69.24Z"/><g class="cls-3"><path class="cls-4" d="M746.57,66.72h0a1.15,1.15,0,0,1,.82.33.89.89,0,0,1,.28.71,1,1,0,0,1-.35.69,1.15,1.15,0,0,1-.71.26,1.1,1.1,0,0,1-.82-.32.94.94,0,0,1,.07-1.41,1.21,1.21,0,0,1,.71-.26m0-1.06a2.37,2.37,0,0,0-1.47.53,1.94,1.94,0,0,0-.15,2.91,2.3,2.3,0,0,0,1.69.67,2.37,2.37,0,0,0,1.48-.53,1.94,1.94,0,0,0,.15-2.91,2.31,2.31,0,0,0-1.7-.67Z"/></g><path class="cls-5" d="M730.64,97.65a2.38,2.38,0,0,1-3.17-.14,1.93,1.93,0,0,1,.15-2.9,2.38,2.38,0,0,1,3.17.13A1.94,1.94,0,0,1,730.64,97.65Z"/><g class="cls-3"><path class="cls-4" d="M729.11,95.14a1.1,1.1,0,0,1,.82.32.93.93,0,0,1-.07,1.4,1.16,1.16,0,0,1-1.53-.06.91.91,0,0,1-.28-.72,1,1,0,0,1,.35-.69,1.14,1.14,0,0,1,.71-.25m0-1.07a2.38,2.38,0,0,0-1.48.54,1.93,1.93,0,0,0-.15,2.9,2.31,2.31,0,0,0,1.7.68,2.38,2.38,0,0,0,1.47-.54,1.94,1.94,0,0,0,.15-2.91,2.34,2.34,0,0,0-1.69-.67Z"/></g><path class="cls-5" d="M761.47,98.11A2.38,2.38,0,0,1,758.3,98a1.93,1.93,0,0,1,.16-2.9,2.38,2.38,0,0,1,3.17.13A1.94,1.94,0,0,1,761.47,98.11Z"/><g class="cls-3"><path class="cls-4" d="M760,95.6a1.12,1.12,0,0,1,.82.32.93.93,0,0,1-.08,1.4,1.05,1.05,0,0,1-.71.26,1.12,1.12,0,0,1-.82-.32.94.94,0,0,1,.08-1.41,1.12,1.12,0,0,1,.71-.25m0-1.07a2.36,2.36,0,0,0-1.47.54,1.93,1.93,0,0,0-.16,2.9,2.33,2.33,0,0,0,1.7.68,2.36,2.36,0,0,0,1.47-.54,1.94,1.94,0,0,0,.16-2.91,2.36,2.36,0,0,0-1.7-.67Z"/></g><path class="cls-5" d="M680.32,11.18a2.39,2.39,0,0,1-3.17-.14,2,2,0,0,1,.16-2.91,2.39,2.39,0,0,1,3.17.14A2,2,0,0,1,680.32,11.18Z"/><g class="cls-3"><path class="cls-4" d="M678.8,8.66a1.12,1.12,0,0,1,.82.32.94.94,0,0,1-.08,1.41,1.14,1.14,0,0,1-1.53-.07.93.93,0,0,1,.08-1.4,1.13,1.13,0,0,1,.71-.26m0-1.06a2.31,2.31,0,0,0-1.47.53,2,2,0,0,0-.16,2.91,2.36,2.36,0,0,0,1.7.67,2.41,2.41,0,0,0,1.47-.53,2,2,0,0,0,.16-2.91,2.31,2.31,0,0,0-1.7-.67Z"/></g><path class="cls-5" d="M523.69,140.37a2.72,2.72,0,1,1-2.75-2.43A2.59,2.59,0,0,1,523.69,140.37Z"/><g class="cls-3"><path class="cls-4" d="M521,139a1.43,1.43,0,1,1-1.52,1.44A1.48,1.48,0,0,1,521,139m0-1.06a2.49,2.49,0,1,0,2.75,2.43,2.6,2.6,0,0,0-2.75-2.43Z"/></g><path class="cls-5" d="M372.2,101.84a2.72,2.72,0,1,1-2.76-2.44A2.6,2.6,0,0,1,372.2,101.84Z"/><g class="cls-3"><path class="cls-4" d="M369.46,100.47a1.43,1.43,0,1,1-1.52,1.44,1.48,1.48,0,0,1,1.52-1.44m0-1.07a2.5,2.5,0,1,0,2.76,2.44,2.6,2.6,0,0,0-2.76-2.44Z"/></g><path class="cls-5" d="M396.58,328.86a2.72,2.72,0,0,1-5.42.09,2.72,2.72,0,0,1,5.42-.09Z"/><g class="cls-3"><path class="cls-4" d="M393.84,327.48a1.43,1.43,0,1,1,.05,2.84,1.43,1.43,0,1,1-.05-2.84m0-1.06a2.49,2.49,0,1,0,.09,5,2.5,2.5,0,1,0-.09-5Z"/></g><path class="cls-5" d="M340.41,345a2.72,2.72,0,1,1-2.75-2.44A2.61,2.61,0,0,1,340.41,345Z"/><g class="cls-3"><path class="cls-4" d="M337.67,343.67a1.49,1.49,0,0,1,1.58,1.39,1.51,1.51,0,0,1-1.53,1.45,1.43,1.43,0,1,1-.05-2.84m0-1.07a2.49,2.49,0,1,0,2.75,2.44,2.6,2.6,0,0,0-2.75-2.44Z"/></g><path class="cls-5" d="M297.76,325.85a2.72,2.72,0,1,1-2.75-2.44A2.61,2.61,0,0,1,297.76,325.85Z"/><g class="cls-3"><path class="cls-4" d="M295,324.48a1.48,1.48,0,0,1,1.57,1.39,1.56,1.56,0,1,1-1.57-1.39m0-1.07a2.49,2.49,0,1,0,2.75,2.44,2.61,2.61,0,0,0-2.75-2.44Z"/></g><path class="cls-5" d="M252.38,359.77a2.72,2.72,0,1,1-2.75-2.44A2.6,2.6,0,0,1,252.38,359.77Z"/><g class="cls-3"><path class="cls-4" d="M249.64,358.39a1.43,1.43,0,1,1-1.52,1.45,1.48,1.48,0,0,1,1.52-1.45m0-1.06a2.49,2.49,0,1,0,2.75,2.44,2.59,2.59,0,0,0-2.75-2.44Z"/></g><path class="cls-5" d="M452.92,367.06a2.72,2.72,0,1,1-2.75-2.44A2.61,2.61,0,0,1,452.92,367.06Z"/><g class="cls-3"><path class="cls-4" d="M450.19,365.68a1.43,1.43,0,1,1-1.53,1.45,1.49,1.49,0,0,1,1.53-1.45m0-1.06a2.49,2.49,0,1,0,2.75,2.44,2.6,2.6,0,0,0-2.75-2.44Z"/></g><path class="cls-5" d="M511.45,405.88a2.72,2.72,0,1,1-2.75-2.44A2.6,2.6,0,0,1,511.45,405.88Z"/><g class="cls-3"><path class="cls-4" d="M508.72,404.51a1.43,1.43,0,1,1-1.53,1.44,1.48,1.48,0,0,1,1.53-1.44m0-1.07a2.49,2.49,0,1,0,2.75,2.44,2.61,2.61,0,0,0-2.75-2.44Z"/></g><path class="cls-5" d="M527.57,406.94a2.72,2.72,0,1,1-2.75-2.44A2.61,2.61,0,0,1,527.57,406.94Z"/><g class="cls-3"><path class="cls-4" d="M524.83,405.57a1.49,1.49,0,0,1,1.58,1.39,1.51,1.51,0,0,1-1.53,1.45,1.43,1.43,0,1,1,0-2.84m0-1.07a2.49,2.49,0,1,0,2.75,2.44,2.6,2.6,0,0,0-2.75-2.44Z"/></g><path class="cls-5" d="M603,341a2.72,2.72,0,1,1-2.75-2.43A2.6,2.6,0,0,1,603,341Z"/><g class="cls-3"><path class="cls-4" d="M600.26,339.65a1.43,1.43,0,1,1-1.53,1.45,1.49,1.49,0,0,1,1.53-1.45m0-1.06A2.49,2.49,0,1,0,603,341a2.6,2.6,0,0,0-2.75-2.43Z"/></g><path class="cls-5" d="M605.39,387.75a2.72,2.72,0,1,1-2.75-2.44A2.6,2.6,0,0,1,605.39,387.75Z"/><g class="cls-3"><path class="cls-4" d="M602.66,386.37a1.43,1.43,0,1,1-1.53,1.45,1.49,1.49,0,0,1,1.53-1.45m0-1.06a2.49,2.49,0,1,0,2.75,2.44,2.6,2.6,0,0,0-2.75-2.44Z"/></g><path class="cls-5" d="M584.1,413a2.72,2.72,0,1,1-2.75-2.44A2.6,2.6,0,0,1,584.1,413Z"/><g class="cls-3"><path class="cls-4" d="M581.37,411.59a1.43,1.43,0,1,1-1.53,1.45,1.5,1.5,0,0,1,1.53-1.45m0-1.06A2.49,2.49,0,1,0,584.1,413a2.62,2.62,0,0,0-2.75-2.44Z"/></g><path class="cls-5" d="M362.78,385.13a2.72,2.72,0,1,1-2.75-2.44A2.61,2.61,0,0,1,362.78,385.13Z"/><g class="cls-3"><path class="cls-4" d="M360,383.76a1.43,1.43,0,1,1-1.52,1.44,1.49,1.49,0,0,1,1.52-1.44m0-1.07a2.49,2.49,0,1,0,2.75,2.44,2.6,2.6,0,0,0-2.75-2.44Z"/></g><path class="cls-5" d="M365.68,167.37a2.72,2.72,0,1,1-2.75-2.44A2.6,2.6,0,0,1,365.68,167.37Z"/><g class="cls-3"><path class="cls-4" d="M363,166a1.43,1.43,0,1,1-1.53,1.45A1.49,1.49,0,0,1,363,166m0-1.06a2.49,2.49,0,1,0,2.75,2.44,2.6,2.6,0,0,0-2.75-2.44Z"/></g><path class="cls-5" d="M399.4,193.5a2.72,2.72,0,1,1-2.75-2.44A2.6,2.6,0,0,1,399.4,193.5Z"/><g class="cls-3"><path class="cls-4" d="M396.67,192.13a1.43,1.43,0,1,1-1.53,1.44,1.48,1.48,0,0,1,1.53-1.44m0-1.07a2.49,2.49,0,1,0,2.75,2.44,2.61,2.61,0,0,0-2.75-2.44Z"/></g><path class="cls-5" d="M345.67,187.84a2.72,2.72,0,1,1-2.75-2.43A2.6,2.6,0,0,1,345.67,187.84Z"/><g class="cls-3"><path class="cls-4" d="M342.94,186.47a1.43,1.43,0,1,1,.05,2.84,1.43,1.43,0,1,1-.05-2.84m0-1.06a2.49,2.49,0,1,0,2.75,2.43,2.6,2.6,0,0,0-2.75-2.43Z"/></g><path class="cls-5" d="M320.76,229a2.72,2.72,0,1,1-2.75-2.43A2.6,2.6,0,0,1,320.76,229Z"/><g class="cls-3"><path class="cls-4" d="M318,227.59A1.43,1.43,0,1,1,316.5,229a1.5,1.5,0,0,1,1.52-1.45m0-1.06a2.49,2.49,0,1,0,2.75,2.43,2.6,2.6,0,0,0-2.75-2.43Z"/></g><path class="cls-5" d="M457.88,196.68a2.72,2.72,0,1,1-2.75-2.44A2.6,2.6,0,0,1,457.88,196.68Z"/><g class="cls-3"><path class="cls-4" d="M455.15,195.31a1.48,1.48,0,0,1,1.57,1.39,1.56,1.56,0,1,1-1.57-1.39m0-1.07a2.49,2.49,0,1,0,2.75,2.44,2.61,2.61,0,0,0-2.75-2.44Z"/></g><path class="cls-5" d="M475.6,185.28a2.72,2.72,0,1,1-2.75-2.44A2.61,2.61,0,0,1,475.6,185.28Z"/><g class="cls-3"><path class="cls-4" d="M472.86,183.9a1.43,1.43,0,1,1,.05,2.84,1.48,1.48,0,0,1-1.57-1.39,1.5,1.5,0,0,1,1.52-1.45m0-1.06a2.49,2.49,0,1,0,2.75,2.44,2.6,2.6,0,0,0-2.75-2.44Z"/></g><path class="cls-5" d="M569.79,193.34A2.72,2.72,0,1,1,567,190.9,2.59,2.59,0,0,1,569.79,193.34Z"/><g class="cls-3"><path class="cls-4" d="M567.06,192a1.43,1.43,0,1,1-1.53,1.45,1.49,1.49,0,0,1,1.53-1.45m0-1.06a2.49,2.49,0,1,0,2.75,2.44A2.6,2.6,0,0,0,567,190.9Z"/></g><path class="cls-5" d="M611.14,178.06a2.72,2.72,0,1,1-2.75-2.44A2.6,2.6,0,0,1,611.14,178.06Z"/><g class="cls-3"><path class="cls-4" d="M608.41,176.68a1.43,1.43,0,1,1-1.52,1.45,1.49,1.49,0,0,1,1.52-1.45m0-1.06a2.49,2.49,0,1,0,2.75,2.44,2.6,2.6,0,0,0-2.75-2.44Z"/></g><g class="cls-3"><path class="cls-4" d="M694.55,409.6l16.3-50.78L792.25,347Zm17.2-49.84L696.6,407l90.86-58.24Z"/></g><g class="cls-3"><polygon class="cls-4" points="695.04 408.5 685.21 387.68 685.43 387.43 710.85 358.95 711.75 359.63 686.55 387.85 696.11 408.08 695.04 408.5"/></g><path class="cls-5" d="M710.31,357a2.79,2.79,0,0,1,3.51,1.39,2.43,2.43,0,0,1-1.53,3.23,2.79,2.79,0,0,1-3.51-1.4A2.42,2.42,0,0,1,710.31,357Z"/><g class="cls-3"><path class="cls-4" d="M711.28,357.87h0a1.55,1.55,0,0,1,1.46.9,1.39,1.39,0,0,1-.87,1.84,1.72,1.72,0,0,1-.55.1,1.55,1.55,0,0,1-1.46-.9,1.27,1.27,0,0,1,0-1.08,1.57,1.57,0,0,1,1.4-.86m0-1.07a3.13,3.13,0,0,0-1,.18,2.42,2.42,0,0,0-1.53,3.22,2.7,2.7,0,0,0,2.56,1.57,2.84,2.84,0,0,0,.95-.17,2.43,2.43,0,0,0,1.53-3.23,2.72,2.72,0,0,0-2.56-1.57Z"/></g><path class="cls-5" d="M787.7,346.24a2.79,2.79,0,0,1,3.52,1.39,2.43,2.43,0,0,1-1.53,3.23,2.81,2.81,0,0,1-3.52-1.39A2.44,2.44,0,0,1,787.7,346.24Z"/><g class="cls-3"><path class="cls-4" d="M788.67,347.13h0a1.57,1.57,0,0,1,1.47.9,1.39,1.39,0,0,1-.88,1.84,1.62,1.62,0,0,1-.54.1,1.57,1.57,0,0,1-1.47-.9,1.39,1.39,0,0,1,.88-1.84,1.44,1.44,0,0,1,.54-.1m0-1.07a3.25,3.25,0,0,0-.95.18,2.44,2.44,0,0,0-1.53,3.23,2.73,2.73,0,0,0,2.57,1.56,2.89,2.89,0,0,0,1-.17,2.43,2.43,0,0,0,1.53-3.23,2.74,2.74,0,0,0-2.57-1.57Z"/></g><path class="cls-5" d="M694.58,406a2.8,2.8,0,0,1,3.52,1.4,2.42,2.42,0,0,1-1.53,3.22,2.79,2.79,0,0,1-3.52-1.39A2.44,2.44,0,0,1,694.58,406Z"/><g class="cls-3"><path class="cls-4" d="M695.55,406.87h0a1.57,1.57,0,0,1,1.47.9,1.39,1.39,0,0,1-.88,1.84,1.44,1.44,0,0,1-.54.1,1.58,1.58,0,0,1-1.47-.89,1.34,1.34,0,0,1,0-1.09A1.51,1.51,0,0,1,695,407a2,2,0,0,1,.54-.1m0-1.06a2.93,2.93,0,0,0-.95.17,2.44,2.44,0,0,0-1.53,3.23,2.72,2.72,0,0,0,2.57,1.57,2.9,2.9,0,0,0,1-.18,2.42,2.42,0,0,0,1.53-3.22,2.72,2.72,0,0,0-2.57-1.57Z"/></g><path class="cls-5" d="M684.89,385.45a2.79,2.79,0,0,1,3.51,1.4,2.42,2.42,0,0,1-1.53,3.22,2.79,2.79,0,0,1-3.51-1.39A2.43,2.43,0,0,1,684.89,385.45Z"/><g class="cls-3"><path class="cls-4" d="M685.86,386.34h0a1.55,1.55,0,0,1,1.46.9,1.3,1.3,0,0,1,0,1.09,1.5,1.5,0,0,1-.85.75,1.47,1.47,0,0,1-.54.1,1.56,1.56,0,0,1-1.47-.89,1.34,1.34,0,0,1,0-1.09,1.52,1.52,0,0,1,.85-.76,1.72,1.72,0,0,1,.55-.1m0-1.06a2.84,2.84,0,0,0-1,.17,2.43,2.43,0,0,0-1.53,3.23,2.71,2.71,0,0,0,2.56,1.57,2.86,2.86,0,0,0,1-.18,2.42,2.42,0,0,0,1.53-3.22,2.7,2.7,0,0,0-2.56-1.57Z"/></g><path class="cls-5" d="M554.86,200.54a2.72,2.72,0,1,1-2.76-2.44A2.61,2.61,0,0,1,554.86,200.54Z"/><g class="cls-3"><path class="cls-4" d="M552.12,199.17a1.43,1.43,0,1,1-1.52,1.44,1.48,1.48,0,0,1,1.52-1.44m0-1.07a2.5,2.5,0,1,0,2.76,2.44,2.6,2.6,0,0,0-2.76-2.44Z"/></g><path class="cls-5" d="M546.1,226.87a2.72,2.72,0,1,1-2.75-2.44A2.61,2.61,0,0,1,546.1,226.87Z"/><g class="cls-3"><path class="cls-4" d="M543.36,225.49a1.43,1.43,0,1,1,0,2.84,1.43,1.43,0,1,1,0-2.84m0-1.06a2.49,2.49,0,1,0,2.75,2.44,2.6,2.6,0,0,0-2.75-2.44Z"/></g><path class="cls-5" d="M509.54,236.12a2.72,2.72,0,1,1-2.75-2.44A2.6,2.6,0,0,1,509.54,236.12Z"/><g class="cls-3"><path class="cls-4" d="M506.81,234.74a1.43,1.43,0,1,1-1.53,1.45,1.49,1.49,0,0,1,1.53-1.45m0-1.06a2.49,2.49,0,1,0,2.75,2.44,2.61,2.61,0,0,0-2.75-2.44Z"/></g><path class="cls-5" d="M479.13,256.35a2.72,2.72,0,1,1-2.75-2.43A2.6,2.6,0,0,1,479.13,256.35Z"/><g class="cls-3"><path class="cls-4" d="M476.39,255a1.43,1.43,0,1,1-1.52,1.45,1.48,1.48,0,0,1,1.52-1.45m0-1.06a2.49,2.49,0,1,0,2.75,2.43,2.59,2.59,0,0,0-2.75-2.43Z"/></g><path class="cls-5" d="M503.93,196.19a2.72,2.72,0,1,1-2.75-2.44A2.62,2.62,0,0,1,503.93,196.19Z"/><g class="cls-3"><path class="cls-4" d="M501.19,194.81a1.43,1.43,0,1,1,.05,2.84,1.43,1.43,0,1,1-.05-2.84m0-1.06a2.49,2.49,0,1,0,2.75,2.44,2.59,2.59,0,0,0-2.75-2.44Z"/></g><path class="cls-5" d="M553.6,242a2.72,2.72,0,1,1-2.75-2.44A2.61,2.61,0,0,1,553.6,242Z"/><g class="cls-3"><path class="cls-4" d="M550.86,240.65a1.49,1.49,0,0,1,1.58,1.39,1.51,1.51,0,0,1-1.53,1.45,1.43,1.43,0,1,1,0-2.84m0-1.07A2.49,2.49,0,1,0,553.6,242a2.6,2.6,0,0,0-2.75-2.44Z"/></g><path class="cls-5" d="M572.38,284.16a2.72,2.72,0,1,1-2.75-2.44A2.6,2.6,0,0,1,572.38,284.16Z"/><g class="cls-3"><path class="cls-4" d="M569.65,282.78a1.5,1.5,0,0,1,1.57,1.4,1.56,1.56,0,0,1-3.1.05,1.51,1.51,0,0,1,1.53-1.45m0-1.06a2.49,2.49,0,1,0,2.75,2.44,2.62,2.62,0,0,0-2.75-2.44Z"/></g><path class="cls-5" d="M597.73,285.73a2.72,2.72,0,1,1-2.75-2.44A2.6,2.6,0,0,1,597.73,285.73Z"/><g class="cls-3"><path class="cls-4" d="M595,284.35a1.5,1.5,0,0,1,1.57,1.4,1.56,1.56,0,0,1-3.1.05,1.51,1.51,0,0,1,1.53-1.45m0-1.06a2.49,2.49,0,1,0,2.75,2.44,2.62,2.62,0,0,0-2.75-2.44Z"/></g><path class="cls-5" d="M545.94,337a2.72,2.72,0,1,1-2.75-2.44A2.59,2.59,0,0,1,545.94,337Z"/><g class="cls-3"><path class="cls-4" d="M543.21,335.62a1.43,1.43,0,1,1-1.53,1.45,1.49,1.49,0,0,1,1.53-1.45m0-1.06a2.49,2.49,0,1,0,2.75,2.44,2.6,2.6,0,0,0-2.75-2.44Z"/></g><path class="cls-5" d="M564.59,332.46a2.72,2.72,0,1,1-2.75-2.44A2.61,2.61,0,0,1,564.59,332.46Z"/><g class="cls-3"><path class="cls-4" d="M561.86,331.08a1.43,1.43,0,1,1-1.53,1.45,1.49,1.49,0,0,1,1.53-1.45m0-1.06a2.49,2.49,0,1,0,2.75,2.44,2.6,2.6,0,0,0-2.75-2.44Z"/></g><path class="cls-5" d="M432.76,242a2.72,2.72,0,1,1-2.75-2.44A2.6,2.6,0,0,1,432.76,242Z"/><g class="cls-3"><path class="cls-4" d="M430,240.66a1.43,1.43,0,1,1,.05,2.84,1.43,1.43,0,1,1-.05-2.84m0-1.07a2.49,2.49,0,1,0,2.75,2.44,2.62,2.62,0,0,0-2.75-2.44Z"/></g><path class="cls-5" d="M374.72,232.38a2.72,2.72,0,1,1-2.75-2.44A2.6,2.6,0,0,1,374.72,232.38Z"/><g class="cls-3"><path class="cls-4" d="M372,231a1.48,1.48,0,0,1,1.57,1.39A1.56,1.56,0,1,1,372,231m0-1.07a2.49,2.49,0,1,0,2.75,2.44,2.61,2.61,0,0,0-2.75-2.44Z"/></g><path class="cls-5" d="M477.64,308.78a2.72,2.72,0,1,1-2.75-2.44A2.6,2.6,0,0,1,477.64,308.78Z"/><g class="cls-3"><path class="cls-4" d="M474.91,307.4a1.43,1.43,0,1,1-1.53,1.45,1.49,1.49,0,0,1,1.53-1.45m0-1.06a2.49,2.49,0,1,0,2.75,2.44,2.6,2.6,0,0,0-2.75-2.44Z"/></g><path class="cls-5" d="M511.11,352.33a2.72,2.72,0,1,1-2.75-2.44A2.61,2.61,0,0,1,511.11,352.33Z"/><g class="cls-3"><path class="cls-4" d="M508.37,351a1.43,1.43,0,1,1-1.52,1.45,1.51,1.51,0,0,1,1.52-1.45m0-1.06a2.49,2.49,0,1,0,2.75,2.44,2.61,2.61,0,0,0-2.75-2.44Z"/></g><path class="cls-5" d="M473.4,380.31a2.72,2.72,0,1,1-2.75-2.44A2.6,2.6,0,0,1,473.4,380.31Z"/><g class="cls-3"><path class="cls-4" d="M470.67,378.94a1.43,1.43,0,1,1,.05,2.84,1.43,1.43,0,1,1-.05-2.84m0-1.07a2.49,2.49,0,1,0,2.75,2.44,2.61,2.61,0,0,0-2.75-2.44Z"/></g><path class="cls-5" d="M349.51,413.87a2.72,2.72,0,1,1-2.76-2.44A2.62,2.62,0,0,1,349.51,413.87Z"/><g class="cls-3"><path class="cls-4" d="M346.77,412.5a1.49,1.49,0,0,1,1.58,1.39,1.56,1.56,0,0,1-3.1.05,1.48,1.48,0,0,1,1.52-1.44m0-1.07a2.5,2.5,0,1,0,2.76,2.44,2.6,2.6,0,0,0-2.76-2.44Z"/></g><path class="cls-5" d="M278.86,429.63a2.72,2.72,0,1,1-2.75-2.44A2.6,2.6,0,0,1,278.86,429.63Z"/><g class="cls-3"><path class="cls-4" d="M276.13,428.26a1.48,1.48,0,0,1,1.57,1.39,1.56,1.56,0,1,1-1.57-1.39m0-1.07a2.49,2.49,0,1,0,2.75,2.44,2.61,2.61,0,0,0-2.75-2.44Z"/></g><path class="cls-5" d="M250.51,378.37a2.72,2.72,0,1,1-2.75-2.44A2.6,2.6,0,0,1,250.51,378.37Z"/><g class="cls-3"><path class="cls-4" d="M247.78,377a1.43,1.43,0,1,1-1.52,1.45,1.49,1.49,0,0,1,1.52-1.45m0-1.06a2.49,2.49,0,1,0,2.75,2.44,2.61,2.61,0,0,0-2.75-2.44Z"/></g><g class="cls-3"><path class="cls-4" d="M9.69,147.53l7.85-40.76L52,130.16Zm8.67-38.88-7.14,37.09,38.52-15.8Z"/></g><g class="cls-3"><polygon class="cls-4" points="44.05 152.66 10.35 147.16 10.56 146.11 43.24 151.45 50.33 129.9 51.44 130.2 44.05 152.66"/></g><path class="cls-5" d="M20.66,107.67A2.6,2.6,0,0,1,18,110.19a2.49,2.49,0,1,1-.08-5A2.59,2.59,0,0,1,20.66,107.67Z"/><g class="cls-3"><path class="cls-4" d="M17.93,106.29a1.43,1.43,0,1,1-1.53,1.45,1.49,1.49,0,0,1,1.53-1.45m0-1.06a2.49,2.49,0,1,0,.08,5,2.49,2.49,0,1,0-.08-5Z"/></g><path class="cls-5" d="M46.36,152a2.72,2.72,0,1,1-2.75-2.44A2.61,2.61,0,0,1,46.36,152Z"/><g class="cls-3"><path class="cls-4" d="M43.62,150.64a1.43,1.43,0,1,1-1.52,1.44,1.49,1.49,0,0,1,1.52-1.44m0-1.07A2.49,2.49,0,1,0,46.36,152a2.61,2.61,0,0,0-2.75-2.44Z"/></g><path class="cls-5" d="M13.17,146.59a2.62,2.62,0,0,1-2.67,2.53,2.49,2.49,0,1,1-.09-5A2.62,2.62,0,0,1,13.17,146.59Z"/><g class="cls-3"><path class="cls-4" d="M10.43,145.22A1.49,1.49,0,0,1,12,146.61a1.51,1.51,0,0,1-1.53,1.45,1.43,1.43,0,1,1-.05-2.84m0-1.07a2.49,2.49,0,1,0,.09,5,2.5,2.5,0,1,0-.09-5Z"/></g><path class="cls-5" d="M53.59,130a2.72,2.72,0,1,1-2.75-2.44A2.6,2.6,0,0,1,53.59,130Z"/><g class="cls-3"><path class="cls-4" d="M50.86,128.63a1.43,1.43,0,1,1-1.53,1.44,1.48,1.48,0,0,1,1.53-1.44m0-1.07A2.49,2.49,0,1,0,53.59,130a2.61,2.61,0,0,0-2.75-2.44Z"/></g><path class="cls-5" d="M479.75,401.6a2.72,2.72,0,1,1-2.75-2.44A2.6,2.6,0,0,1,479.75,401.6Z"/><g class="cls-3"><path class="cls-4" d="M477,400.22a1.43,1.43,0,1,1-1.53,1.45,1.49,1.49,0,0,1,1.53-1.45m0-1.06a2.49,2.49,0,1,0,2.75,2.44,2.61,2.61,0,0,0-2.75-2.44Z"/></g><path class="cls-5" d="M511.14,299.77a2.72,2.72,0,1,1-2.75-2.44A2.6,2.6,0,0,1,511.14,299.77Z"/><g class="cls-3"><path class="cls-4" d="M508.41,298.39a1.43,1.43,0,1,1-1.53,1.45,1.49,1.49,0,0,1,1.53-1.45m0-1.06a2.49,2.49,0,1,0,2.75,2.44,2.6,2.6,0,0,0-2.75-2.44Z"/></g><path class="cls-5" d="M370.32,272.58a2.72,2.72,0,1,1-2.75-2.44A2.6,2.6,0,0,1,370.32,272.58Z"/><g class="cls-3"><path class="cls-4" d="M367.59,271.21a1.48,1.48,0,0,1,1.57,1.39,1.56,1.56,0,1,1-1.57-1.39m0-1.07a2.49,2.49,0,1,0,2.75,2.44,2.61,2.61,0,0,0-2.75-2.44Z"/></g><path class="cls-5" d="M295.23,303.84a2.72,2.72,0,1,1-2.76-2.44A2.62,2.62,0,0,1,295.23,303.84Z"/><g class="cls-3"><path class="cls-4" d="M292.49,302.46a1.43,1.43,0,1,1,.05,2.84,1.43,1.43,0,1,1-.05-2.84m0-1.06a2.5,2.5,0,1,0,2.76,2.44,2.6,2.6,0,0,0-2.76-2.44Z"/></g><path class="cls-5" d="M295.32,156.76a2.72,2.72,0,1,1-2.75-2.44A2.6,2.6,0,0,1,295.32,156.76Z"/><g class="cls-3"><path class="cls-4" d="M292.59,155.38a1.43,1.43,0,1,1-1.53,1.45,1.49,1.49,0,0,1,1.53-1.45m0-1.06a2.49,2.49,0,1,0,2.75,2.44,2.6,2.6,0,0,0-2.75-2.44Z"/></g><path class="cls-5" d="M286,251.1a2.72,2.72,0,1,1-2.75-2.44A2.6,2.6,0,0,1,286,251.1Z"/><g class="cls-3"><path class="cls-4" d="M283.3,249.72a1.43,1.43,0,1,1-1.53,1.45,1.49,1.49,0,0,1,1.53-1.45m0-1.06A2.49,2.49,0,1,0,286,251.1a2.6,2.6,0,0,0-2.75-2.44Z"/></g><path class="cls-5" d="M237.19,207.3a2.72,2.72,0,1,1-2.75-2.44A2.61,2.61,0,0,1,237.19,207.3Z"/><g class="cls-3"><path class="cls-4" d="M234.46,205.92a1.43,1.43,0,1,1-1.53,1.45,1.5,1.5,0,0,1,1.53-1.45m0-1.06a2.49,2.49,0,1,0,2.75,2.44,2.61,2.61,0,0,0-2.75-2.44Z"/></g><path class="cls-5" d="M194.59,278.48a2.72,2.72,0,1,1-2.75-2.44A2.6,2.6,0,0,1,194.59,278.48Z"/><g class="cls-3"><path class="cls-4" d="M191.86,277.1a1.43,1.43,0,1,1-1.53,1.45,1.49,1.49,0,0,1,1.53-1.45m0-1.06a2.49,2.49,0,1,0,2.75,2.44,2.61,2.61,0,0,0-2.75-2.44Z"/></g><g class="cls-3"><path class="cls-4" d="M662.33,315.72l.7-34,17.06,31.38Zm1.77-29.67-.58,28.41,14.82-2.2Z"/></g><path class="cls-5" d="M665.54,285.56a2.9,2.9,0,0,1-3.83.13,2.34,2.34,0,0,1-.13-3.51,2.88,2.88,0,0,1,3.83-.13A2.33,2.33,0,0,1,665.54,285.56Z"/><g class="cls-3"><path class="cls-4" d="M663.54,282.45a1.6,1.6,0,0,1,1.08.38,1.33,1.33,0,0,1,.08,2,1.62,1.62,0,0,1-1.11.46,1.64,1.64,0,0,1-1.08-.38,1.34,1.34,0,0,1-.08-2,1.61,1.61,0,0,1,1.11-.45m0-1.07a2.86,2.86,0,0,0-1.94.8,2.34,2.34,0,0,0,.13,3.51,2.89,2.89,0,0,0,1.89.66,2.84,2.84,0,0,0,1.94-.79,2.33,2.33,0,0,0-.13-3.51,2.81,2.81,0,0,0-1.89-.67Z"/></g><path class="cls-5" d="M664.9,316.78a2.87,2.87,0,0,1-3.83.13,2.34,2.34,0,0,1-.13-3.51,2.91,2.91,0,0,1,3.84-.13A2.34,2.34,0,0,1,664.9,316.78Z"/><g class="cls-3"><path class="cls-4" d="M662.9,313.67h0a1.6,1.6,0,0,1,1.08.38,1.35,1.35,0,0,1,.08,2,1.65,1.65,0,0,1-2.19.07,1.35,1.35,0,0,1-.08-2,1.65,1.65,0,0,1,1.11-.45m0-1.06a2.85,2.85,0,0,0-1.94.79,2.34,2.34,0,0,0,.13,3.51,2.85,2.85,0,0,0,1.9.67,2.82,2.82,0,0,0,1.93-.8,2.34,2.34,0,0,0-.12-3.51,2.9,2.9,0,0,0-1.9-.66Z"/></g><path class="cls-5" d="M681.2,314.36a2.9,2.9,0,0,1-3.83.13,2.33,2.33,0,0,1-.13-3.51,2.87,2.87,0,0,1,3.83-.13A2.34,2.34,0,0,1,681.2,314.36Z"/><g class="cls-3"><path class="cls-4" d="M679.19,311.25a1.54,1.54,0,0,1,1.08.38,1.3,1.3,0,0,1,.49,1,1.32,1.32,0,0,1-.41,1,1.62,1.62,0,0,1-1.11.46,1.66,1.66,0,0,1-1.08-.38,1.36,1.36,0,0,1-.49-1,1.34,1.34,0,0,1,.41-1,1.57,1.57,0,0,1,1.11-.45m0-1.07a2.78,2.78,0,0,0-1.93.8,2.33,2.33,0,0,0,.13,3.51,2.9,2.9,0,0,0,3.83-.13,2.34,2.34,0,0,0-.13-3.51,2.85,2.85,0,0,0-1.9-.67Z"/></g><g class="cls-3"><path class="cls-4" d="M154.68,129.2,143.94,116l33.23-15.28Zm-9-12.82,9,11,18.78-23.78Z"/></g><path class="cls-5" d="M174.58,104.57a2.46,2.46,0,0,1-1.89-3A2.75,2.75,0,0,1,176,99.78a2.46,2.46,0,0,1,1.89,3A2.76,2.76,0,0,1,174.58,104.57Z"/><g class="cls-3"><path class="cls-4" d="M175.28,100.75h0a2.12,2.12,0,0,1,.44,0,1.41,1.41,0,0,1,1.08,1.75,1.55,1.55,0,0,1-1.47,1,1.32,1.32,0,0,1-.44,0,1.4,1.4,0,0,1-1.08-1.74,1.54,1.54,0,0,1,1.47-1m0-1.06a2.7,2.7,0,0,0-2.57,1.83,2.46,2.46,0,0,0,1.89,3,3.44,3.44,0,0,0,.77.09,2.7,2.7,0,0,0,2.57-1.83,2.46,2.46,0,0,0-1.89-3,2.54,2.54,0,0,0-.77-.09Z"/></g><path class="cls-5" d="M144.1,118.59a2.46,2.46,0,0,1-1.89-3,2.74,2.74,0,0,1,3.34-1.74,2.45,2.45,0,0,1,1.88,3A2.75,2.75,0,0,1,144.1,118.59Z"/><g class="cls-3"><path class="cls-4" d="M144.8,114.77h0a2.2,2.2,0,0,1,.44,0,1.5,1.5,0,0,1,.93.67,1.29,1.29,0,0,1,.15,1.08,1.56,1.56,0,0,1-1.47,1,1.3,1.3,0,0,1-.44,0,1.53,1.53,0,0,1-.94-.66,1.33,1.33,0,0,1-.14-1.08,1.54,1.54,0,0,1,1.47-1m0-1.06a2.7,2.7,0,0,0-2.57,1.83,2.46,2.46,0,0,0,1.89,3,3.37,3.37,0,0,0,.77.09,2.67,2.67,0,0,0,2.56-1.83,2.45,2.45,0,0,0-1.88-3,2.57,2.57,0,0,0-.77-.09Z"/></g><path class="cls-5" d="M154,130.7a2.46,2.46,0,0,1-1.89-3.06,2.76,2.76,0,0,1,3.33-1.74,2.46,2.46,0,0,1,1.89,3.06A2.76,2.76,0,0,1,154,130.7Z"/><g class="cls-3"><path class="cls-4" d="M154.65,126.88h0a1.58,1.58,0,0,1,.43.05,1.55,1.55,0,0,1,.94.67,1.32,1.32,0,0,1,.14,1.08,1.54,1.54,0,0,1-1.47,1,1.58,1.58,0,0,1-.43-.05,1.55,1.55,0,0,1-.94-.67,1.31,1.31,0,0,1-.14-1.07,1.53,1.53,0,0,1,1.47-1.05m0-1.06a2.7,2.7,0,0,0-2.57,1.82A2.46,2.46,0,0,0,154,130.7a2.81,2.81,0,0,0,.76.08,2.67,2.67,0,0,0,2.57-1.82,2.46,2.46,0,0,0-1.89-3.06,2.81,2.81,0,0,0-.76-.08Z"/></g><g class="cls-3"><path class="cls-4" d="M71.88,441.38,33.48,371.8l52.88,10.07ZM35.61,373.29l35.85,65L85,382.7Z"/></g><g class="cls-3"><polygon class="cls-4" points="71.33 440.25 22.21 407.2 33.99 372.39 35.1 372.7 23.57 406.79 72.02 439.39 71.33 440.25"/></g><path class="cls-5" d="M68.28,439.87a3.4,3.4,0,1,0,3.34-3.17A3.26,3.26,0,0,0,68.28,439.87Z"/><g class="cls-3"><path class="cls-4" d="M71.64,437.77a2.05,2.05,0,1,1-2.2,2.08,2.14,2.14,0,0,1,2.2-2.08m0-1.07a3.13,3.13,0,1,0,3.44,3.06,3.27,3.27,0,0,0-3.44-3.06Z"/></g><path class="cls-5" d="M19.49,407.05a3.27,3.27,0,0,0,3.45,3.05,3.12,3.12,0,1,0-.1-6.22A3.27,3.27,0,0,0,19.49,407.05Z"/><g class="cls-3"><path class="cls-4" d="M22.85,404.94a2.06,2.06,0,1,1,.07,4.1,2.06,2.06,0,1,1-.07-4.1m0-1.06a3.12,3.12,0,1,0,.1,6.22,3.12,3.12,0,1,0-.1-6.22Z"/></g><path class="cls-5" d="M31.15,372.6a3.41,3.41,0,1,0,3.35-3.17A3.26,3.26,0,0,0,31.15,372.6Z"/><g class="cls-3"><path class="cls-4" d="M34.51,370.5a2.05,2.05,0,1,1-2.2,2.08,2.15,2.15,0,0,1,2.2-2.08m0-1.07a3.12,3.12,0,1,0,3.44,3.06,3.27,3.27,0,0,0-3.44-3.06Z"/></g><path class="cls-5" d="M82.27,382.34a3.41,3.41,0,1,0,3.34-3.17A3.26,3.26,0,0,0,82.27,382.34Z"/><g class="cls-3"><path class="cls-4" d="M85.63,380.24a2.05,2.05,0,1,1-2.2,2.08,2.15,2.15,0,0,1,2.2-2.08m0-1.07a3.12,3.12,0,1,0,3.45,3.06,3.27,3.27,0,0,0-3.45-3.06Z"/></g></g></g></g></svg>